<svg width="100%" height="100%" viewBox="0 0 1470 206" fill="none" xmlns="http://www.w3.org/2000/svg">
<g filter="url(#filter0_ddd)">
<rect x="11" y="11" width="1440" height="176" fill="#FCFEF4"/>
</g>
<g filter="url(#filter1_dii)">
<rect x="14" y="14" width="1434" height="170" fill="#FCFEF4"/>
<rect x="15" y="15" width="1432" height="168" stroke="#181425" stroke-width="2"/>
</g>
<path d="M20 66L20 21L1442 21V66L20 66Z" fill="#FC74C6" stroke="#181425" stroke-width="2"/>
<path d="M1079.62 44.6094H1075.3V46.8283H1079.62V44.6094Z" fill="#181425"/>
<path d="M727.256 46.8283H722.94V49.0472H727.256V46.8283Z" fill="#181425"/>
<path d="M757.862 44.6094H753.546V46.8283H757.862V44.6094Z" fill="#181425"/>
<path d="M1079.62 49.0472H1075.3V51.2661H1079.62V49.0472Z" fill="#181425"/>
<path d="M744.717 46.8283H740.401V49.0472H744.717V46.8283Z" fill="#181425"/>
<path d="M1079.62 53.5858H1075.3V55.8047H1079.62V53.5858Z" fill="#181425"/>
<path d="M788.272 37.9528H783.956V40.1717H788.272V37.9528Z" fill="#181425"/>
<path d="M714.307 44.6094H709.991V46.8283H714.307V44.6094Z" fill="#181425"/>
<path d="M736.085 46.8283H731.768V49.0472H736.085V46.8283Z" fill="#181425"/>
<path d="M1079.62 31.1953H1075.3V33.4142H1079.62V31.1953Z" fill="#181425"/>
<path d="M675.069 37.9528H670.752V40.1717H675.069V37.9528Z" fill="#181425"/>
<path d="M766.495 44.6094H762.178V46.8283H766.495V44.6094Z" fill="#181425"/>
<path d="M788.272 42.3906H783.956V44.6094H788.272V42.3906Z" fill="#181425"/>
<path d="M1079.62 35.633H1075.3V37.8519H1079.62V35.633Z" fill="#181425"/>
<path d="M718.624 46.8283H714.307V49.0472H718.624V46.8283Z" fill="#181425"/>
<path d="M792.588 40.1717H788.272V42.3906H792.588V40.1717Z" fill="#181425"/>
<path d="M783.956 44.6094H779.639V46.8283H783.956V44.6094Z" fill="#181425"/>
<path d="M1079.62 40.1717H1075.3V42.3906H1079.62V40.1717Z" fill="#181425"/>
<path d="M1070.79 35.633H1066.47V37.8519H1070.79V35.633Z" fill="#181425"/>
<path d="M1114.34 40.1717H1110.03V42.3906H1114.34V40.1717Z" fill="#181425"/>
<path d="M740.401 44.6094H736.085V46.8283H740.401V44.6094Z" fill="#181425"/>
<path d="M1070.79 44.6094H1066.47V46.8283H1070.79V44.6094Z" fill="#181425"/>
<path d="M749.033 44.6094H744.717V46.8283H749.033V44.6094Z" fill="#181425"/>
<path d="M753.35 46.8283H749.033V49.0472H753.35V46.8283Z" fill="#181425"/>
<path d="M1114.34 31.1953H1110.03V33.4142H1114.34V31.1953Z" fill="#181425"/>
<path d="M1096.88 31.1953H1092.57V33.4142H1096.88V31.1953Z" fill="#181425"/>
<path d="M736.085 42.3906H731.768V44.6094H736.085V42.3906Z" fill="#181425"/>
<path d="M1070.79 53.5858H1066.47V55.8047H1070.79V53.5858Z" fill="#181425"/>
<path d="M770.811 37.9528H766.495V40.1717H770.811V37.9528Z" fill="#181425"/>
<path d="M679.581 35.633H675.265V37.8519H679.581V35.633Z" fill="#181425"/>
<path d="M1096.88 35.633H1092.57V37.8519H1096.88V35.633Z" fill="#181425"/>
<path d="M1079.62 62.4614H1075.3V64.6803H1079.62V62.4614Z" fill="#181425"/>
<path d="M740.401 49.0472H736.085V51.2661H740.401V49.0472Z" fill="#181425"/>
<path d="M1079.62 58.0236H1075.3V60.2425H1079.62V58.0236Z" fill="#181425"/>
<path d="M753.35 37.9528H749.033V40.1717H753.35V37.9528Z" fill="#181425"/>
<path d="M1070.79 26.7575H1066.47V28.9764H1070.79V26.7575Z" fill="#181425"/>
<path d="M749.033 49.0472H744.717V51.2661H749.033V49.0472Z" fill="#181425"/>
<path d="M670.752 35.633H666.436V37.8519H670.752V35.633Z" fill="#181425"/>
<path d="M757.862 49.0472H753.546V51.2661H757.862V49.0472Z" fill="#181425"/>
<path d="M1114.34 62.4614H1110.03V64.6803H1114.34V62.4614Z" fill="#181425"/>
<path d="M705.675 40.1717H701.359V42.3906H705.675V40.1717Z" fill="#181425"/>
<path d="M692.53 42.3906H688.214V44.6094H692.53V42.3906Z" fill="#181425"/>
<path d="M653.488 40.1717H649.171V42.3906H653.488V40.1717Z" fill="#181425"/>
<path d="M696.846 40.1717H692.53V42.3906H696.846V40.1717Z" fill="#181425"/>
<path d="M688.214 40.1717H683.897V42.3906H688.214V40.1717Z" fill="#181425"/>
<path d="M779.443 42.3906H775.127V44.6094H779.443V42.3906Z" fill="#181425"/>
<path d="M1114.34 58.0236H1110.03V60.2425H1114.34V58.0236Z" fill="#181425"/>
<path d="M683.897 37.9528H679.581V40.1717H683.897V37.9528Z" fill="#181425"/>
<path d="M1114.34 53.5858H1110.03V55.8047H1114.34V53.5858Z" fill="#181425"/>
<path d="M1088.25 26.7575H1083.93V28.9764H1088.25V26.7575Z" fill="#181425"/>
<path d="M1096.88 62.4614H1092.57V64.6803H1096.88V62.4614Z" fill="#181425"/>
<path d="M648.975 42.3906H644.659V44.6094H648.975V42.3906Z" fill="#181425"/>
<path d="M701.162 37.9528H696.846V40.1717H701.162V37.9528Z" fill="#181425"/>
<path d="M1105.71 44.6094H1101.4V46.8283H1105.71V44.6094Z" fill="#181425"/>
<path d="M1105.71 26.7575H1101.4V28.9764H1105.71V26.7575Z" fill="#181425"/>
<path d="M1096.88 49.0472H1092.57V51.2661H1096.88V49.0472Z" fill="#181425"/>
<path d="M1105.71 35.633H1101.4V37.8519H1105.71V35.633Z" fill="#181425"/>
<path d="M1096.88 44.6094H1092.57V46.8283H1096.88V44.6094Z" fill="#181425"/>
<path d="M1096.88 58.0236H1092.57V60.2425H1096.88V58.0236Z" fill="#181425"/>
<path d="M692.53 37.9528H688.214V40.1717H692.53V37.9528Z" fill="#181425"/>
<path d="M1096.88 53.5858H1092.57V55.8047H1096.88V53.5858Z" fill="#181425"/>
<path d="M1088.25 35.633H1083.93V37.8519H1088.25V35.633Z" fill="#181425"/>
<path d="M1079.62 22.2189H1075.3V24.4378H1079.62V22.2189Z" fill="#181425"/>
<path d="M709.991 42.3906H705.675V44.6094H709.991V42.3906Z" fill="#181425"/>
<path d="M1096.88 22.2189H1092.57V24.4378H1096.88V22.2189Z" fill="#181425"/>
<path d="M783.956 40.1717H779.639V42.3906H783.956V40.1717Z" fill="#181425"/>
<path d="M753.35 42.3906H749.033V44.6094H753.35V42.3906Z" fill="#181425"/>
<path d="M1088.25 62.4614H1083.93V64.6803H1088.25V62.4614Z" fill="#181425"/>
<path d="M1079.62 26.7575H1075.3V28.9764H1079.62V26.7575Z" fill="#181425"/>
<path d="M770.811 42.3906H766.495V44.6094H770.811V42.3906Z" fill="#181425"/>
<path d="M1114.34 44.6094H1110.03V46.8283H1114.34V44.6094Z" fill="#181425"/>
<path d="M718.624 42.3906H714.307V44.6094H718.624V42.3906Z" fill="#181425"/>
<path d="M727.256 42.3906H722.94V44.6094H727.256V42.3906Z" fill="#181425"/>
<path d="M1088.25 44.6094H1083.93V46.8283H1088.25V44.6094Z" fill="#181425"/>
<path d="M1096.88 40.1717H1092.57V42.3906H1096.88V40.1717Z" fill="#181425"/>
<path d="M701.162 42.3906H696.846V44.6094H701.162V42.3906Z" fill="#181425"/>
<path d="M1105.71 53.5858H1101.4V55.8047H1105.71V53.5858Z" fill="#181425"/>
<path d="M1070.79 58.0236H1066.47V60.2425H1070.79V58.0236Z" fill="#181425"/>
<path d="M722.94 44.6094H718.624V46.8283H722.94V44.6094Z" fill="#181425"/>
<path d="M731.768 44.6094H727.452V46.8283H731.768V44.6094Z" fill="#181425"/>
<path d="M1114.34 49.0472H1110.03V51.2661H1114.34V49.0472Z" fill="#181425"/>
<path d="M1105.71 62.4614H1101.4V64.6803H1105.71V62.4614Z" fill="#181425"/>
<path d="M1088.25 53.5858H1083.93V55.8047H1088.25V53.5858Z" fill="#181425"/>
<path d="M1044.7 58.0236H1040.38V60.2425H1044.7V58.0236Z" fill="#181425"/>
<path d="M1018.6 31.1953H1014.29V33.4142H1018.6V31.1953Z" fill="#181425"/>
<path d="M1018.6 26.7575H1014.29V28.9764H1018.6V26.7575Z" fill="#181425"/>
<path d="M662.12 31.1953H657.804V33.4142H662.12V31.1953Z" fill="#181425"/>
<path d="M653.488 37.9528V40.1717H657.804V37.9528H662.12V35.633H657.804V33.4142H653.488V35.633H649.171V37.9528H653.488Z" fill="#181425"/>
<path d="M1018.6 35.633H1014.29V37.8519H1018.6V35.633Z" fill="#181425"/>
<path d="M1027.43 58.0236H1023.11V60.2425H1027.43V58.0236Z" fill="#181425"/>
<path d="M1027.43 62.4614H1023.11V64.6803H1027.43V62.4614Z" fill="#181425"/>
<path d="M670.752 31.1953H666.436V33.4142H670.752V31.1953Z" fill="#181425"/>
<path d="M648.975 37.9528H644.659V40.1717H648.975V37.9528Z" fill="#181425"/>
<path d="M1018.6 53.5858H1014.29V55.8047H1018.6V53.5858Z" fill="#181425"/>
<path d="M679.581 31.1953H675.265V33.4142H679.581V31.1953Z" fill="#181425"/>
<path d="M631.71 42.3906H627.394V44.6094H631.71V42.3906Z" fill="#181425"/>
<path d="M1018.6 49.0472H1014.29V51.2661H1018.6V49.0472Z" fill="#181425"/>
<path d="M1018.6 58.0236H1014.29V60.2425H1018.6V58.0236Z" fill="#181425"/>
<path d="M1018.6 40.1717H1014.29V42.3906H1018.6V40.1717Z" fill="#181425"/>
<path d="M740.401 40.1717H736.085V42.3906H740.401V40.1717Z" fill="#181425"/>
<path d="M1018.6 44.6094H1014.29V46.8283H1018.6V44.6094Z" fill="#181425"/>
<path d="M727.256 37.9528H722.94V40.1717H727.256V37.9528Z" fill="#181425"/>
<path d="M1027.43 53.5858H1023.11V55.8047H1027.43V53.5858Z" fill="#181425"/>
<path d="M731.768 40.1717H727.452V42.3906H731.768V40.1717Z" fill="#181425"/>
<path d="M1018.6 62.4614H1014.29V64.6803H1018.6V62.4614Z" fill="#181425"/>
<path d="M1027.43 31.1953H1023.11V33.4142H1027.43V31.1953Z" fill="#181425"/>
<path d="M714.307 35.633H709.991V37.8519H714.307V35.633Z" fill="#181425"/>
<path d="M1036.06 62.4614H1031.75V64.6803H1036.06V62.4614Z" fill="#181425"/>
<path d="M736.085 37.9528H731.768V40.1717H736.085V37.9528Z" fill="#181425"/>
<path d="M1027.43 22.2189H1023.11V24.4378H1027.43V22.2189Z" fill="#181425"/>
<path d="M718.624 37.9528H714.307V40.1717H718.624V37.9528Z" fill="#181425"/>
<path d="M1027.43 49.0472H1023.11V51.2661H1027.43V49.0472Z" fill="#181425"/>
<path d="M692.53 33.4142H688.214V35.633H692.53V33.4142Z" fill="#181425"/>
<path d="M1027.43 44.6094H1023.11V46.8283H1027.43V44.6094Z" fill="#181425"/>
<path d="M688.214 31.1953H683.897V33.4142H688.214V31.1953Z" fill="#181425"/>
<path d="M1027.43 35.633H1023.11V37.8519H1027.43V35.633Z" fill="#181425"/>
<path d="M709.991 33.4142H705.675V35.633H709.991V33.4142Z" fill="#181425"/>
<path d="M701.162 33.4142H696.846V35.633H701.162V33.4142Z" fill="#181425"/>
<path d="M1027.43 40.1717H1023.11V42.3906H1027.43V40.1717Z" fill="#181425"/>
<path d="M644.659 40.1717H640.343V42.3906H644.659V40.1717Z" fill="#181425"/>
<path d="M1001.34 40.1717H997.021V42.3906H1001.34V40.1717Z" fill="#181425"/>
<path d="M601.3 40.1717H596.984V42.3906H601.3V40.1717Z" fill="#181425"/>
<path d="M596.788 42.3906H592.472V44.6094H596.788V42.3906Z" fill="#181425"/>
<path d="M1001.34 49.0472H997.021V51.2661H1001.34V49.0472Z" fill="#181425"/>
<path d="M1001.34 44.6094H997.021V46.8283H1001.34V44.6094Z" fill="#181425"/>
<path d="M636.026 40.1717H631.71V42.3906H636.026V40.1717Z" fill="#181425"/>
<path d="M1001.34 31.1953H997.021V33.4142H1001.34V31.1953Z" fill="#181425"/>
<path d="M596.788 37.9528H592.472V40.1717H596.788V37.9528Z" fill="#181425"/>
<path d="M592.472 40.1717H588.155V42.3906H592.472V40.1717Z" fill="#181425"/>
<path d="M631.71 46.8283H627.394V49.0472H631.71V46.8283Z" fill="#181425"/>
<path d="M1001.34 62.4614H997.021V64.6803H1001.34V62.4614Z" fill="#181425"/>
<path d="M627.394 46.8283V44.6094H623.078V42.3906H618.565V44.6094H614.249V46.8283H618.565V49.0472H623.078V46.8283H627.394Z" fill="#181425"/>
<path d="M992.509 22.2189H988.192V24.4378H992.509V22.2189Z" fill="#181425"/>
<path d="M1001.34 53.5858H997.021V55.8047H1001.34V53.5858Z" fill="#181425"/>
<path d="M609.933 46.8283V44.6094H605.617V42.3906H601.3V44.6094H596.984V46.8283H601.3V49.0472H605.617V46.8283H609.933Z" fill="#181425"/>
<path d="M1001.34 58.0236H997.021V60.2425H1001.34V58.0236Z" fill="#181425"/>
<path d="M614.249 46.8283H609.933V49.0472H614.249V46.8283Z" fill="#181425"/>
<path d="M1001.34 35.633H997.021V37.8519H1001.34V35.633Z" fill="#181425"/>
<path d="M627.394 40.1717H623.078V42.3906H627.394V40.1717Z" fill="#181425"/>
<path d="M1009.97 35.633H1005.65V37.8519H1009.97V35.633Z" fill="#181425"/>
<path d="M1009.97 31.1953H1005.65V33.4142H1009.97V31.1953Z" fill="#181425"/>
<path d="M1009.97 40.1717H1005.65V42.3906H1009.97V40.1717Z" fill="#181425"/>
<path d="M1009.97 22.2189H1005.65V24.4378H1009.97V22.2189Z" fill="#181425"/>
<path d="M1009.97 26.7575H1005.65V28.9764H1009.97V26.7575Z" fill="#181425"/>
<path d="M1009.97 44.6094H1005.65V46.8283H1009.97V44.6094Z" fill="#181425"/>
<path d="M1001.34 26.7575H997.021V28.9764H1001.34V26.7575Z" fill="#181425"/>
<path d="M631.71 37.9528H627.394V40.1717H631.71V37.9528Z" fill="#181425"/>
<path d="M614.249 42.3906H609.933V44.6094H614.249V42.3906Z" fill="#181425"/>
<path d="M1009.97 62.4614H1005.65V64.6803H1009.97V62.4614Z" fill="#181425"/>
<path d="M609.933 40.1717H605.617V42.3906H609.933V40.1717Z" fill="#181425"/>
<path d="M1001.34 22.2189H997.021V24.4378H1001.34V22.2189Z" fill="#181425"/>
<path d="M614.249 37.9528H609.933V40.1717H614.249V37.9528Z" fill="#181425"/>
<path d="M1009.97 49.0472H1005.65V51.2661H1009.97V49.0472Z" fill="#181425"/>
<path d="M1009.97 53.5858H1005.65V55.8047H1009.97V53.5858Z" fill="#181425"/>
<path d="M618.565 40.1717H614.249V42.3906H618.565V40.1717Z" fill="#181425"/>
<path d="M1027.43 26.7575H1023.11V28.9764H1027.43V26.7575Z" fill="#181425"/>
<path d="M666.436 33.4142H662.12V35.633H666.436V33.4142Z" fill="#181425"/>
<path d="M662.12 40.1717H657.804V42.3906H662.12V40.1717Z" fill="#181425"/>
<path d="M1053.52 26.7575H1049.21V28.9764H1053.52V26.7575Z" fill="#181425"/>
<path d="M1053.52 35.633H1049.21V37.8519H1053.52V35.633Z" fill="#181425"/>
<path d="M666.436 37.9528H662.12V40.1717H666.436V37.9528Z" fill="#181425"/>
<path d="M1062.16 62.4614H1057.84V64.6803H1062.16V62.4614Z" fill="#181425"/>
<path d="M1062.16 58.0236H1057.84V60.2425H1062.16V58.0236Z" fill="#181425"/>
<path d="M670.752 40.1717H666.436V42.3906H670.752V40.1717Z" fill="#181425"/>
<path d="M666.436 42.3906H662.12V44.6094H666.436V42.3906Z" fill="#181425"/>
<path d="M1053.52 62.4614H1049.21V64.6803H1053.52V62.4614Z" fill="#181425"/>
<path d="M1053.52 53.5858H1049.21V55.8047H1053.52V53.5858Z" fill="#181425"/>
<path d="M1053.52 58.0236H1049.21V60.2425H1053.52V58.0236Z" fill="#181425"/>
<path d="M696.846 44.6094H692.53V46.8283H696.846V44.6094Z" fill="#181425"/>
<path d="M679.581 40.1717H675.265V42.3906H679.581V40.1717Z" fill="#181425"/>
<path d="M1053.52 44.6094H1049.21V46.8283H1053.52V44.6094Z" fill="#181425"/>
<path d="M1053.52 49.0472H1049.21V51.2661H1053.52V49.0472Z" fill="#181425"/>
<path d="M683.897 42.3906H679.581V44.6094H683.897V42.3906Z" fill="#181425"/>
<path d="M688.214 44.6094H683.897V46.8283H688.214V44.6094Z" fill="#181425"/>
<path d="M709.991 37.9528H705.675V40.1717H709.991V37.9528Z" fill="#181425"/>
<path d="M714.307 40.1717H709.991V42.3906H714.307V40.1717Z" fill="#181425"/>
<path d="M1062.16 26.7575H1057.84V28.9764H1062.16V26.7575Z" fill="#181425"/>
<path d="M1062.16 31.1953H1057.84V33.4142H1062.16V31.1953Z" fill="#181425"/>
<path d="M1070.79 62.4614H1066.47V64.6803H1070.79V62.4614Z" fill="#181425"/>
<path d="M1062.16 22.2189H1057.84V24.4378H1062.16V22.2189Z" fill="#181425"/>
<path d="M705.675 35.633H701.359V37.8519H705.675V35.633Z" fill="#181425"/>
<path d="M1062.16 53.5858H1057.84V55.8047H1062.16V53.5858Z" fill="#181425"/>
<path d="M722.94 40.1717H718.624V42.3906H722.94V40.1717Z" fill="#181425"/>
<path d="M1062.16 49.0472H1057.84V51.2661H1062.16V49.0472Z" fill="#181425"/>
<path d="M1062.16 44.6094H1057.84V46.8283H1062.16V44.6094Z" fill="#181425"/>
<path d="M683.897 33.4142H679.581V35.633H683.897V33.4142Z" fill="#181425"/>
<path d="M675.069 33.4142H670.752V35.633H675.069V33.4142Z" fill="#181425"/>
<path d="M1062.16 40.1717H1057.84V42.3906H1062.16V40.1717Z" fill="#181425"/>
<path d="M696.846 35.633H692.53V37.8519H696.846V35.633Z" fill="#181425"/>
<path d="M688.214 35.633H683.897V37.8519H688.214V35.633Z" fill="#181425"/>
<path d="M1062.16 35.633H1057.84V37.8519H1062.16V35.633Z" fill="#181425"/>
<path d="M1044.7 35.633H1040.38V37.8519H1044.7V35.633Z" fill="#181425"/>
<path d="M775.127 40.1717H770.811V42.3906H775.127V40.1717Z" fill="#181425"/>
<path d="M775.127 44.6094H770.811V46.8283H775.127V44.6094Z" fill="#181425"/>
<path d="M1036.06 26.7575H1031.75V28.9764H1036.06V26.7575Z" fill="#181425"/>
<path d="M1036.06 35.633H1031.75V37.8519H1036.06V35.633Z" fill="#181425"/>
<path d="M770.811 46.8283H766.495V49.0472H770.811V46.8283Z" fill="#181425"/>
<path d="M1044.7 62.4614H1040.38V64.6803H1044.7V62.4614Z" fill="#181425"/>
<path d="M1114.34 22.2189H1110.03V24.4378H1114.34V22.2189Z" fill="#181425"/>
<path d="M766.495 40.1717H762.178V42.3906H766.495V40.1717Z" fill="#181425"/>
<path d="M1036.06 49.0472H1031.75V51.2661H1036.06V49.0472Z" fill="#181425"/>
<path d="M749.033 40.1717H744.717V42.3906H749.033V40.1717Z" fill="#181425"/>
<path d="M1036.06 53.5858H1031.75V55.8047H1036.06V53.5858Z" fill="#181425"/>
<path d="M744.717 42.3906H740.401V44.6094H744.717V42.3906Z" fill="#181425"/>
<path d="M766.495 49.0472H762.178V51.2661H766.495V49.0472Z" fill="#181425"/>
<path d="M762.178 42.3906H757.862V44.6094H762.178V42.3906Z" fill="#181425"/>
<path d="M1036.06 40.1717H1031.75V42.3906H1036.06V40.1717Z" fill="#181425"/>
<path d="M1036.06 44.6094H1031.75V46.8283H1036.06V44.6094Z" fill="#181425"/>
<path d="M757.862 40.1717H753.546V42.3906H757.862V40.1717Z" fill="#181425"/>
<path d="M705.675 44.6094H701.359V46.8283H705.675V44.6094Z" fill="#181425"/>
<path d="M1044.7 31.1953H1040.38V33.4142H1044.7V31.1953Z" fill="#181425"/>
<path d="M722.94 49.0472H718.624V51.2661H722.94V49.0472Z" fill="#181425"/>
<path d="M714.307 49.0472H709.991V51.2661H714.307V49.0472Z" fill="#181425"/>
<path d="M1036.06 58.0236H1031.75V60.2425H1036.06V58.0236Z" fill="#181425"/>
<path d="M731.768 49.0472H727.452V51.2661H731.768V49.0472Z" fill="#181425"/>
<path d="M1044.7 22.2189H1040.38V24.4378H1044.7V22.2189Z" fill="#181425"/>
<path d="M1044.7 26.7575H1040.38V28.9764H1044.7V26.7575Z" fill="#181425"/>
<path d="M709.991 46.8283H705.675V49.0472H709.991V46.8283Z" fill="#181425"/>
<path d="M753.35 51.2661H749.033V53.485H753.35V51.2661Z" fill="#181425"/>
<path d="M762.178 51.2661H757.862V53.485H762.178V51.2661Z" fill="#181425"/>
<path d="M1044.7 49.0472H1040.38V51.2661H1044.7V49.0472Z" fill="#181425"/>
<path d="M1044.7 53.5858H1040.38V55.8047H1044.7V53.5858Z" fill="#181425"/>
<path d="M1044.7 40.1717H1040.38V42.3906H1044.7V40.1717Z" fill="#181425"/>
<path d="M736.085 51.2661H731.768V53.485H736.085V51.2661Z" fill="#181425"/>
<path d="M744.717 51.2661H740.401V53.485H744.717V51.2661Z" fill="#181425"/>
<path d="M1044.7 44.6094H1040.38V46.8283H1044.7V44.6094Z" fill="#181425"/>
<path d="M879.502 44.6094H875.185V46.8283H879.502V44.6094Z" fill="#181425"/>
<path d="M896.963 26.7575H892.647V28.9764H896.963V26.7575Z" fill="#181425"/>
<path d="M905.595 31.1953H901.279V33.4142H905.595V31.1953Z" fill="#181425"/>
<path d="M888.134 35.633H883.818V37.8519H888.134V35.633Z" fill="#181425"/>
<path d="M883.818 33.4142H879.502V35.633H883.818V33.4142Z" fill="#181425"/>
<path d="M905.595 26.7575H901.279V28.9764H905.595V26.7575Z" fill="#181425"/>
<path d="M888.134 31.1953H883.818V33.4142H888.134V31.1953Z" fill="#181425"/>
<path d="M896.963 31.1953H892.647V33.4142H896.963V31.1953Z" fill="#181425"/>
<path d="M879.502 35.633H875.185V37.8519H879.502V35.633Z" fill="#181425"/>
<path d="M901.279 42.3906H896.963V44.6094H901.279V42.3906Z" fill="#181425"/>
<path d="M896.963 22.2189H892.647V24.4378H896.963V22.2189Z" fill="#181425"/>
<path d="M905.595 22.2189H901.279V24.4378H905.595V22.2189Z" fill="#181425"/>
<path d="M896.963 40.1717H892.647V42.3906H896.963V40.1717Z" fill="#181425"/>
<path d="M905.595 40.1717H901.279V42.3906H905.595V40.1717Z" fill="#181425"/>
<path d="M901.279 24.5386H896.963V26.7575H901.279V24.5386Z" fill="#181425"/>
<path d="M888.134 40.1717H883.818V42.3906H888.134V40.1717Z" fill="#181425"/>
<path d="M879.502 31.1953H875.185V33.4142H879.502V31.1953Z" fill="#181425"/>
<path d="M888.134 22.2189H883.818V24.4378H888.134V22.2189Z" fill="#181425"/>
<path d="M879.502 22.2189H875.185V24.4378H879.502V22.2189Z" fill="#181425"/>
<path d="M866.553 24.5386H862.237V26.7575H866.553V24.5386Z" fill="#181425"/>
<path d="M883.818 24.5386H879.502V26.7575H883.818V24.5386Z" fill="#181425"/>
<path d="M879.502 26.7575H875.185V28.9764H879.502V26.7575Z" fill="#181425"/>
<path d="M888.134 26.7575H883.818V28.9764H888.134V26.7575Z" fill="#181425"/>
<path d="M870.869 22.2189H866.553V24.4378H870.869V22.2189Z" fill="#181425"/>
<path d="M870.869 31.1953H866.553V33.4142H870.869V31.1953Z" fill="#181425"/>
<path d="M896.963 35.633H892.647V37.8519H896.963V35.633Z" fill="#181425"/>
<path d="M901.279 33.4142H896.963V35.633H901.279V33.4142Z" fill="#181425"/>
<path d="M862.04 26.7575H857.724V28.9764H862.04V26.7575Z" fill="#181425"/>
<path d="M905.595 44.6094H901.279V46.8283H905.595V44.6094Z" fill="#181425"/>
<path d="M870.869 26.7575H866.553V28.9764H870.869V26.7575Z" fill="#181425"/>
<path d="M905.595 35.633H901.279V37.8519H905.595V35.633Z" fill="#181425"/>
<path d="M918.74 33.4142H914.424V35.633H918.74V33.4142Z" fill="#181425"/>
<path d="M940.321 62.4614H936.005V64.6803H940.321V62.4614Z" fill="#181425"/>
<path d="M914.228 35.633H909.912V37.8519H914.228V35.633Z" fill="#181425"/>
<path d="M1279.54 53.5858H1275.22V55.8047H1279.54V53.5858Z" fill="#181425"/>
<path d="M923.056 35.633H918.74V37.8519H923.056V35.633Z" fill="#181425"/>
<path d="M822.998 60.2425H818.682V62.4614H822.998V60.2425Z" fill="#181425"/>
<path d="M1279.54 62.4614H1275.22V64.6803H1279.54V62.4614Z" fill="#181425"/>
<path d="M805.537 60.2425H801.221V62.4614H805.537V60.2425Z" fill="#181425"/>
<path d="M1297 62.4614H1292.68V64.6803H1297V62.4614Z" fill="#181425"/>
<path d="M1244.81 44.6094H1240.5V46.8283H1244.81V44.6094Z" fill="#181425"/>
<path d="M1244.81 53.5858H1240.5V55.8047H1244.81V53.5858Z" fill="#181425"/>
<path d="M1262.27 44.6094H1257.96V46.8283H1262.27V44.6094Z" fill="#181425"/>
<path d="M1244.81 35.633H1240.5V37.8519H1244.81V35.633Z" fill="#181425"/>
<path d="M1262.27 62.4614H1257.96V64.6803H1262.27V62.4614Z" fill="#181425"/>
<path d="M1262.27 53.5858H1257.96V55.8047H1262.27V53.5858Z" fill="#181425"/>
<path d="M923.056 31.1953H918.74V33.4142H923.056V31.1953Z" fill="#181425"/>
<path d="M918.74 42.3906H914.424V44.6094H918.74V42.3906Z" fill="#181425"/>
<path d="M923.056 49.0472H918.74V51.2661H923.056V49.0472Z" fill="#181425"/>
<path d="M918.74 51.2661H914.424V53.485H918.74V51.2661Z" fill="#181425"/>
<path d="M840.459 60.2425H836.143V62.4614H840.459V60.2425Z" fill="#181425"/>
<path d="M914.228 49.0472H909.912V51.2661H914.228V49.0472Z" fill="#181425"/>
<path d="M896.963 44.6094H892.647V46.8283H896.963V44.6094Z" fill="#181425"/>
<path d="M923.056 44.6094H918.74V46.8283H923.056V44.6094Z" fill="#181425"/>
<path d="M905.595 49.0472H901.279V51.2661H905.595V49.0472Z" fill="#181425"/>
<path d="M914.228 44.6094H909.912V46.8283H914.228V44.6094Z" fill="#181425"/>
<path d="M914.228 40.1717H909.912V42.3906H914.228V40.1717Z" fill="#181425"/>
<path d="M1122.98 62.4614H1118.66V64.6803H1122.98V62.4614Z" fill="#181425"/>
<path d="M909.912 55.8047H905.595V58.0236H909.912V55.8047Z" fill="#181425"/>
<path d="M923.056 53.5858H918.74V55.8047H923.056V53.5858Z" fill="#181425"/>
<path d="M914.228 53.5858H909.912V55.8047L914.228 55.8047V53.5858Z" fill="#181425"/>
<path d="M923.056 40.1717H918.74V42.3906H923.056V40.1717Z" fill="#181425"/>
<path d="M666.436 64.6803H662.12V66.8991H666.436V64.6803Z" fill="#181425"/>
<path d="M631.71 64.6803H627.394V66.8991H631.71V64.6803Z" fill="#181425"/>
<path d="M622.881 20H618.565V22.2189H622.881V20Z" fill="#181425"/>
<path d="M631.71 20H627.394V22.2189H631.71V20Z" fill="#181425"/>
<path d="M614.249 20H609.933V22.2189H614.249V20Z" fill="#181425"/>
<path d="M640.343 20H636.026V22.2189H640.343V20Z" fill="#181425"/>
<path d="M605.617 20H601.3V22.2189H605.617V20Z" fill="#181425"/>
<path d="M614.249 64.6803H609.933V66.8991H614.249V64.6803Z" fill="#181425"/>
<path d="M657.804 20H653.488V22.2189H657.804V20Z" fill="#181425"/>
<path d="M666.436 20H662.12V22.2189H666.436V20Z" fill="#181425"/>
<path d="M862.04 22.2189H857.724V24.4378H862.04V22.2189Z" fill="#181425"/>
<path d="M675.069 20H670.752V22.2189H675.069V20Z" fill="#181425"/>
<path d="M648.975 64.6803H644.659V66.8991H648.975V64.6803Z" fill="#181425"/>
<path d="M1244.81 62.4614H1240.5V64.6803H1244.81V62.4614Z" fill="#181425"/>
<path d="M648.975 20H644.659V22.2189H648.975V20Z" fill="#181425"/>
<path d="M596.788 20H592.472V22.2189H596.788V20Z" fill="#181425"/>
<path d="M570.694 20H566.378V22.2189H570.694V20Z" fill="#181425"/>
<path d="M553.429 20H549.113V22.2189H553.429V20Z" fill="#181425"/>
<path d="M535.968 20H531.652V22.2189H535.968V20Z" fill="#181425"/>
<path d="M518.507 20H514.191V22.2189H518.507V20Z" fill="#181425"/>
<path d="M431.593 20H427.277V22.2189H431.593V20Z" fill="#181425"/>
<path d="M501.242 20H496.926V22.2189H501.242V20Z" fill="#181425"/>
<path d="M483.781 20H479.465V22.2189H483.781V20Z" fill="#181425"/>
<path d="M449.055 20H444.738V22.2189H449.055V20Z" fill="#181425"/>
<path d="M596.788 64.6803H592.472V66.8991H596.788V64.6803Z" fill="#181425"/>
<path d="M579.523 20H575.207V22.2189H579.523V20Z" fill="#181425"/>
<path d="M579.523 64.6803H575.207V66.8991H579.523V64.6803Z" fill="#181425"/>
<path d="M588.155 20H583.839V22.2189H588.155V20Z" fill="#181425"/>
<path d="M562.062 20H557.745V22.2189H562.062V20Z" fill="#181425"/>
<path d="M683.897 20H679.581V22.2189H683.897V20Z" fill="#181425"/>
<path d="M414.132 20H409.816V22.2189H414.132V20Z" fill="#181425"/>
<path d="M683.897 64.6803H679.581V66.8991H683.897V64.6803Z" fill="#181425"/>
<path d="M805.537 20H801.221V22.2189H805.537V20Z" fill="#181425"/>
<path d="M857.724 64.6803H853.408V66.8991H857.724V64.6803Z" fill="#181425"/>
<path d="M840.459 64.6803H836.143V66.8991H840.459V64.6803Z" fill="#181425"/>
<path d="M788.272 20H783.956V22.2189H788.272V20Z" fill="#181425"/>
<path d="M805.537 64.6803H801.221V66.8991H805.537V64.6803Z" fill="#181425"/>
<path d="M822.998 64.6803H818.682V66.8991H822.998V64.6803Z" fill="#181425"/>
<path d="M822.998 20H818.682V22.2189H822.998V20Z" fill="#181425"/>
<path d="M840.459 20H836.143V22.2189H840.459V20Z" fill="#181425"/>
<path d="M853.408 22.2189H849.092V24.4378H853.408V22.2189Z" fill="#181425"/>
<path d="M909.912 64.6803H905.595V66.8991H909.912V64.6803Z" fill="#181425"/>
<path d="M927.373 64.6803H923.056V66.8991H927.373V64.6803Z" fill="#181425"/>
<path d="M770.811 20H766.495V22.2189H770.811V20Z" fill="#181425"/>
<path d="M892.647 64.6803H888.33V66.8991H892.647V64.6803Z" fill="#181425"/>
<path d="M875.185 64.6803H870.869V66.8991H875.185V64.6803Z" fill="#181425"/>
<path d="M762.178 64.6803H757.862V66.8991H762.178V64.6803Z" fill="#181425"/>
<path d="M718.624 20H714.307V22.2189H718.624V20Z" fill="#181425"/>
<path d="M727.256 64.6803H722.94V66.8991H727.256V64.6803Z" fill="#181425"/>
<path d="M736.085 64.6803H731.768V66.8991H736.085V64.6803Z" fill="#181425"/>
<path d="M692.53 20H688.214V22.2189H692.53V20Z" fill="#181425"/>
<path d="M744.717 64.6803H740.401V66.8991H744.717V64.6803Z" fill="#181425"/>
<path d="M701.162 20H696.846V22.2189H701.162V20Z" fill="#181425"/>
<path d="M718.624 64.6803H714.307V66.8991H718.624V64.6803Z" fill="#181425"/>
<path d="M753.35 64.6803H749.033V66.8991H753.35V64.6803Z" fill="#181425"/>
<path d="M770.811 64.6803H766.495V66.8991H770.811V64.6803Z" fill="#181425"/>
<path d="M779.443 64.6803H775.127V66.8991H779.443V64.6803Z" fill="#181425"/>
<path d="M736.085 20H731.768V22.2189H736.085V20Z" fill="#181425"/>
<path d="M753.35 20H749.033V22.2189H753.35V20Z" fill="#181425"/>
<path d="M701.162 64.6803H696.846V66.8991H701.162V64.6803Z" fill="#181425"/>
<path d="M788.272 64.6803H783.956V66.8991H788.272V64.6803Z" fill="#181425"/>
<path d="M914.228 58.0236H909.912V60.2425H914.228V58.0236Z" fill="#181425"/>
<path d="M857.724 46.8283H853.408V49.0472H857.724V46.8283Z" fill="#181425"/>
<path d="M862.04 44.6094H857.724V46.8283H862.04V44.6094Z" fill="#181425"/>
<path d="M862.04 49.0472H857.724V51.2661H862.04V49.0472Z" fill="#181425"/>
<path d="M983.876 22.2189H979.56V24.4378H983.876V22.2189Z" fill="#181425"/>
<path d="M983.876 26.7575H979.56V28.9764H983.876V26.7575Z" fill="#181425"/>
<path d="M983.876 31.1953H979.56V33.4142H983.876V31.1953Z" fill="#181425"/>
<path d="M853.408 40.1717H849.092V42.3906H853.408V40.1717Z" fill="#181425"/>
<path d="M1149.07 31.1953H1144.75V33.4142H1149.07V31.1953Z" fill="#181425"/>
<path d="M1149.07 22.2189H1144.75V24.4378H1149.07V22.2189Z" fill="#181425"/>
<path d="M1157.9 62.4614H1153.58V64.6803H1157.9V62.4614Z" fill="#181425"/>
<path d="M822.998 51.2661H818.682V53.485H822.998V51.2661Z" fill="#181425"/>
<path d="M844.776 35.633H840.459V37.8519H844.776V35.633Z" fill="#181425"/>
<path d="M805.537 51.2661H801.221V53.485H805.537V51.2661Z" fill="#181425"/>
<path d="M1157.9 26.7575H1153.58V28.9764H1157.9V26.7575Z" fill="#181425"/>
<path d="M1149.07 40.1717H1144.75V42.3906H1149.07V40.1717Z" fill="#181425"/>
<path d="M1157.9 53.5858H1153.58V55.8047H1157.9V53.5858Z" fill="#181425"/>
<path d="M736.085 28.9764H731.768V31.1953H736.085V28.9764Z" fill="#181425"/>
<path d="M983.876 53.5858H979.56V55.8047H983.876V53.5858Z" fill="#181425"/>
<path d="M966.415 22.2189H962.099V24.4378H966.415V22.2189Z" fill="#181425"/>
<path d="M983.876 49.0472H979.56V51.2661H983.876V49.0472Z" fill="#181425"/>
<path d="M966.415 26.7575H962.099V28.9764H966.415V26.7575Z" fill="#181425"/>
<path d="M1157.9 44.6094H1153.58V46.8283H1157.9V44.6094Z" fill="#181425"/>
<path d="M1157.9 35.633H1153.58V37.8519H1157.9V35.633Z" fill="#181425"/>
<path d="M644.659 46.8283V44.6094H640.343V42.3906H636.026V44.6094H631.71V46.8283H636.026V49.0472H640.343V46.8283H644.659Z" fill="#181425"/>
<path d="M983.876 35.633H979.56V37.8519H983.876V35.633Z" fill="#181425"/>
<path d="M983.876 40.1717H979.56V42.3906H983.876V40.1717Z" fill="#181425"/>
<path d="M835.947 31.1953H831.631V33.4142H835.947V31.1953Z" fill="#181425"/>
<path d="M753.35 28.9764H749.033V31.1953H753.35V28.9764Z" fill="#181425"/>
<path d="M983.876 44.6094H979.56V46.8283H983.876V44.6094Z" fill="#181425"/>
<path d="M770.811 28.9764H766.495V31.1953H770.811V28.9764Z" fill="#181425"/>
<path d="M783.956 53.5858H779.639V55.8047H783.956V53.5858Z" fill="#181425"/>
<path d="M1131.81 40.1717H1127.49V42.3906H1131.81V40.1717Z" fill="#181425"/>
<path d="M835.947 44.6094H831.631V46.8283H835.947V44.6094Z" fill="#181425"/>
<path d="M1131.81 31.1953H1127.49V33.4142H1131.81V31.1953Z" fill="#181425"/>
<path d="M831.631 42.3906H827.314V44.6094H831.631V42.3906Z" fill="#181425"/>
<path d="M1131.81 53.5858H1127.49V55.8047H1131.81V53.5858Z" fill="#181425"/>
<path d="M822.998 46.8283H818.682V49.0472H822.998V46.8283Z" fill="#181425"/>
<path d="M805.537 46.8283H801.221V49.0472H805.537V46.8283Z" fill="#181425"/>
<path d="M1131.81 49.0472H1127.49V51.2661H1131.81V49.0472Z" fill="#181425"/>
<path d="M1122.98 44.6094H1118.66V46.8283H1122.98V44.6094Z" fill="#181425"/>
<path d="M1131.81 58.0236H1127.49V60.2425H1131.81V58.0236Z" fill="#181425"/>
<path d="M1122.98 35.633H1118.66V37.8519H1122.98V35.633Z" fill="#181425"/>
<path d="M1149.07 49.0472H1144.75V51.2661H1149.07V49.0472Z" fill="#181425"/>
<path d="M1122.98 26.7575H1118.66V28.9764H1122.98V26.7575Z" fill="#181425"/>
<path d="M1131.81 62.4614H1127.49V64.6803H1131.81V62.4614Z" fill="#181425"/>
<path d="M1122.98 53.5858H1118.66V55.8047H1122.98V53.5858Z" fill="#181425"/>
<path d="M1140.44 44.6094H1136.12V46.8283H1140.44V44.6094Z" fill="#181425"/>
<path d="M1140.44 62.4614H1136.12V64.6803H1140.44V62.4614Z" fill="#181425"/>
<path d="M1140.44 53.5858H1136.12V55.8047H1140.44V53.5858Z" fill="#181425"/>
<path d="M1140.44 35.633H1136.12V37.8519H1140.44V35.633Z" fill="#181425"/>
<path d="M1149.07 58.0236H1144.75V60.2425H1149.07V58.0236Z" fill="#181425"/>
<path d="M1149.07 62.4614H1144.75V64.6803H1149.07V62.4614Z" fill="#181425"/>
<path d="M1140.44 26.7575H1136.12V28.9764H1140.44V26.7575Z" fill="#181425"/>
<path d="M1131.81 22.2189H1127.49V24.4378H1131.81V22.2189Z" fill="#181425"/>
<path d="M770.811 33.4142H766.495V35.633H770.811V33.4142Z" fill="#181425"/>
<path d="M788.272 33.4142H783.956V35.633H788.272V33.4142Z" fill="#181425"/>
<path d="M835.947 40.1717H831.631V42.3906H835.947V40.1717Z" fill="#181425"/>
<path d="M827.314 35.633H822.998V37.8519H827.314V35.633Z" fill="#181425"/>
<path d="M736.085 33.4142H731.768V35.633H736.085V33.4142Z" fill="#181425"/>
<path d="M753.35 33.4142H749.033V35.633H753.35V33.4142Z" fill="#181425"/>
<path d="M888.134 49.0472H883.818V51.2661H888.134V49.0472Z" fill="#181425"/>
<path d="M918.74 24.5386H914.424V26.7575H918.74V24.5386Z" fill="#181425"/>
<path d="M753.35 24.5386H749.033V26.7575H753.35V24.5386Z" fill="#181425"/>
<path d="M770.811 24.5386H766.495V26.7575H770.811V24.5386Z" fill="#181425"/>
<path d="M736.085 24.5386H731.768V26.7575H736.085V24.5386Z" fill="#181425"/>
<path d="M1192.63 26.7575H1188.31V28.9764H1192.63V26.7575Z" fill="#181425"/>
<path d="M718.624 24.5386H714.307V26.7575H718.624V24.5386Z" fill="#181425"/>
<path d="M1192.63 35.633H1188.31V37.8519H1192.63V35.633Z" fill="#181425"/>
<path d="M914.228 22.2189H909.912V24.4378H914.228V22.2189Z" fill="#181425"/>
<path d="M1201.26 58.0236H1196.94V60.2425H1201.26V58.0236Z" fill="#181425"/>
<path d="M466.32 20H462.003V22.2189H466.32V20Z" fill="#181425"/>
<path d="M844.776 26.7575H840.459V28.9764H844.776V26.7575Z" fill="#181425"/>
<path d="M870.869 40.1717H866.553V42.3906H870.869V40.1717Z" fill="#181425"/>
<path d="M862.04 35.633H857.724V37.8519H862.04V35.633Z" fill="#181425"/>
<path d="M853.408 31.1953H849.092V33.4142H853.408V31.1953Z" fill="#181425"/>
<path d="M923.056 22.2189H918.74V24.4378H923.056V22.2189Z" fill="#181425"/>
<path d="M1227.35 44.6094H1223.04V46.8283H1227.35V44.6094Z" fill="#181425"/>
<path d="M1227.35 62.4614H1223.04V64.6803H1227.35V62.4614Z" fill="#181425"/>
<path d="M1227.35 53.5858H1223.04V55.8047H1227.35V53.5858Z" fill="#181425"/>
<path d="M914.228 26.7575H909.912V28.9764H914.228V26.7575Z" fill="#181425"/>
<path d="M914.228 31.1953H909.912V33.4142H914.228V31.1953Z" fill="#181425"/>
<path d="M1218.72 58.0236H1214.4V60.2425H1218.72V58.0236Z" fill="#181425"/>
<path d="M1227.35 35.633H1223.04V37.8519H1227.35V35.633Z" fill="#181425"/>
<path d="M1227.35 26.7575H1223.04V28.9764H1227.35V26.7575Z" fill="#181425"/>
<path d="M1201.26 49.0472H1196.94V51.2661H1201.26V49.0472Z" fill="#181425"/>
<path d="M1210.09 53.5858H1205.77V55.8047H1210.09V53.5858Z" fill="#181425"/>
<path d="M923.056 26.7575H918.74V28.9764H923.056V26.7575Z" fill="#181425"/>
<path d="M1210.09 62.4614H1205.77V64.6803H1210.09V62.4614Z" fill="#181425"/>
<path d="M1210.09 26.7575H1205.77V28.9764H1210.09V26.7575Z" fill="#181425"/>
<path d="M1210.09 44.6094H1205.77V46.8283H1210.09V44.6094Z" fill="#181425"/>
<path d="M1210.09 35.633H1205.77V37.8519H1210.09V35.633Z" fill="#181425"/>
<path d="M931.689 22.2189H927.373V24.4378H931.689V22.2189Z" fill="#181425"/>
<path d="M1175.16 44.6094H1170.85V46.8283H1175.16V44.6094Z" fill="#181425"/>
<path d="M966.415 44.6094H962.099V46.8283H966.415V44.6094Z" fill="#181425"/>
<path d="M966.415 40.1717H962.099V42.3906H966.415V40.1717Z" fill="#181425"/>
<path d="M1175.16 53.5858H1170.85V55.8047H1175.16V53.5858Z" fill="#181425"/>
<path d="M949.15 22.2189H944.834V24.4378H949.15V22.2189Z" fill="#181425"/>
<path d="M1175.16 26.7575H1170.85V28.9764H1175.16V26.7575Z" fill="#181425"/>
<path d="M1175.16 35.633H1170.85V37.8519H1175.16V35.633Z" fill="#181425"/>
<path d="M1175.16 62.4614H1170.85V64.6803H1175.16V62.4614Z" fill="#181425"/>
<path d="M1183.99 58.0236H1179.68V60.2425H1183.99V58.0236Z" fill="#181425"/>
<path d="M1166.53 49.0472H1162.22V51.2661H1166.53V49.0472Z" fill="#181425"/>
<path d="M966.415 31.1953H962.099V33.4142H966.415V31.1953Z" fill="#181425"/>
<path d="M1166.53 40.1717H1162.22V42.3906H1166.53V40.1717Z" fill="#181425"/>
<path d="M966.415 35.633H962.099V37.8519H966.415V35.633Z" fill="#181425"/>
<path d="M1166.53 31.1953H1162.22V33.4142H1166.53V31.1953Z" fill="#181425"/>
<path d="M949.15 31.1953H944.834V33.4142H949.15V31.1953Z" fill="#181425"/>
<path d="M1183.99 49.0472H1179.68V51.2661H1183.99V49.0472Z" fill="#181425"/>
<path d="M805.537 55.8047H801.221V58.0236H805.537V55.8047Z" fill="#181425"/>
<path d="M840.459 55.8047H836.143V58.0236H840.459V55.8047Z" fill="#181425"/>
<path d="M822.998 55.8047H818.682V58.0236H822.998V55.8047Z" fill="#181425"/>
<path d="M1166.53 58.0236H1162.22V60.2425H1166.53V58.0236Z" fill="#181425"/>
<path d="M888.134 53.5858H883.818V55.8047H888.134V53.5858Z" fill="#181425"/>
<path d="M883.818 51.2661H879.502V53.485H883.818V51.2661Z" fill="#181425"/>
<path d="M949.15 35.633H944.834V37.8519H949.15V35.633Z" fill="#181425"/>
<path d="M1183.99 40.1717H1179.68V42.3906H1183.99V40.1717Z" fill="#181425"/>
<path d="M949.15 26.7575H944.834V28.9764H949.15V26.7575Z" fill="#181425"/>
<path d="M1192.63 44.6094H1188.31V46.8283H1192.63V44.6094Z" fill="#181425"/>
<path d="M1192.63 62.4614H1188.31V64.6803H1192.63V62.4614Z" fill="#181425"/>
<path d="M931.689 26.7575H927.373V28.9764H931.689V26.7575Z" fill="#181425"/>
<path d="M1192.63 53.5858H1188.31V55.8047H1192.63V53.5858Z" fill="#181425"/>
<path d="M1009.97 58.0236H1005.65V60.2425H1009.97V58.0236Z" fill="#181425"/>
<path d="M870.869 44.6094H866.553V46.8283H870.869V44.6094Z" fill="#181425"/>
<path d="M866.553 42.3906H862.237V44.6094H866.553V42.3906Z" fill="#181425"/>
<path d="M862.04 40.1717H857.724V42.3906H862.04V40.1717Z" fill="#181425"/>
<path d="M875.185 46.8283H870.869V49.0472H875.185V46.8283Z" fill="#181425"/>
<path d="M579.523 26.7575V28.9764H583.839V31.1953H588.155V28.9764H592.472V26.7575H588.155V24.5386H583.839V26.7575H579.523Z" fill="#181425"/>
<path d="M879.502 53.5858H875.185V55.8047H879.502V53.5858Z" fill="#181425"/>
<path d="M879.502 49.0472H875.185V51.2661H879.502V49.0472Z" fill="#181425"/>
<path d="M835.947 26.7575H831.631V28.9764H835.947V26.7575Z" fill="#181425"/>
<path d="M853.408 35.633H849.092V37.8519H853.408V35.633Z" fill="#181425"/>
<path d="M870.869 53.5858H866.553V55.8047H870.869V53.5858Z" fill="#181425"/>
<path d="M827.314 26.7575H822.998V28.9764H827.314V26.7575Z" fill="#181425"/>
<path d="M840.459 28.9764H836.143V31.1953H840.459V28.9764Z" fill="#181425"/>
<path d="M849.092 33.4142H844.776V35.633H849.092V33.4142Z" fill="#181425"/>
<path d="M844.776 31.1953H840.459V33.4142H844.776V31.1953Z" fill="#181425"/>
<path d="M835.947 53.5858H831.631V55.8047H835.947V53.5858Z" fill="#181425"/>
<path d="M814.366 51.2661H810.049V53.485H814.366V51.2661Z" fill="#181425"/>
<path d="M818.682 53.5858H814.366V55.8047L818.682 55.8047V53.5858Z" fill="#181425"/>
<path d="M827.314 53.5858H822.998V55.8047L827.314 55.8047V53.5858Z" fill="#181425"/>
<path d="M809.853 53.5858H805.537V55.8047L809.853 55.8047V53.5858Z" fill="#181425"/>
<path d="M796.905 51.2661H792.588V53.485H796.905V51.2661Z" fill="#181425"/>
<path d="M831.631 51.2661H827.314V53.485H831.631V51.2661Z" fill="#181425"/>
<path d="M801.221 53.5858H796.905V55.8047L801.221 55.8047V53.5858Z" fill="#181425"/>
<path d="M849.092 51.2661H844.776V53.485H849.092V51.2661Z" fill="#181425"/>
<path d="M862.04 53.5858H857.724V55.8047H862.04V53.5858Z" fill="#181425"/>
<path d="M866.553 51.2661H862.237V53.485H866.553V51.2661Z" fill="#181425"/>
<path d="M822.998 28.9764H818.682V31.1953H822.998V28.9764Z" fill="#181425"/>
<path d="M853.408 53.5858H849.092V55.8047H853.408V53.5858Z" fill="#181425"/>
<path d="M844.776 53.5858H840.459V55.8047L844.776 55.8047V53.5858Z" fill="#181425"/>
<path d="M870.869 49.0472H866.553V51.2661H870.869V49.0472Z" fill="#181425"/>
<path d="M740.401 26.7575H736.085V28.9764H740.401V26.7575Z" fill="#181425"/>
<path d="M666.436 24.5386H662.12V26.7575H666.436V24.5386Z" fill="#181425"/>
<path d="M705.675 26.7575H701.359V28.9764H705.675V26.7575Z" fill="#181425"/>
<path d="M657.804 24.5386H653.488V26.7575H657.804V24.5386Z" fill="#181425"/>
<path d="M818.682 26.7575H814.366V28.9764H818.682V26.7575Z" fill="#181425"/>
<path d="M701.162 24.5386H696.846V26.7575H701.162V24.5386Z" fill="#181425"/>
<path d="M692.53 24.5386H688.214V26.7575H692.53V24.5386Z" fill="#181425"/>
<path d="M683.897 24.5386H679.581V26.7575H683.897V24.5386Z" fill="#181425"/>
<path d="M675.069 24.5386H670.752V26.7575H675.069V24.5386Z" fill="#181425"/>
<path d="M596.984 26.7575V28.9764H601.3V31.1953H605.617V28.9764H609.933V26.7575H605.617V24.5386H601.3V26.7575H596.984Z" fill="#181425"/>
<path d="M596.788 24.5386H592.472V26.7575H596.788V24.5386Z" fill="#181425"/>
<path d="M614.249 24.5386H609.933V26.7575H614.249V24.5386Z" fill="#181425"/>
<path d="M631.71 26.7575V28.9764H636.026V31.1953H640.343V28.9764H644.659V26.7575H640.343V24.5386H636.026V26.7575H631.71Z" fill="#181425"/>
<path d="M614.249 26.7575V28.9764H618.565V31.1953H623.078V28.9764H627.394V26.7575H623.078V24.5386H618.565V26.7575H614.249Z" fill="#181425"/>
<path d="M631.71 24.5386H627.394V26.7575H631.71V24.5386Z" fill="#181425"/>
<path d="M648.975 24.5386H644.659V26.7575H648.975V24.5386Z" fill="#181425"/>
<path d="M788.272 28.9764H783.956V31.1953H788.272V28.9764Z" fill="#181425"/>
<path d="M714.307 26.7575H709.991V28.9764H714.307V26.7575Z" fill="#181425"/>
<path d="M783.956 26.7575H779.639V28.9764H783.956V26.7575Z" fill="#181425"/>
<path d="M801.221 26.7575H796.905V28.9764H801.221V26.7575Z" fill="#181425"/>
<path d="M775.127 26.7575H770.811V28.9764H775.127V26.7575Z" fill="#181425"/>
<path d="M809.853 26.7575H805.537V28.9764H809.853V26.7575Z" fill="#181425"/>
<path d="M805.537 28.9764H801.221V31.1953H805.537V28.9764Z" fill="#181425"/>
<path d="M792.588 26.7575H788.272V28.9764H792.588V26.7575Z" fill="#181425"/>
<path d="M792.588 53.5858H788.272V55.8047H792.588V53.5858Z" fill="#181425"/>
<path d="M731.768 26.7575H727.452V28.9764H731.768V26.7575Z" fill="#181425"/>
<path d="M766.495 26.7575H762.178V28.9764H766.495V26.7575Z" fill="#181425"/>
<path d="M722.94 26.7575H718.624V28.9764H722.94V26.7575Z" fill="#181425"/>
<path d="M757.862 26.7575H753.546V28.9764H757.862V26.7575Z" fill="#181425"/>
<path d="M749.033 26.7575H744.717V28.9764H749.033V26.7575Z" fill="#181425"/>
<path d="M857.724 37.9528H853.408V40.1717H857.724V37.9528Z" fill="#181425"/>
<path d="M627.394 31.1953H623.078V33.4142H627.394V31.1953Z" fill="#181425"/>
<path d="M601.3 31.1953H596.984V33.4142H601.3V31.1953Z" fill="#181425"/>
<path d="M605.617 62.4614V60.2425H601.3V62.4614H596.984V64.6803H601.3V67H605.617V64.6803H609.933V62.4614H605.617Z" fill="#181425"/>
<path d="M623.078 62.4614V60.2425H618.565V62.4614H614.249V64.6803H618.565V67H623.078V64.6803H627.394V62.4614H623.078Z" fill="#181425"/>
<path d="M640.343 62.4614V60.2425H636.026V62.4614H631.71V64.6803H636.026V67H640.343V64.6803H644.659V62.4614H640.343Z" fill="#181425"/>
<path d="M614.249 28.9764H609.933V31.1953H614.249V28.9764Z" fill="#181425"/>
<path d="M618.565 31.1953H614.249V33.4142H618.565V31.1953Z" fill="#181425"/>
<path d="M609.933 31.1953H605.617V33.4142H609.933V31.1953Z" fill="#181425"/>
<path d="M583.839 31.1953H579.523V33.4142H583.839V31.1953Z" fill="#181425"/>
<path d="M579.523 28.9764H575.207V31.1953H579.523V28.9764Z" fill="#181425"/>
<path d="M570.89 62.4614V60.2425H566.574V62.4614H562.258V60.2425H566.574V58.0236H562.258V55.8047H557.942V58.0236H553.625V60.2425H557.942V62.4614H553.625V60.2425H549.309V62.4614H544.993V60.2425H549.309V58.0236H544.993V55.8047H549.309V58.0236H553.625V55.8047H557.942V53.5858H553.625V51.367H549.309V53.5858H544.993V51.367H549.309V49.1481H544.993V46.9292H540.677V49.1481H536.36V51.367H540.677V53.5858H536.36V51.367H532.044V53.5858H527.728V51.367H532.044V49.1481H527.728V46.9292H532.044V49.1481H536.36V46.9292H540.677V44.7103H536.36V42.4914H532.044V44.7103H527.728V42.4914H532.044V40.2725H527.728V38.0536H523.019V40.2725H518.703V42.4914H523.019V44.7103H518.703V42.4914H514.387V44.7103H510.071V42.4914H514.387V40.2725H510.071V38.0536H514.387V40.2725H518.703V38.0536H523.019V35.8348H518.703V33.6159H514.387V35.8348H510.071V33.6159H514.387V31.1953H510.071V28.9764H505.754V31.1953H501.438V33.4142H505.754V35.633H501.438V33.4142H497.122V35.633H492.806V33.4142H497.122V31.1953H492.806V28.9764H497.122V31.1953H501.438V28.9764H505.754V26.7575H501.438V24.5386H497.122V26.7575H492.806V24.5386H497.122V22.3197H492.806V20H488.489V22.2189H483.781V24.4378H488.097V26.6567H483.781V24.4378H479.465V26.6567H475.148V24.4378H479.465V22.2189H475.148V20H470.832V22.2189H466.516V24.4378H470.832V26.6567H466.516V24.4378H462.2V26.6567H457.883V24.4378H462.2V22.2189H457.883V20H453.567V22.2189H449.251V24.4378H453.567V26.6567H449.251V24.4378H444.935V26.6567H440.618V24.4378H444.935V22.2189H440.618V20H436.302V22.2189H431.986V24.4378H436.302V26.6567H431.986V24.4378H427.67V26.6567H422.961V24.4378H427.277V22.2189H422.961V20H418.645V22.2189H414.329V24.4378H418.645V26.6567H414.329V24.4378H410.012V26.6567H405.696V24.4378H410.012V22.2189H405.696V20H401.38V22.2189H397.064V20H392.747V22.2189H388.431V20H384.115V22.2189H379.799V20H375.482V22.2189H371.166V20H366.85V22.2189H362.141V20H357.825V22.2189H353.509V20H349.192V22.2189H344.876V20H340.56V22.2189H336.244V20C331.339 20 328.004 20 323.295 20V22.2189H318.979V20H314.663V22.2189H310.346V20H306.03V22.2189H301.714V20H297.398V22.2189H293.081V20H288.765V22.2189H284.449V20H280.133V22.2189H275.816V20H271.5V22.2189H267.184V20H262.083V22.2189H257.767V20H253.45V22.2189H249.134V20C244.229 20 240.894 20 236.185 20V22.2189H231.869V20C226.964 20 223.629 20 218.92 20V22.2189H214.604V20C209.503 20 205.972 20 201.656 20V22.2189H197.339V20C192.434 20 189.099 20 184.391 20V22.2189H180.074V20C174.973 20 171.442 20 167.126 20V22.2189H162.025V20C156.924 20 153.392 20 149.076 20V22.2189H144.76V20C139.855 20 136.519 20 131.811 20V22.2189H127.495V20C122.59 20 119.255 20 114.546 20V22.2189H110.23V20C77.6617 20 56.2766 20 19 20V66.8991C126.121 66.8991 130.045 66.8991 197.339 66.8991V64.6803H201.656V66.8991C206.56 66.8991 209.896 66.8991 214.604 66.8991V64.6803H218.92V66.8991C223.825 66.8991 227.161 66.8991 231.869 66.8991V64.6803H236.185V66.8991C241.09 66.8991 244.426 66.8991 249.134 66.8991V64.6803H253.45V66.8991C258.355 66.8991 261.691 66.8991 266.399 66.8991V64.6803H270.715V66.8991C275.62 66.8991 278.955 66.8991 283.664 66.8991V64.6803H287.98V66.8991C292.885 66.8991 296.22 66.8991 300.929 66.8991V64.6803H305.245V66.8991C310.346 66.8991 313.878 66.8991 318.194 66.8991V64.6803H322.51V66.8991C327.415 66.8991 330.75 66.8991 335.459 66.8991V64.6803H339.775V66.8991H344.091V64.6803H348.408V66.8991H352.724V64.6803H357.04V66.8991H361.356V64.6803H365.673V66.8991H369.989V64.6803H374.305V66.8991H378.621V64.6803H382.938V66.8991H387.254V64.6803H391.57V66.8991H395.886V64.6803H400.203V66.8991H404.519V64.6803H408.835V66.8991H413.151V64.6803H417.468V66.8991H421.784V64.6803H426.1V66.8991H430.416V64.6803H434.733V66.8991H439.049V64.6803H443.365V66.8991H447.681V64.6803H451.998V66.8991H456.314V64.6803H460.63V66.8991H464.946V64.6803H469.263V66.8991H473.579V64.6803H477.895V66.8991H482.211V64.6803H486.527V66.8991H490.844V64.6803H495.16V66.8991H499.476V64.6803H503.792V66.8991H508.109V64.6803H512.425V66.8991H516.741V64.6803H521.057V66.8991H525.374V64.6803H529.69V66.8991H534.006V64.6803H538.322V66.8991H542.639V64.6803H546.955V66.8991H551.271V64.6803H555.587V66.8991H559.904V64.6803H564.22V66.8991H568.536V64.6803H572.852V62.4614H570.89ZM131.615 31.1953H127.298V28.9764H131.615V31.1953ZM149.076 40.1717H144.76V37.9528H149.076V40.1717ZM149.076 31.1953H144.76V28.9764H149.076V31.1953ZM166.341 49.0472H162.025V46.8283H166.341V49.0472ZM166.341 40.1717H162.025V37.9528H166.341V40.1717ZM166.341 31.1953H162.025V28.9764H166.341V31.1953ZM183.802 58.0236H179.486V55.8047H183.802V58.0236ZM183.802 49.0472H179.486V46.8283H183.802V49.0472ZM183.802 40.1717H179.486V37.9528H183.802V40.1717ZM183.802 31.1953H179.486V28.9764H183.802V31.1953ZM201.263 58.0236H196.947V55.8047H201.263V58.0236ZM201.263 49.0472H196.947V46.8283H201.263V49.0472ZM201.263 40.1717H196.947V37.9528H201.263V40.1717ZM201.263 31.1953H196.947V28.9764H201.263V31.1953ZM209.896 26.7575H205.579V24.5386H209.896V26.7575ZM218.528 58.0236H214.212V55.8047H218.528V58.0236ZM218.528 49.0472H214.212V46.8283H218.528V49.0472ZM218.528 40.1717H214.212V37.9528H218.528V40.1717ZM218.528 31.1953H214.212V28.9764H218.528V31.1953ZM227.357 35.633H222.844V33.4142H227.161V35.633H227.357ZM227.357 26.7575H222.844V24.5386H227.161V26.7575H227.357ZM235.989 58.0236H231.673V55.8047H235.989V58.0236ZM235.989 49.0472H231.673V46.8283H235.989V49.0472ZM235.989 40.1717H231.673V37.9528H235.989V40.1717ZM235.989 31.1953H231.673V28.9764H235.989V31.1953ZM244.622 44.6094H240.305V42.3906H244.622V44.6094ZM244.622 35.633H240.305V33.4142H244.622V35.633ZM244.622 26.7575H240.305V24.5386H244.622V26.7575ZM253.45 58.0236H249.134V55.8047H253.45V58.0236ZM253.45 49.0472H249.134V46.8283H253.45V49.0472ZM253.45 40.1717H249.134V37.9528H253.45V40.1717ZM253.45 31.1953H249.134V28.9764H253.45V31.1953ZM262.083 53.5858H257.767V51.367H262.083V53.5858ZM262.083 44.6094H257.767V42.3906H262.083V44.6094ZM262.083 35.633H257.767V33.4142H262.083V35.633ZM262.083 26.7575H257.767V24.5386H262.083V26.7575ZM270.715 58.0236H266.399V55.8047H270.715V58.0236ZM270.715 49.0472H266.399V46.8283H270.715V49.0472ZM270.715 40.1717H266.399V37.9528H270.715V40.1717ZM270.715 31.1953H266.399V28.9764H270.715V31.1953ZM279.544 62.4614H275.228V60.2425H279.544V62.4614ZM279.544 53.5858H275.228V51.367H279.544V53.5858ZM279.544 44.6094H275.228V42.3906H279.544V44.6094ZM279.544 35.633H275.228V33.4142H279.544V35.633ZM279.544 31.1953H275.228V28.9764H279.544V31.1953ZM279.544 26.7575H275.228V24.5386H279.544V26.7575ZM288.177 58.0236H283.86V55.8047H288.177V58.0236ZM288.177 49.0472H283.86V46.8283H288.177V49.0472ZM288.177 40.1717H283.86V37.9528H288.177V40.1717ZM288.177 31.1953H283.86V28.9764H288.177V31.1953ZM296.809 62.4614H292.493V60.2425H296.809V62.4614ZM296.809 53.5858H292.493V51.367H296.809V53.5858ZM296.809 44.6094H292.493V42.3906H296.809V44.6094ZM296.809 40.1717H292.493V37.9528H296.809V40.1717ZM296.809 35.633H292.493V33.4142H296.809V35.633ZM296.809 31.1953H292.493V28.9764H296.809V31.1953ZM296.809 26.7575H292.493V24.5386H296.809V26.7575ZM305.638 58.0236H301.321V55.8047H305.638V58.0236ZM305.638 49.0472H301.321V46.8283H305.638V49.0472ZM305.638 40.1717H301.321V37.9528H305.638V40.1717ZM305.638 31.1953H301.321V28.9764H305.638V31.1953ZM314.27 62.4614H309.954V60.2425H314.27V62.4614ZM314.27 53.5858H309.954V51.367H314.27V53.5858ZM314.27 49.0472H309.954V46.8283H314.27V49.0472ZM314.27 44.6094H309.954V42.3906H314.27V44.6094ZM314.27 40.1717H309.954V37.9528H314.27V40.1717ZM314.27 35.633H309.954V33.4142H314.27V35.633ZM314.27 31.1953H309.954V28.9764H314.27V31.1953ZM314.27 26.7575H309.954V24.5386H314.27V26.7575ZM322.903 58.0236H318.586V55.8047H322.903V58.0236ZM322.903 49.0472H318.586V46.8283H322.903V49.0472ZM322.903 40.1717H318.586V37.9528H322.903V40.1717ZM322.903 31.1953H318.586V28.9764H322.903V31.1953ZM331.731 62.4614H327.415V60.2425H331.731V62.4614ZM331.731 58.0236H327.415V55.8047H331.731V58.0236ZM331.731 53.5858H327.415V51.367H331.731V53.5858ZM331.731 49.0472H327.415V46.8283H331.731V49.0472ZM331.731 44.6094H327.415V42.3906H331.731V44.6094ZM331.731 40.1717H327.415V37.9528H331.731V40.1717ZM331.731 35.633H327.415V33.4142H331.731V35.633ZM331.731 31.1953H327.415V28.9764H331.731V31.1953ZM331.731 26.7575H327.415V24.5386H331.731V26.7575ZM340.364 58.0236H336.048V55.8047H340.364V58.0236ZM340.364 49.0472H336.048V46.8283H340.364V49.0472ZM340.364 40.1717H336.048V37.9528H340.364V40.1717ZM340.364 31.1953H336.048V28.9764H340.364V31.1953ZM348.996 62.4614H344.68V60.2425H348.996V62.4614ZM348.996 58.0236H344.68V55.8047H348.996V58.0236ZM348.996 53.5858H344.68V51.367H348.996V53.5858ZM348.996 49.0472H344.68V46.8283H348.996V49.0472ZM348.996 44.6094H344.68V42.3906H348.996V44.6094ZM348.996 40.1717H344.68V37.9528H348.996V40.1717ZM348.996 35.633H344.68V33.4142H348.996V35.633ZM348.996 31.1953H344.68V28.9764H348.996V31.1953ZM348.996 26.7575H344.68V24.5386H348.996V26.7575ZM357.825 58.0236H353.509V55.8047H357.825V58.0236ZM357.825 49.0472H353.509V46.8283H357.825V49.0472ZM357.825 40.1717H353.509V37.9528H357.825V40.1717ZM357.825 31.1953H353.509V28.9764H357.825V31.1953ZM357.825 26.7575H353.509V24.5386H357.825V26.7575ZM366.457 62.4614H362.141V60.2425H366.457V62.4614ZM366.457 58.0236H362.141V55.8047H366.457V58.0236ZM366.457 53.5858H362.141V51.367H366.457V53.5858ZM366.457 49.0472H362.141V46.8283H366.457V49.0472ZM366.457 44.6094H362.141V42.3906H366.457V44.6094ZM366.457 40.1717H362.141V37.9528H366.457V40.1717ZM366.457 35.633H362.141V33.4142H366.457V35.633ZM366.457 31.1953H362.141V28.9764H366.457V31.1953ZM366.457 26.7575H362.141V24.5386H366.457V26.7575ZM375.09 58.0236H370.774V55.8047H375.09V58.0236ZM375.09 49.0472H370.774V46.8283H375.09V49.0472ZM375.09 40.1717H370.774V37.9528H375.09V40.1717ZM375.09 35.633H370.774V33.4142H375.09V35.633ZM375.09 31.1953H370.774V28.9764H375.09V31.1953ZM375.09 26.7575H370.774V24.5386H375.09V26.7575ZM383.919 62.4614H379.602V60.2425H383.919V62.4614ZM383.919 58.0236H379.602V55.8047H383.919V58.0236ZM383.919 53.5858H379.602V51.367H383.919V53.5858ZM383.919 49.0472H379.602V46.8283H383.919V49.0472ZM383.919 44.6094H379.602V42.3906H383.919V44.6094ZM383.919 40.1717H379.602V37.9528H383.919V40.1717ZM383.919 35.633H379.602V33.4142H383.919V35.633ZM383.919 31.1953H379.602V28.9764H383.919V31.1953ZM383.919 26.7575H379.602V24.5386H383.919V26.7575ZM392.551 58.0236H388.235V55.8047H392.551V58.0236ZM392.551 49.0472H388.235V46.8283H392.551V49.0472ZM392.551 44.6094H388.235V42.3906H392.551V44.6094ZM392.551 40.1717H388.235V37.9528H392.551V40.1717ZM392.551 35.633H388.235V33.4142H392.551V35.633ZM392.551 31.1953H388.235V28.9764H392.551V31.1953ZM392.551 26.7575H388.235V24.5386H392.551V26.7575ZM401.184 62.4614H396.867V60.2425H401.184V62.4614ZM401.184 58.0236H396.867V55.8047H401.184V58.0236ZM401.184 53.5858H396.867V51.367H401.184V53.5858ZM401.184 49.0472H396.867V46.8283H401.184V49.0472ZM401.184 44.6094H396.867V42.3906H401.184V44.6094ZM401.184 40.1717H396.867V37.9528H401.184V40.1717ZM401.184 35.633H396.867V33.4142H401.184V35.633ZM401.184 31.1953H396.867V28.9764H401.184V31.1953ZM401.184 26.7575H396.867V24.5386H401.184V26.7575ZM409.816 58.0236H405.5V55.8047H409.816V58.0236ZM409.816 53.5858H405.5V51.367H409.816V53.5858ZM409.816 49.0472H405.5V46.8283H409.816V49.0472ZM409.816 44.6094H405.5V42.3906H409.816V44.6094ZM409.816 40.1717H405.5V37.9528H409.816V40.1717ZM409.816 35.633H405.5V33.4142H409.816V35.633ZM409.816 31.1953H405.5V28.9764H409.816V31.1953ZM418.645 62.4614H414.329V60.2425H418.645V62.4614ZM418.645 58.0236H414.329V55.8047H418.645V58.0236ZM418.645 53.5858H414.329V51.367H418.645V53.5858ZM418.645 49.0472H414.329V46.8283H418.645V49.0472ZM418.645 44.6094H414.329V42.3906H418.645V44.6094ZM418.645 40.1717H414.329V37.9528H418.645V40.1717ZM418.645 35.633H414.329V33.4142H418.645V35.633ZM418.645 31.1953H414.329V28.9764H418.645V31.1953ZM427.277 62.4614H422.961V60.2425H427.277V62.4614ZM427.277 58.0236H422.961V55.8047H427.277V58.0236ZM427.277 53.5858H422.961V51.367H427.277V53.5858ZM427.277 49.0472H422.961V46.8283H427.277V49.0472ZM427.277 44.6094H422.961V42.3906H427.277V44.6094ZM427.277 40.1717H422.961V37.9528H427.277V40.1717ZM435.91 62.4614H431.593V60.2425H435.91V62.4614ZM435.91 58.0236H431.593V55.8047H435.91V58.0236ZM435.91 53.5858H431.593V51.367H435.91V53.5858ZM435.91 49.0472H431.593V46.8283H435.91V49.0472ZM435.91 44.6094H431.593V42.3906H435.91V44.6094ZM435.91 40.1717H431.593V37.9528H435.91V40.1717ZM435.91 31.1953H431.593V33.4142H435.91V35.633H431.593V33.4142H427.277V35.633H422.961V33.4142H427.277V31.1953H422.961V28.9764H427.277V31.1953H431.593V28.9764H435.91V31.1953ZM444.738 62.4614H440.422V60.2425H444.738V62.4614ZM444.738 58.0236H440.422V55.8047H444.738V58.0236ZM444.738 53.5858H440.422V51.367H444.738V53.5858ZM444.738 49.0472H440.422V46.8283H444.738V49.0472ZM453.371 62.4614H449.055V60.2425H453.371V62.4614ZM453.371 58.0236H449.055V55.8047H453.371V58.0236ZM453.371 53.5858H449.055V51.367H453.371V53.5858ZM453.371 49.0472H449.055V46.8283H453.371V49.0472ZM453.371 40.1717H449.055V42.3906H453.371V44.6094H449.055V42.3906H444.738V44.6094H440.422V42.3906H444.738V40.1717H440.422V37.9528H444.738V40.1717H449.055V37.9528H453.371V40.1717ZM453.371 31.1953H449.055V33.4142H453.371V35.633H449.055V33.4142H444.738V35.633H440.422V33.4142H444.738V31.1953H440.422V28.9764H444.738V31.1953H449.055V28.9764H453.371V31.1953ZM462.003 62.4614H457.687V60.2425H462.003V62.4614ZM462.003 58.0236H457.687V55.8047H462.003V58.0236ZM470.832 62.4614H466.516V60.2425H470.832V62.4614ZM470.832 58.0236H466.516V55.8047H470.832V58.0236ZM470.832 49.0472H466.516V51.2661H470.832V53.485H466.516V51.2661H462.2V53.485H457.883V51.2661H462.2V49.0472H457.883V46.8283H462.2V49.0472H466.516V46.8283H470.832V49.0472ZM470.832 40.1717H466.516V42.3906H470.832V44.6094H466.516V42.3906H462.2V44.6094H457.883V42.3906H462.2V40.1717H457.883V37.9528H462.2V40.1717H466.516V37.9528H470.832V40.1717ZM470.832 31.1953H466.516V33.4142H470.832V35.633H466.516V33.4142H462.2V35.633H457.883V33.4142H462.2V31.1953H457.883V28.9764H462.2V31.1953H466.516V28.9764H470.832V31.1953ZM488.097 58.0236H483.781V60.2425H488.097V62.4614H483.781V60.2425H479.465V62.4614H475.148V60.2425H479.465V58.0236H475.148V55.8047H479.465V58.0236H483.781V55.8047H488.097V58.0236ZM488.097 49.0472H483.781V51.2661H488.097V53.485H483.781V51.2661H479.465V53.485H475.148V51.2661H479.465V49.0472H475.148V46.8283H479.465V49.0472H483.781V46.8283H488.097V49.0472ZM488.097 40.1717H483.781V42.3906H488.097V44.6094H483.781V42.3906H479.465V44.6094H475.148V42.3906H479.465V40.1717H475.148V37.9528H479.465V40.1717H483.781V37.9528H488.097V40.1717ZM488.097 31.1953H483.781V33.4142H488.097V35.633H483.781V33.4142H479.465V35.633H475.148V33.4142H479.465V31.1953H475.148V28.9764H479.465V31.1953H483.781V28.9764H488.097V31.1953ZM505.558 58.0236H501.242V60.2425H505.558V62.4614H501.242V60.2425H496.926V62.4614H492.609V60.2425H496.926V58.0236H492.609V55.8047H496.926V58.0236H501.242V55.8047H505.558V58.0236ZM505.558 49.0472H501.242V51.2661H505.558V53.485H501.242V51.2661H496.926V53.485H492.609V51.2661H496.926V49.0472H492.609V46.8283H496.926V49.0472H501.242V46.8283H505.558V49.0472ZM505.558 40.1717H501.242V42.3906H505.558V44.6094H501.242V42.3906H496.926V44.6094H492.609V42.3906H496.926V40.1717H492.609V37.9528H496.926V40.1717H501.242V37.9528H505.558V40.1717ZM523.019 58.0236H518.703V60.2425H523.019V62.4614H518.703V60.2425H514.387V62.4614H510.071V60.2425H514.387V58.0236H510.071V55.8047H514.387V58.0236H518.703V55.8047H523.019V58.0236ZM523.019 49.0472H518.703V51.2661H523.019V53.485H518.703V51.2661H514.387V53.485H510.071V51.2661H514.387V49.0472H510.071V46.8283H514.387V49.0472H518.703V46.8283H523.019V49.0472ZM540.284 58.0236H535.968V60.2425H540.284V62.4614H535.968V60.2425H531.652V62.4614H527.336V60.2425H531.652V58.0236H527.336V55.8047H531.652V58.0236H535.968V55.8047H540.284V58.0236Z" fill="#181425"/>
<path d="M592.472 31.1953H588.155V33.4142H592.472V31.1953Z" fill="#181425"/>
<path d="M588.155 62.4614V60.2425H583.839V62.4614H579.523V64.6803H583.839V67H588.155V64.6803H592.472V62.4614H588.155Z" fill="#181425"/>
<path d="M575.207 31.1953H570.89V33.4142H575.207V31.1953Z" fill="#181425"/>
<path d="M596.788 28.9764H592.472V31.1953H596.788V28.9764Z" fill="#181425"/>
<path d="M670.752 26.7575H666.436V28.9764H670.752V26.7575Z" fill="#181425"/>
<path d="M709.991 62.4614V60.2425H705.675V62.4614H701.359V64.6803H705.675V67H709.991V64.6803H714.307V62.4614H709.991Z" fill="#181425"/>
<path d="M662.12 26.7575H657.804V28.9764H662.12V26.7575Z" fill="#181425"/>
<path d="M679.581 26.7575H675.265V28.9764H679.581V26.7575Z" fill="#181425"/>
<path d="M722.94 62.4614H718.624V64.6803H722.94V62.4614Z" fill="#181425"/>
<path d="M692.53 62.4614V60.2425H688.214V62.4614H683.897V64.6803H688.214V67H692.53V64.6803H696.846V62.4614H692.53Z" fill="#181425"/>
<path d="M631.71 28.9764H627.394V31.1953H631.71V28.9764Z" fill="#181425"/>
<path d="M688.214 26.7575H683.897V28.9764H688.214V26.7575Z" fill="#181425"/>
<path d="M636.026 31.1953H631.71V33.4142H636.026V31.1953Z" fill="#181425"/>
<path d="M644.659 31.1953H640.343V33.4142H644.659V31.1953Z" fill="#181425"/>
<path d="M657.804 62.4614V60.2425H653.488V62.4614H649.171V64.6803H653.488V67H657.804V64.6803H662.12V62.4614H657.804Z" fill="#181425"/>
<path d="M653.488 26.7575H649.171V28.9764H653.488V26.7575Z" fill="#181425"/>
<path d="M648.975 28.9764H644.659V31.1953H648.975V28.9764Z" fill="#181425"/>
<path d="M675.265 62.4614V60.2425H670.752V62.4614H666.436V64.6803H670.752V67H675.265V64.6803H679.581V62.4614H675.265Z" fill="#181425"/>
<path d="M696.846 55.8047V53.5858H692.53V51.2661H688.214V53.5858H683.897V55.8047H688.214V58.0236H692.53V55.8047H696.846Z" fill="#181425"/>
<path d="M718.624 55.8047H714.307V58.0236H718.624V55.8047Z" fill="#181425"/>
<path d="M709.991 55.8047H705.675V58.0236H709.991V55.8047Z" fill="#181425"/>
<path d="M557.745 33.4142V35.633H562.062V33.4142H566.378V31.1953H562.062V28.9764H557.745V31.1953H553.429V33.4142H557.745Z" fill="#181425"/>
<path d="M701.162 55.8047H696.846V58.0236H701.162V55.8047Z" fill="#181425"/>
<path d="M683.897 55.8047H679.581V58.0236H683.897V55.8047Z" fill="#181425"/>
<path d="M788.272 55.8047H783.956V58.0236H788.272V55.8047Z" fill="#181425"/>
<path d="M731.768 58.0236H727.452V60.2425H731.768V58.0236Z" fill="#181425"/>
<path d="M679.581 55.8047V53.5858H675.265V51.2661H670.752V53.5858H666.436V55.8047H670.752V58.0236H675.265V55.8047H679.581Z" fill="#181425"/>
<path d="M775.127 58.0236H770.811V60.2425H775.127V58.0236Z" fill="#181425"/>
<path d="M783.956 58.0236H779.639V60.2425H783.956V58.0236Z" fill="#181425"/>
<path d="M766.495 58.0236H762.178V60.2425H766.495V58.0236Z" fill="#181425"/>
<path d="M757.862 58.0236H753.546V60.2425H757.862V58.0236Z" fill="#181425"/>
<path d="M749.033 58.0236H744.717V60.2425H749.033V58.0236Z" fill="#181425"/>
<path d="M740.401 58.0236H736.085V60.2425H740.401V58.0236Z" fill="#181425"/>
<path d="M722.94 58.0236H718.624V60.2425H722.94V58.0236Z" fill="#181425"/>
<path d="M570.89 46.8283H575.207V44.6094H570.89V42.3906H566.378V44.6094H562.062V46.8283H566.378V49.0472H570.89V46.8283Z" fill="#181425"/>
<path d="M579.523 51.2661H583.839V49.0472H579.523V46.8283H575.207V49.0472H570.89V51.2661H575.207V53.5858H579.523V51.2661Z" fill="#181425"/>
<path d="M562.062 42.3906H566.378V40.1717H562.062V37.9528H557.745V40.1717H553.429V42.3906H557.745V44.6094H562.062V42.3906Z" fill="#181425"/>
<path d="M553.429 37.9528H557.745V35.633H553.429V33.4142H549.113V35.633H544.797V37.9528H549.113V40.1717H553.429V37.9528Z" fill="#181425"/>
<path d="M544.797 33.4142H549.113V31.1953H544.797V28.9764H540.284V31.1953H535.968V33.4142H540.284V35.633H544.797V33.4142Z" fill="#181425"/>
<path d="M588.155 53.5858V51.2661H583.839V53.5858H579.523V55.8047H583.839V58.0236H588.155V55.8047H592.472V53.5858H588.155Z" fill="#181425"/>
<path d="M627.394 55.8047V53.5858H623.078V51.2661H618.565V53.5858H614.249V55.8047H618.565V58.0236H623.078V55.8047H627.394Z" fill="#181425"/>
<path d="M644.659 55.8047V53.5858H640.343V51.2661H636.026V53.5858H631.71V55.8047H636.026V58.0236H640.343V55.8047H644.659Z" fill="#181425"/>
<path d="M648.975 55.8047H644.659V58.0236H648.975V55.8047Z" fill="#181425"/>
<path d="M662.12 55.8047V53.5858H657.804V51.2661H653.488V53.5858H649.171V55.8047H653.488V58.0236H657.804V55.8047H662.12Z" fill="#181425"/>
<path d="M631.71 55.8047H627.394V58.0236H631.71V55.8047Z" fill="#181425"/>
<path d="M605.617 53.5858V51.2661H601.3V53.5858H596.984V55.8047H601.3V58.0236H605.617V55.8047H609.933V53.5858H605.617Z" fill="#181425"/>
<path d="M666.436 55.8047H662.12V58.0236H666.436V55.8047Z" fill="#181425"/>
<path d="M818.682 22.2189H814.366V24.4378H818.682V22.2189Z" fill="#181425"/>
<path d="M792.588 22.2189H788.272V24.4378H792.588V22.2189Z" fill="#181425"/>
<path d="M809.853 22.2189H805.537V24.4378H809.853V22.2189Z" fill="#181425"/>
<path d="M796.905 24.5386H792.588V26.7575H796.905V24.5386Z" fill="#181425"/>
<path d="M801.221 22.2189H796.905V24.4378H801.221V22.2189Z" fill="#181425"/>
<path d="M749.033 22.2189H744.717V24.4378H749.033V22.2189Z" fill="#181425"/>
<path d="M827.314 22.2189H822.998V24.4378H827.314V22.2189Z" fill="#181425"/>
<path d="M696.846 26.7575H692.53V28.9764H696.846V26.7575Z" fill="#181425"/>
<path d="M779.443 24.5386H775.127V26.7575H779.443V24.5386Z" fill="#181425"/>
<path d="M766.495 22.2189H762.178V24.4378H766.495V22.2189Z" fill="#181425"/>
<path d="M762.178 24.5386H757.862V26.7575H762.178V24.5386Z" fill="#181425"/>
<path d="M783.956 22.2189H779.639V24.4378H783.956V22.2189Z" fill="#181425"/>
<path d="M757.862 22.2189H753.546V24.4378H757.862V22.2189Z" fill="#181425"/>
<path d="M831.631 24.5386H827.314V26.7575H831.631V24.5386Z" fill="#181425"/>
<path d="M775.127 22.2189H770.811V24.4378H775.127V22.2189Z" fill="#181425"/>
<path d="M814.366 24.5386H810.049V26.7575H814.366V24.5386Z" fill="#181425"/>
<path d="M879.502 40.1717H875.185V42.3906H879.502V40.1717Z" fill="#181425"/>
<path d="M579.523 24.5386H575.207V26.7575H579.523V24.5386Z" fill="#181425"/>
<path d="M835.947 22.2189H831.631V24.4378H835.947V22.2189Z" fill="#181425"/>
<path d="M875.185 37.9528H870.869V40.1717H875.185V37.9528Z" fill="#181425"/>
<path d="M888.134 44.6094H883.818V46.8283H888.134V44.6094Z" fill="#181425"/>
<path d="M896.963 49.0472H892.647V51.2661H896.963V49.0472Z" fill="#181425"/>
<path d="M892.647 46.8283H888.33V49.0472H892.647V46.8283Z" fill="#181425"/>
<path d="M870.869 35.633H866.553V37.8519H870.869V35.633Z" fill="#181425"/>
<path d="M853.408 26.7575H849.092V28.9764H853.408V26.7575Z" fill="#181425"/>
<path d="M849.092 24.5386H844.776V26.7575H849.092V24.5386Z" fill="#181425"/>
<path d="M844.776 22.2189H840.459V24.4378H844.776V22.2189Z" fill="#181425"/>
<path d="M857.724 28.9764H853.408V31.1953H857.724V28.9764Z" fill="#181425"/>
<path d="M862.04 31.1953H857.724V33.4142H862.04V31.1953Z" fill="#181425"/>
<path d="M866.553 33.4142H862.237V35.633H866.553V33.4142Z" fill="#181425"/>
<path d="M618.565 22.2189H614.249V24.4378H618.565V22.2189Z" fill="#181425"/>
<path d="M601.3 22.2189H596.984V24.4378H601.3V22.2189Z" fill="#181425"/>
<path d="M644.659 22.2189H640.343V24.4378H644.659V22.2189Z" fill="#181425"/>
<path d="M609.933 22.2189H605.617V24.4378H609.933V22.2189Z" fill="#181425"/>
<path d="M901.279 51.2661H896.963V53.485H901.279V51.2661Z" fill="#181425"/>
<path d="M583.839 22.2189H579.523V24.4378H583.839V22.2189Z" fill="#181425"/>
<path d="M636.026 22.2189H631.71V24.4378H636.026V22.2189Z" fill="#181425"/>
<path d="M627.394 22.2189H623.078V24.4378H627.394V22.2189Z" fill="#181425"/>
<path d="M592.472 22.2189H588.155V24.4378H592.472V22.2189Z" fill="#181425"/>
<path d="M523.019 24.5386V26.7575H527.336V24.5386H531.652V22.2189H527.336V20H523.019V22.2189H518.703V24.5386H523.019Z" fill="#181425"/>
<path d="M744.717 24.5386H740.401V26.7575H744.717V24.5386Z" fill="#181425"/>
<path d="M505.558 24.5386V26.7575H509.874V24.5386H514.191V22.2189H509.874V20H505.558V22.2189H501.242V24.5386H505.558Z" fill="#181425"/>
<path d="M566.378 22.2189H562.062V24.4378H566.378V22.2189Z" fill="#181425"/>
<path d="M575.207 22.2189H570.89V24.4378H575.207V22.2189Z" fill="#181425"/>
<path d="M557.745 22.2189H553.429V24.4378H557.745V22.2189Z" fill="#181425"/>
<path d="M540.284 24.5386V26.7575H544.797V24.5386H549.113V22.2189H544.797V20H540.284V22.2189H535.968V24.5386H540.284Z" fill="#181425"/>
<path d="M709.991 24.5386H705.675V26.7575H709.991V24.5386Z" fill="#181425"/>
<path d="M722.94 22.2189H718.624V24.4378H722.94V22.2189Z" fill="#181425"/>
<path d="M714.307 22.2189H709.991V24.4378H714.307V22.2189Z" fill="#181425"/>
<path d="M727.256 24.5386H722.94V26.7575H727.256V24.5386Z" fill="#181425"/>
<path d="M740.401 22.2189H736.085V24.4378H740.401V22.2189Z" fill="#181425"/>
<path d="M653.488 22.2189H649.171V24.4378H653.488V22.2189Z" fill="#181425"/>
<path d="M731.768 22.2189H727.452V24.4378H731.768V22.2189Z" fill="#181425"/>
<path d="M670.752 22.2189H666.436V24.4378H670.752V22.2189Z" fill="#181425"/>
<path d="M662.12 22.2189H657.804V24.4378H662.12V22.2189Z" fill="#181425"/>
<path d="M679.581 22.2189H675.265V24.4378H679.581V22.2189Z" fill="#181425"/>
<path d="M696.846 22.2189H692.53V24.4378H696.846V22.2189Z" fill="#181425"/>
<path d="M688.214 22.2189H683.897V24.4378H688.214V22.2189Z" fill="#181425"/>
<path d="M705.675 22.2189H701.359V24.4378H705.675V22.2189Z" fill="#181425"/>
<path d="M883.818 42.3906H879.502V44.6094H883.818V42.3906Z" fill="#181425"/>
<path d="M666.436 60.2425H662.12V62.4614H666.436V60.2425Z" fill="#181425"/>
<path d="M662.12 58.0236H657.804V60.2425H662.12V58.0236Z" fill="#181425"/>
<path d="M648.975 60.2425H644.659V62.4614H648.975V60.2425Z" fill="#181425"/>
<path d="M653.488 58.0236H649.171V60.2425L653.488 60.2425V58.0236Z" fill="#181425"/>
<path d="M644.659 58.0236H640.343V60.2425H644.659V58.0236Z" fill="#181425"/>
<path d="M631.71 60.2425H627.394V62.4614H631.71V60.2425Z" fill="#181425"/>
<path d="M636.026 58.0236H631.71V60.2425H636.026V58.0236Z" fill="#181425"/>
<path d="M683.897 60.2425H679.581V62.4614H683.897V60.2425Z" fill="#181425"/>
<path d="M670.752 58.0236H666.436V60.2425H670.752V58.0236Z" fill="#181425"/>
<path d="M696.846 58.0236H692.53V60.2425L696.846 60.2425V58.0236Z" fill="#181425"/>
<path d="M701.162 60.2425L696.846 60.2425V62.4614H701.162V60.2425Z" fill="#181425"/>
<path d="M688.214 58.0236H683.897V60.2425H688.214V58.0236Z" fill="#181425"/>
<path d="M627.394 58.0236H623.078V60.2425H627.394V58.0236Z" fill="#181425"/>
<path d="M679.581 58.0236H675.265V60.2425H679.581V58.0236Z" fill="#181425"/>
<path d="M596.984 58.0236V55.8047H592.472V58.0236H588.155V60.2425L592.472 60.2425V62.4614H596.984V60.2425L601.3 60.2425V58.0236H596.984Z" fill="#181425"/>
<path d="M531.652 28.9764V31.1953H535.968V28.9764H540.284V26.7575H535.968V24.5386H531.652V26.7575H527.336V28.9764H531.652Z" fill="#181425"/>
<path d="M518.703 28.9764H523.019V26.7575H518.703V24.5386H514.191V26.7575H509.874V28.9764H514.191V31.1953H518.703V28.9764Z" fill="#181425"/>
<path d="M535.968 37.9528H540.284V35.633H535.968V33.4142H531.652V35.633H527.336V37.9528H531.652V40.1717H535.968V37.9528Z" fill="#181425"/>
<path d="M527.336 33.4142H531.652V31.1953H527.336V28.9764H523.019V31.1953H518.703V33.4142H523.019V35.633H527.336V33.4142Z" fill="#181425"/>
<path d="M905.595 53.5858H901.279V55.8047L905.595 55.8047V53.5858Z" fill="#181425"/>
<path d="M549.113 28.9764V31.1953H553.429V28.9764H557.745V26.7575H553.429V24.5386H549.113V26.7575H544.797V28.9764H549.113Z" fill="#181425"/>
<path d="M562.062 24.5386H557.745V26.7575H562.062V24.5386Z" fill="#181425"/>
<path d="M579.523 58.0236V55.8047H575.207V58.0236H570.89V60.2425L575.207 60.2425V62.4614L579.523 62.4614V60.2425L583.839 60.2425V58.0236H579.523Z" fill="#181425"/>
<path d="M570.89 55.8047H575.207V53.5858H570.89V51.2661H566.378V53.5858H562.062V55.8047H566.378V58.0236H570.89V55.8047Z" fill="#181425"/>
<path d="M544.797 42.3906H549.113V40.1717H544.797V37.9528H540.284V40.1717H535.968V42.3906H540.284V44.6094H544.797V42.3906Z" fill="#181425"/>
<path d="M705.675 58.0236H701.359V60.2425L705.675 60.2425V58.0236Z" fill="#181425"/>
<path d="M614.249 58.0236V55.8047H609.933V58.0236H605.617V60.2425L609.933 60.2425V62.4614H614.249V60.2425L618.565 60.2425V58.0236H614.249Z" fill="#181425"/>
<path d="M553.429 46.8283H557.745V44.6094H553.429V42.3906H549.113V44.6094H544.797V46.8283H549.113V49.0472H553.429V46.8283Z" fill="#181425"/>
<path d="M562.062 51.2661H566.378V49.0472H562.062V46.8283H557.745V49.0472H553.429V51.2661H557.745V53.5858H562.062V51.2661Z" fill="#181425"/>
<path d="M562.062 26.7575V28.9764H566.378V31.1953H570.89V28.9764H575.207V26.7575H570.89V24.5386H566.378V26.7575H562.062Z" fill="#181425"/>
<path d="M857.724 55.8047H853.408V58.0236H857.724V55.8047Z" fill="#181425"/>
<path d="M875.185 55.8047H870.869V58.0236H875.185V55.8047Z" fill="#181425"/>
<path d="M870.869 58.0236H866.553V60.2425H870.869V58.0236Z" fill="#181425"/>
<path d="M862.04 58.0236H857.724V60.2425H862.04V58.0236Z" fill="#181425"/>
<path d="M835.947 58.0236H831.631V60.2425H835.947V58.0236Z" fill="#181425"/>
<path d="M714.307 58.0236H709.991V60.2425L714.307 60.2425V58.0236Z" fill="#181425"/>
<path d="M827.314 58.0236H822.998V60.2425L827.314 60.2425V58.0236Z" fill="#181425"/>
<path d="M844.776 58.0236H840.459V60.2425L844.776 60.2425V58.0236Z" fill="#181425"/>
<path d="M896.963 58.0236H892.647V60.2425H896.963V58.0236Z" fill="#181425"/>
<path d="M879.502 58.0236H875.185V60.2425H879.502V58.0236Z" fill="#181425"/>
<path d="M905.595 58.0236H901.279V60.2425H905.595V58.0236Z" fill="#181425"/>
<path d="M896.963 53.5858H892.647V55.8047H896.963V53.5858Z" fill="#181425"/>
<path d="M892.647 55.8047L888.33 55.8047V58.0236H892.647V55.8047Z" fill="#181425"/>
<path d="M888.134 58.0236H883.818V60.2425H888.134V58.0236Z" fill="#181425"/>
<path d="M853.408 58.0236H849.092V60.2425H853.408V58.0236Z" fill="#181425"/>
<path d="M744.717 60.2425H740.401V62.4614H744.717V60.2425Z" fill="#181425"/>
<path d="M818.682 58.0236H814.366V60.2425L818.682 60.2425V58.0236Z" fill="#181425"/>
<path d="M753.35 60.2425L749.033 60.2425V62.4614H753.35V60.2425Z" fill="#181425"/>
<path d="M727.256 60.2425L722.94 60.2425V62.4614L727.256 62.4614V60.2425Z" fill="#181425"/>
<path d="M762.178 60.2425H757.862V62.4614H762.178V60.2425Z" fill="#181425"/>
<path d="M718.624 60.2425H714.307V62.4614L718.624 62.4614V60.2425Z" fill="#181425"/>
<path d="M736.085 60.2425H731.768V62.4614H736.085V60.2425Z" fill="#181425"/>
<path d="M801.221 58.0236H796.905V60.2425L801.221 60.2425V58.0236Z" fill="#181425"/>
<path d="M809.853 58.0236H805.537V60.2425L809.853 60.2425V58.0236Z" fill="#181425"/>
<path d="M792.588 58.0236H788.272V60.2425H792.588V58.0236Z" fill="#181425"/>
<path d="M779.443 60.2425L775.127 60.2425V62.4614H779.443V60.2425Z" fill="#181425"/>
<path d="M788.272 60.2425H783.956V62.4614H788.272V60.2425Z" fill="#181425"/>
<path d="M770.811 60.2425H766.495V62.4614H770.811V60.2425Z" fill="#181425"/>
<path d="M722.94 53.5858H718.624V55.8047L722.94 55.8047V53.5858Z" fill="#181425"/>
<path d="M731.768 35.633H727.452V37.8519H731.768V35.633Z" fill="#181425"/>
<path d="M722.94 35.633H718.624V37.8519H722.94V35.633Z" fill="#181425"/>
<path d="M953.466 42.3906H949.15V44.6094H953.466V42.3906Z" fill="#181425"/>
<path d="M949.15 44.6094H944.834V46.8283H949.15V44.6094Z" fill="#181425"/>
<path d="M740.401 35.633H736.085V37.8519H740.401V35.633Z" fill="#181425"/>
<path d="M749.033 35.633H744.717V37.8519H749.033V35.633Z" fill="#181425"/>
<path d="M949.15 40.1717H944.834V42.3906H949.15V40.1717Z" fill="#181425"/>
<path d="M718.624 33.4142H714.307V35.633H718.624V33.4142Z" fill="#181425"/>
<path d="M714.307 31.1953H709.991V33.4142H714.307V31.1953Z" fill="#181425"/>
<path d="M949.15 49.0472H944.834V51.2661H949.15V49.0472Z" fill="#181425"/>
<path d="M705.675 31.1953H701.359V33.4142H705.675V31.1953Z" fill="#181425"/>
<path d="M957.783 44.6094H953.466V46.8283H957.783V44.6094Z" fill="#181425"/>
<path d="M957.783 49.0472H953.466V51.2661H957.783V49.0472Z" fill="#181425"/>
<path d="M957.783 40.1717H953.466V42.3906H957.783V40.1717Z" fill="#181425"/>
<path d="M957.783 22.2189H953.466V24.4378H957.783V22.2189Z" fill="#181425"/>
<path d="M975.244 62.4614H970.927V64.6803H975.244V62.4614Z" fill="#181425"/>
<path d="M801.221 35.633H796.905V37.8519H801.221V35.633Z" fill="#181425"/>
<path d="M792.588 35.633H788.272V37.8519H792.588V35.633Z" fill="#181425"/>
<path d="M805.537 37.9528H801.221V40.1717H805.537V37.9528Z" fill="#181425"/>
<path d="M809.853 35.633H805.537V37.8519H809.853V35.633Z" fill="#181425"/>
<path d="M953.466 51.2661H949.15V53.485H953.466V51.2661Z" fill="#181425"/>
<path d="M966.415 62.4614H962.099V64.6803H966.415V62.4614Z" fill="#181425"/>
<path d="M775.127 35.633H770.811V37.8519H775.127V35.633Z" fill="#181425"/>
<path d="M957.783 31.1953H953.466V33.4142H957.783V31.1953Z" fill="#181425"/>
<path d="M783.956 35.633H779.639V37.8519H783.956V35.633Z" fill="#181425"/>
<path d="M957.783 35.633H953.466V37.8519H957.783V35.633Z" fill="#181425"/>
<path d="M766.495 35.633H762.178V37.8519H766.495V35.633Z" fill="#181425"/>
<path d="M957.783 26.7575H953.466V28.9764H957.783V26.7575Z" fill="#181425"/>
<path d="M757.862 35.633H753.546V37.8519H757.862V35.633Z" fill="#181425"/>
<path d="M666.436 28.9764H662.12V31.1953H666.436V28.9764Z" fill="#181425"/>
<path d="M940.321 31.1953H936.005V33.4142H940.321V31.1953Z" fill="#181425"/>
<path d="M614.249 35.633V37.9528H618.565V40.1717H623.078V37.9528H627.394V35.633H623.078V33.4142H618.565V35.633H614.249Z" fill="#181425"/>
<path d="M648.975 33.4142H644.659V35.633H648.975V33.4142Z" fill="#181425"/>
<path d="M631.71 33.4142H627.394V35.633H631.71V33.4142Z" fill="#181425"/>
<path d="M940.321 22.2189H936.005V24.4378H940.321V22.2189Z" fill="#181425"/>
<path d="M631.71 35.633V37.9528H636.026V40.1717H640.343V37.9528H644.659V35.633H640.343V33.4142H636.026V35.633H631.71Z" fill="#181425"/>
<path d="M940.321 26.7575H936.005V28.9764H940.321V26.7575Z" fill="#181425"/>
<path d="M931.689 31.1953H927.373V33.4142H931.689V31.1953Z" fill="#181425"/>
<path d="M596.788 33.4142H592.472V35.633H596.788V33.4142Z" fill="#181425"/>
<path d="M940.321 35.633H936.005V37.8519H940.321V35.633Z" fill="#181425"/>
<path d="M614.249 33.4142H609.933V35.633H614.249V33.4142Z" fill="#181425"/>
<path d="M931.689 35.633H927.373V37.8519H931.689V35.633Z" fill="#181425"/>
<path d="M936.005 33.4142H931.689V35.633H936.005V33.4142Z" fill="#181425"/>
<path d="M596.984 35.633V37.9528H601.3V40.1717H605.617V37.9528H609.933V35.633H605.617V33.4142H601.3V35.633H596.984Z" fill="#181425"/>
<path d="M675.069 28.9764H670.752V31.1953H675.069V28.9764Z" fill="#181425"/>
<path d="M683.897 28.9764H679.581V31.1953H683.897V28.9764Z" fill="#181425"/>
<path d="M957.783 53.5858H953.466V55.8047H957.783V53.5858Z" fill="#181425"/>
<path d="M696.846 31.1953H692.53V33.4142H696.846V31.1953Z" fill="#181425"/>
<path d="M957.783 58.0236H953.466V60.2425H957.783V58.0236Z" fill="#181425"/>
<path d="M949.15 53.5858H944.834V55.8047H949.15V53.5858Z" fill="#181425"/>
<path d="M692.53 28.9764H688.214V31.1953H692.53V28.9764Z" fill="#181425"/>
<path d="M818.682 35.633H814.366V37.8519H818.682V35.633Z" fill="#181425"/>
<path d="M949.15 62.4614H944.834V64.6803H949.15V62.4614Z" fill="#181425"/>
<path d="M653.488 31.1953H649.171V33.4142H653.488V31.1953Z" fill="#181425"/>
<path d="M949.15 58.0236H944.834V60.2425H949.15V58.0236Z" fill="#181425"/>
<path d="M657.804 28.9764H653.488V31.1953H657.804V28.9764Z" fill="#181425"/>
<path d="M957.783 62.4614H953.466V64.6803H957.783V62.4614Z" fill="#181425"/>
<path d="M953.466 60.2425H949.15V62.4614H953.466V60.2425Z" fill="#181425"/>
<path d="M683.897 46.8283H679.581V49.0472H683.897V46.8283Z" fill="#181425"/>
<path d="M983.876 62.4614H979.56V64.6803H983.876V62.4614Z" fill="#181425"/>
<path d="M727.256 51.2661H722.94V53.485H727.256V51.2661Z" fill="#181425"/>
<path d="M718.624 51.2661H714.307V53.485H718.624V51.2661Z" fill="#181425"/>
<path d="M709.991 51.2661H705.675V53.485H709.991V51.2661Z" fill="#181425"/>
<path d="M983.876 58.0236H979.56V60.2425H983.876V58.0236Z" fill="#181425"/>
<path d="M988.192 60.2425L983.876 60.2425V62.4614L988.192 62.4614V60.2425Z" fill="#181425"/>
<path d="M705.675 49.0472H701.359V51.2661H705.675V49.0472Z" fill="#181425"/>
<path d="M992.509 62.4614L988.192 62.4614V64.6803H992.509V62.4614Z" fill="#181425"/>
<path d="M975.244 26.7575H970.927V28.9764H975.244V26.7575Z" fill="#181425"/>
<path d="M701.162 28.9764H696.846V31.1953H701.162V28.9764Z" fill="#181425"/>
<path d="M975.244 31.1953H970.927V33.4142H975.244V31.1953Z" fill="#181425"/>
<path d="M731.768 53.5858H727.452V55.8047H731.768V53.5858Z" fill="#181425"/>
<path d="M975.244 22.2189H970.927V24.4378H975.244V22.2189Z" fill="#181425"/>
<path d="M740.401 53.5858H736.085V55.8047H740.401V53.5858Z" fill="#181425"/>
<path d="M992.509 35.633H988.192V37.8519H992.509V35.633Z" fill="#181425"/>
<path d="M666.436 46.8283H662.12V49.0472H666.436V46.8283Z" fill="#181425"/>
<path d="M992.509 58.0236H988.192V60.2425L992.509 60.2425V58.0236Z" fill="#181425"/>
<path d="M992.509 40.1717H988.192V42.3906H992.509V40.1717Z" fill="#181425"/>
<path d="M992.509 31.1953H988.192V33.4142H992.509V31.1953Z" fill="#181425"/>
<path d="M648.975 46.8283H644.659V49.0472H648.975V46.8283Z" fill="#181425"/>
<path d="M679.581 46.8283V44.6094H675.265V42.3906H670.752V44.6094H666.436V46.8283H670.752V49.0472H675.265V46.8283H679.581Z" fill="#181425"/>
<path d="M662.12 46.8283V44.6094H657.804V42.3906H653.488V44.6094H649.171V46.8283H653.488V49.0472H657.804V46.8283H662.12Z" fill="#181425"/>
<path d="M757.862 53.5858H753.546V55.8047H757.862V53.5858Z" fill="#181425"/>
<path d="M992.509 53.5858H988.192V55.8047H992.509V53.5858Z" fill="#181425"/>
<path d="M692.53 46.8283H688.214V49.0472H692.53V46.8283Z" fill="#181425"/>
<path d="M701.162 46.8283H696.846V49.0472H701.162V46.8283Z" fill="#181425"/>
<path d="M579.523 35.633V37.9528H583.839V40.1717H588.155V37.9528H592.472V35.633H588.155V33.4142H583.839V35.633H579.523Z" fill="#181425"/>
<path d="M992.509 49.0472H988.192V51.2661H992.509V49.0472Z" fill="#181425"/>
<path d="M992.509 44.6094H988.192V46.8283H992.509V44.6094Z" fill="#181425"/>
<path d="M970.927 60.2425H966.611V62.4614L970.927 62.4614V60.2425Z" fill="#181425"/>
<path d="M975.244 58.0236H970.927V60.2425L975.244 60.2425V58.0236Z" fill="#181425"/>
<path d="M975.244 35.633H970.927V37.8519H975.244V35.633Z" fill="#181425"/>
<path d="M966.415 58.0236H962.099V60.2425H966.415V58.0236Z" fill="#181425"/>
<path d="M809.853 44.6094H805.537V46.8283H809.853V44.6094Z" fill="#181425"/>
<path d="M975.244 53.5858H970.927V55.8047H975.244V53.5858Z" fill="#181425"/>
<path d="M966.415 53.5858H962.099V55.8047H966.415V53.5858Z" fill="#181425"/>
<path d="M801.221 40.1717H796.905V42.3906H801.221V40.1717Z" fill="#181425"/>
<path d="M818.682 40.1717H814.366V42.3906H818.682V40.1717Z" fill="#181425"/>
<path d="M827.314 40.1717H822.998V42.3906H827.314V40.1717Z" fill="#181425"/>
<path d="M822.998 37.9528H818.682V40.1717H822.998V37.9528Z" fill="#181425"/>
<path d="M827.314 44.6094H822.998V46.8283H827.314V44.6094Z" fill="#181425"/>
<path d="M818.682 44.6094H814.366V46.8283H818.682V44.6094Z" fill="#181425"/>
<path d="M805.537 42.3906H801.221V44.6094H805.537V42.3906Z" fill="#181425"/>
<path d="M814.366 42.3906H810.049V44.6094H814.366V42.3906Z" fill="#181425"/>
<path d="M801.221 44.6094H796.905V46.8283H801.221V44.6094Z" fill="#181425"/>
<path d="M783.956 49.0472H779.639V51.2661H783.956V49.0472Z" fill="#181425"/>
<path d="M975.244 44.6094H970.927V46.8283H975.244V44.6094Z" fill="#181425"/>
<path d="M775.127 49.0472H770.811V51.2661H775.127V49.0472Z" fill="#181425"/>
<path d="M770.811 51.2661H766.495V53.485H770.811V51.2661Z" fill="#181425"/>
<path d="M975.244 40.1717H970.927V42.3906H975.244V40.1717Z" fill="#181425"/>
<path d="M766.495 53.5858H762.178V55.8047H766.495V53.5858Z" fill="#181425"/>
<path d="M792.588 44.6094H788.272V46.8283H792.588V44.6094Z" fill="#181425"/>
<path d="M970.927 51.2661H966.611V53.485H970.927V51.2661Z" fill="#181425"/>
<path d="M975.244 49.0472H970.927V51.2661H975.244V49.0472Z" fill="#181425"/>
<path d="M809.853 40.1717H805.537V42.3906H809.853V40.1717Z" fill="#181425"/>
<path d="M796.905 42.3906H792.588V44.6094H796.905V42.3906Z" fill="#181425"/>
<path d="M788.272 46.8283H783.956V49.0472H788.272V46.8283Z" fill="#181425"/>
<path d="M966.415 49.0472H962.099V51.2661H966.415V49.0472Z" fill="#181425"/>
<path d="M749.033 53.5858H744.717V55.8047H749.033V53.5858Z" fill="#181425"/>
<path d="M853.408 44.6094H849.092V46.8283H853.408V44.6094Z" fill="#181425"/>
<path d="M853.408 49.0472H849.092V51.2661H853.408V49.0472Z" fill="#181425"/>
<path d="M809.853 62.4614L805.537 62.4614V64.6803L809.853 64.6803V62.4614Z" fill="#181425"/>
<path d="M844.776 49.0472H840.459V51.2661H844.776V49.0472Z" fill="#181425"/>
<path d="M849.092 42.3906H844.776V44.6094H849.092V42.3906Z" fill="#181425"/>
<path d="M840.459 46.8283H836.143V49.0472H840.459V46.8283Z" fill="#181425"/>
<path d="M844.776 44.6094H840.459V46.8283H844.776V44.6094Z" fill="#181425"/>
<path d="M827.314 31.1953H822.998V33.4142H827.314V31.1953Z" fill="#181425"/>
<path d="M831.631 33.4142H827.314V35.633H831.631V33.4142Z" fill="#181425"/>
<path d="M844.776 40.1717H840.459V42.3906H844.776V40.1717Z" fill="#181425"/>
<path d="M835.947 49.0472H831.631V51.2661H835.947V49.0472Z" fill="#181425"/>
<path d="M801.221 62.4614L796.905 62.4614V64.6803L801.221 64.6803V62.4614Z" fill="#181425"/>
<path d="M835.947 35.633H831.631V37.8519H835.947V35.633Z" fill="#181425"/>
<path d="M840.459 37.9528H836.143V40.1717H840.459V37.9528Z" fill="#181425"/>
<path d="M788.272 51.2661H783.956V53.485H788.272V51.2661Z" fill="#181425"/>
<path d="M779.443 51.2661H775.127V53.485H779.443V51.2661Z" fill="#181425"/>
<path d="M831.631 60.2425H827.314V62.4614H831.631V60.2425Z" fill="#181425"/>
<path d="M827.314 62.4614H822.998V64.6803L827.314 64.6803V62.4614Z" fill="#181425"/>
<path d="M818.682 31.1953H814.366V33.4142H818.682V31.1953Z" fill="#181425"/>
<path d="M762.178 55.8047H757.862V58.0236H762.178V55.8047Z" fill="#181425"/>
<path d="M775.127 53.5858H770.811V55.8047H775.127V53.5858Z" fill="#181425"/>
<path d="M770.811 55.8047H766.495V58.0236H770.811V55.8047Z" fill="#181425"/>
<path d="M801.221 49.0472H796.905V51.2661H801.221V49.0472Z" fill="#181425"/>
<path d="M809.853 49.0472H805.537V51.2661H809.853V49.0472Z" fill="#181425"/>
<path d="M818.682 49.0472H814.366V51.2661H818.682V49.0472Z" fill="#181425"/>
<path d="M814.366 60.2425L810.049 60.2425V62.4614H814.366V60.2425Z" fill="#181425"/>
<path d="M818.682 62.4614H814.366V64.6803L818.682 64.6803V62.4614Z" fill="#181425"/>
<path d="M827.314 49.0472H822.998V51.2661H827.314V49.0472Z" fill="#181425"/>
<path d="M792.588 49.0472H788.272V51.2661H792.588V49.0472Z" fill="#181425"/>
<path d="M835.947 62.4614L831.631 62.4614V64.6803H835.947V62.4614Z" fill="#181425"/>
<path d="M740.401 31.1953H736.085V33.4142H740.401V31.1953Z" fill="#181425"/>
<path d="M731.768 31.1953H727.452V33.4142H731.768V31.1953Z" fill="#181425"/>
<path d="M757.862 62.4614L753.546 62.4614V64.6803L757.862 64.6803V62.4614Z" fill="#181425"/>
<path d="M744.717 33.4142H740.401V35.633H744.717V33.4142Z" fill="#181425"/>
<path d="M766.495 62.4614H762.178V64.6803H766.495V62.4614Z" fill="#181425"/>
<path d="M749.033 31.1953H744.717V33.4142H749.033V31.1953Z" fill="#181425"/>
<path d="M749.033 62.4614H744.717V64.6803H749.033V62.4614Z" fill="#181425"/>
<path d="M709.991 28.9764H705.675V31.1953H709.991V28.9764Z" fill="#181425"/>
<path d="M757.862 31.1953H753.546V33.4142H757.862V31.1953Z" fill="#181425"/>
<path d="M718.624 28.9764H714.307V31.1953H718.624V28.9764Z" fill="#181425"/>
<path d="M727.256 33.4142H722.94V35.633H727.256V33.4142Z" fill="#181425"/>
<path d="M731.768 62.4614L727.452 62.4614V64.6803L731.768 64.6803V62.4614Z" fill="#181425"/>
<path d="M814.366 33.4142H810.049V35.633H814.366V33.4142Z" fill="#181425"/>
<path d="M740.401 62.4614H736.085V64.6803H740.401V62.4614Z" fill="#181425"/>
<path d="M722.94 31.1953H718.624V33.4142H722.94V31.1953Z" fill="#181425"/>
<path d="M796.905 60.2425H792.588V62.4614L796.905 62.4614V60.2425Z" fill="#181425"/>
<path d="M796.905 33.4142H792.588V35.633H796.905V33.4142Z" fill="#181425"/>
<path d="M762.178 33.4142H757.862V35.633H762.178V33.4142Z" fill="#181425"/>
<path d="M792.588 31.1953H788.272V33.4142H792.588V31.1953Z" fill="#181425"/>
<path d="M801.221 31.1953H796.905V33.4142H801.221V31.1953Z" fill="#181425"/>
<path d="M809.853 31.1953H805.537V33.4142H809.853V31.1953Z" fill="#181425"/>
<path d="M940.321 40.1717H936.005V42.3906H940.321V40.1717Z" fill="#181425"/>
<path d="M783.956 31.1953H779.639V33.4142H783.956V31.1953Z" fill="#181425"/>
<path d="M775.127 62.4614H770.811V64.6803H775.127V62.4614Z" fill="#181425"/>
<path d="M775.127 31.1953H770.811V33.4142H775.127V31.1953Z" fill="#181425"/>
<path d="M766.495 31.1953H762.178V33.4142H766.495V31.1953Z" fill="#181425"/>
<path d="M783.956 62.4614L779.639 62.4614V64.6803L783.956 64.6803V62.4614Z" fill="#181425"/>
<path d="M779.443 33.4142H775.127V35.633H779.443V33.4142Z" fill="#181425"/>
<path d="M792.588 62.4614H788.272V64.6803L792.588 64.6803V62.4614Z" fill="#181425"/>
<path d="M931.689 62.4614H927.373V64.6803L931.689 64.6803V62.4614Z" fill="#181425"/>
<path d="M614.249 51.2661H609.933V53.485H614.249V51.2661Z" fill="#181425"/>
<path d="M618.565 49.0472H614.249V51.2661H618.565V49.0472Z" fill="#181425"/>
<path d="M936.005 60.2425H931.689V62.4614H936.005V60.2425Z" fill="#181425"/>
<path d="M923.056 62.4614H918.74V64.6803L923.056 64.6803V62.4614Z" fill="#181425"/>
<path d="M931.689 58.0236H927.373V60.2425L931.689 60.2425V58.0236Z" fill="#181425"/>
<path d="M596.984 49.0472V46.8283H592.472V49.0472H588.155V51.2661H592.472V53.5858H596.984V51.2661H601.3V49.0472H596.984Z" fill="#181425"/>
<path d="M609.933 49.0472H605.617V51.2661H609.933V49.0472Z" fill="#181425"/>
<path d="M636.026 49.0472H631.71V51.2661H636.026V49.0472Z" fill="#181425"/>
<path d="M918.74 60.2425H914.424V62.4614L918.74 62.4614V60.2425Z" fill="#181425"/>
<path d="M644.659 49.0472H640.343V51.2661H644.659V49.0472Z" fill="#181425"/>
<path d="M923.056 58.0236H918.74V60.2425L923.056 60.2425V58.0236Z" fill="#181425"/>
<path d="M627.394 49.0472H623.078V51.2661H627.394V49.0472Z" fill="#181425"/>
<path d="M631.71 51.2661H627.394V53.485H631.71V51.2661Z" fill="#181425"/>
<path d="M931.689 44.6094H927.373V46.8283H931.689V44.6094Z" fill="#181425"/>
<path d="M570.89 37.9528H575.207V35.633H570.89V33.4142H566.378V35.633H562.062V37.9528H566.378V40.1717H570.89V37.9528Z" fill="#181425"/>
<path d="M940.321 49.0472H936.005V51.2661H940.321V49.0472Z" fill="#181425"/>
<path d="M940.321 44.6094H936.005V46.8283H940.321V44.6094Z" fill="#181425"/>
<path d="M914.228 62.4614H909.912V64.6803L914.228 64.6803V62.4614Z" fill="#181425"/>
<path d="M753.35 55.8047L749.033 55.8047V58.0236H753.35V55.8047Z" fill="#181425"/>
<path d="M931.689 40.1717H927.373V42.3906H931.689V40.1717Z" fill="#181425"/>
<path d="M936.005 42.3906H931.689V44.6094H936.005V42.3906Z" fill="#181425"/>
<path d="M579.523 42.3906H583.839V40.1717H579.523V37.9528H575.207V40.1717H570.89V42.3906H575.207V44.6094H579.523V42.3906Z" fill="#181425"/>
<path d="M588.155 46.8283H592.472V44.6094H588.155V42.3906H583.839V44.6094H579.523V46.8283H583.839V49.0472H588.155V46.8283Z" fill="#181425"/>
<path d="M931.689 53.5858H927.373V55.8047H931.689V53.5858Z" fill="#181425"/>
<path d="M940.321 53.5858H936.005V55.8047H940.321V53.5858Z" fill="#181425"/>
<path d="M936.005 51.2661H931.689V53.485H936.005V51.2661Z" fill="#181425"/>
<path d="M931.689 49.0472H927.373V51.2661H931.689V49.0472Z" fill="#181425"/>
<path d="M940.321 58.0236H936.005V60.2425L940.321 60.2425V58.0236Z" fill="#181425"/>
<path d="M579.523 33.4142H575.207V35.633H579.523V33.4142Z" fill="#181425"/>
<path d="M705.675 53.5858H701.359V55.8047L705.675 55.8047V53.5858Z" fill="#181425"/>
<path d="M992.509 26.7575H988.192V28.9764H992.509V26.7575Z" fill="#181425"/>
<path d="M862.04 62.4614H857.724V64.6803L862.04 64.6803V62.4614Z" fill="#181425"/>
<path d="M648.975 51.2661H644.659V53.485H648.975V51.2661Z" fill="#181425"/>
<path d="M866.553 60.2425L862.237 60.2425V62.4614H866.553V60.2425Z" fill="#181425"/>
<path d="M870.869 62.4614L866.553 62.4614V64.6803L870.869 64.6803V62.4614Z" fill="#181425"/>
<path d="M701.162 51.2661H696.846V53.485H701.162V51.2661Z" fill="#181425"/>
<path d="M744.717 55.8047H740.401V58.0236H744.717V55.8047Z" fill="#181425"/>
<path d="M736.085 55.8047H731.768V58.0236H736.085V55.8047Z" fill="#181425"/>
<path d="M696.846 49.0472H692.53V51.2661H696.846V49.0472Z" fill="#181425"/>
<path d="M844.776 62.4614L840.459 62.4614V64.6803L844.776 64.6803V62.4614Z" fill="#181425"/>
<path d="M727.256 55.8047L722.94 55.8047V58.0236H727.256V55.8047Z" fill="#181425"/>
<path d="M849.092 60.2425H844.776V62.4614L849.092 62.4614V60.2425Z" fill="#181425"/>
<path d="M853.408 62.4614L849.092 62.4614V64.6803L853.408 64.6803V62.4614Z" fill="#181425"/>
<path d="M714.307 53.5858H709.991V55.8047H714.307V53.5858Z" fill="#181425"/>
<path d="M662.12 49.0472H657.804V51.2661H662.12V49.0472Z" fill="#181425"/>
<path d="M896.963 62.4614H892.647V64.6803L896.963 64.6803V62.4614Z" fill="#181425"/>
<path d="M901.279 60.2425H896.963V62.4614L901.279 62.4614V60.2425Z" fill="#181425"/>
<path d="M666.436 51.2661H662.12V53.485H666.436V51.2661Z" fill="#181425"/>
<path d="M905.595 62.4614L901.279 62.4614V64.6803L905.595 64.6803V62.4614Z" fill="#181425"/>
<path d="M879.502 62.4614H875.185V64.6803L879.502 64.6803V62.4614Z" fill="#181425"/>
<path d="M653.488 49.0472H649.171V51.2661H653.488V49.0472Z" fill="#181425"/>
<path d="M683.897 51.2661H679.581V53.485H683.897V51.2661Z" fill="#181425"/>
<path d="M688.214 49.0472H683.897V51.2661H688.214V49.0472Z" fill="#181425"/>
<path d="M883.818 60.2425H879.502V62.4614L883.818 62.4614V60.2425Z" fill="#181425"/>
<path d="M888.134 62.4614L883.818 62.4614V64.6803H888.134V62.4614Z" fill="#181425"/>
<path d="M670.752 49.0472H666.436V51.2661H670.752V49.0472Z" fill="#181425"/>
<path d="M679.581 49.0472H675.265V51.2661H679.581V49.0472Z" fill="#181425"/>
<path d="M1360.3 59.5C1368.3 59.5 1387.2 59.5 1393.5 59.5V26.2H1360.3C1360.3 41.8 1360.3 59.5 1360.3 59.5Z" fill="#FCFEF4"/>
<path d="M1358.1 24V61.7H1395.8V24H1358.1ZM1360.3 59.5V26.2H1393.5V59.4H1360.3V59.5Z" fill="#181425"/>
<path d="M1364.7 30.6C1364.7 33.8 1364.7 27.8 1364.7 37.2C1364.7 43.4 1364.7 46.5 1364.7 54.9C1375.9 54.9 1378.6 54.9 1389.1 54.9C1389.1 34.7 1389.1 34.5 1389.1 30.5C1374.9 30.6 1381.3 30.6 1364.7 30.6ZM1386.9 52.8H1367V37.3H1386.9V52.8Z" fill="#181425"/>
<path d="M1318.2 59.5C1326.2 59.5 1345.1 59.5 1351.4 59.5V26.2H1318.2C1318.2 41.8 1318.2 59.5 1318.2 59.5Z" fill="#FCFEF4"/>
<path d="M1316 24V61.7H1353.7V24H1316ZM1318.2 59.5V26.2H1351.4V59.4H1318.2V59.5Z" fill="#181425"/>
<path d="M1347 52.8H1322.6V55H1347V52.8Z" fill="#181425"/>
<path d="M1402.4 59.5C1410.4 59.5 1429.3 59.5 1435.6 59.5V26.2H1402.4C1402.4 41.8 1402.4 59.5 1402.4 59.5Z" fill="#FCFEF4"/>
<path d="M1400.2 24V61.7H1437.9V24H1400.2ZM1402.4 59.5V26.2H1435.6V59.4H1402.4V59.5Z" fill="#181425"/>
<path d="M1421.3 41.7H1422.4V40.6H1423.5V39.5H1424.6V38.4H1425.7V37.3H1426.8V36.2H1427.9V35.1H1429V34H1430.1V32.9H1429V31.8H1427.9V32.9H1426.8V34H1425.7V35.1H1424.6V36.2H1423.5V37.3H1422.4V38.4H1421.3V39.5H1420.2V40.6H1417.9V39.5H1416.8V38.4H1415.7V37.3H1414.6V36.2H1413.5V35.1H1412.4V34H1411.3V32.9H1410.2V31.8H1409.1V32.9H1408V34H1409.1V35.1H1410.2V36.2H1411.3V37.3H1412.4V38.4H1413.5V39.5H1414.6V40.6H1415.7V41.7H1416.8V43.9H1415.7V45.1H1414.6V46.2H1413.5V47.3H1412.4V48.4H1411.3V49.5H1410.2V50.6H1409.1V51.7H1408V52.8H1409.1V53.9H1410.2V52.8H1411.3V51.7H1412.4V50.6H1413.5V49.5H1414.6V48.4H1415.7V47.3H1416.8V46.2H1417.9V45.1H1420.2V46.2H1421.3V47.3H1422.4V48.4H1423.5V49.5H1424.6V50.6H1425.7V51.7H1426.8V52.8H1427.9V53.9H1429V52.8H1430.1V51.7H1429V50.6H1427.9V49.5H1426.8V48.4H1425.7V47.3H1424.6V46.2H1423.5V45.1H1422.4V43.9H1421.3V41.7Z" fill="#181425"/>
<defs>
<filter id="filter0_ddd" x="0" y="0" width="1470" height="206" filterUnits="userSpaceOnUse" color-interpolation-filters="sRGB">
<feFlood flood-opacity="0" result="BackgroundImageFix"/>
<feColorMatrix in="SourceAlpha" type="matrix" values="0 0 0 0 0 0 0 0 0 0 0 0 0 0 0 0 0 0 127 0"/>
<feMorphology radius="6" operator="dilate" in="SourceAlpha" result="effect1_dropShadow"/>
<feOffset dx="4" dy="4"/>
<feGaussianBlur stdDeviation="4.5"/>
<feColorMatrix type="matrix" values="0 0 0 0 0 0 0 0 0 0 0 0 0 0 0 0 0 0 0.25 0"/>
<feBlend mode="normal" in2="BackgroundImageFix" result="effect1_dropShadow"/>
<feColorMatrix in="SourceAlpha" type="matrix" values="0 0 0 0 0 0 0 0 0 0 0 0 0 0 0 0 0 0 127 0"/>
<feOffset dx="2" dy="2"/>
<feGaussianBlur stdDeviation="2"/>
<feColorMatrix type="matrix" values="0 0 0 0 0.995833 0 0 0 0 0.0390036 0 0 0 0 0.615915 0 0 0 0.75 0"/>
<feBlend mode="normal" in2="effect1_dropShadow" result="effect2_dropShadow"/>
<feColorMatrix in="SourceAlpha" type="matrix" values="0 0 0 0 0 0 0 0 0 0 0 0 0 0 0 0 0 0 127 0"/>
<feOffset dx="-2" dy="-2"/>
<feGaussianBlur stdDeviation="2"/>
<feColorMatrix type="matrix" values="0 0 0 0 0 0 0 0 0 1 0 0 0 0 0.58 0 0 0 0.5 0"/>
<feBlend mode="normal" in2="effect2_dropShadow" result="effect3_dropShadow"/>
<feBlend mode="normal" in="SourceGraphic" in2="effect3_dropShadow" result="shape"/>
</filter>
<filter id="filter1_dii" x="8" y="8" width="1448" height="184" filterUnits="userSpaceOnUse" color-interpolation-filters="sRGB">
<feFlood flood-opacity="0" result="BackgroundImageFix"/>
<feColorMatrix in="SourceAlpha" type="matrix" values="0 0 0 0 0 0 0 0 0 0 0 0 0 0 0 0 0 0 127 0"/>
<feOffset dx="1" dy="1"/>
<feGaussianBlur stdDeviation="3.5"/>
<feColorMatrix type="matrix" values="0 0 0 0 0 0 0 0 0 0 0 0 0 0 0 0 0 0 0.3 0"/>
<feBlend mode="normal" in2="BackgroundImageFix" result="effect1_dropShadow"/>
<feBlend mode="normal" in="SourceGraphic" in2="effect1_dropShadow" result="shape"/>
<feColorMatrix in="SourceAlpha" type="matrix" values="0 0 0 0 0 0 0 0 0 0 0 0 0 0 0 0 0 0 127 0" result="hardAlpha"/>
<feOffset dx="3" dy="3"/>
<feGaussianBlur stdDeviation="0.5"/>
<feComposite in2="hardAlpha" operator="arithmetic" k2="-1" k3="1"/>
<feColorMatrix type="matrix" values="0 0 0 0 1 0 0 0 0 0.8475 0 0 0 0 0.878592 0 0 0 1 0"/>
<feBlend mode="normal" in2="shape" result="effect2_innerShadow"/>
<feColorMatrix in="SourceAlpha" type="matrix" values="0 0 0 0 0 0 0 0 0 0 0 0 0 0 0 0 0 0 127 0" result="hardAlpha"/>
<feOffset dx="-3" dy="-3"/>
<feGaussianBlur stdDeviation="1"/>
<feComposite in2="hardAlpha" operator="arithmetic" k2="-1" k3="1"/>
<feColorMatrix type="matrix" values="0 0 0 0 0 0 0 0 0 0 0 0 0 0 0 0 0 0 0.5 0"/>
<feBlend mode="normal" in2="effect2_innerShadow" result="effect3_innerShadow"/>
</filter>
</defs>
</svg>
