<svg width="1010" height="450" viewBox="0 0 1010 450" fill="none" xmlns="http://www.w3.org/2000/svg">
<g filter="url(#filter0_d)">
<rect width="1000" height="440" fill="white"/>
</g>
<rect x="4" y="3" width="992" height="433" stroke="#181425" stroke-width="2"/>
<rect x="8" y="57" width="984" height="375" fill="#181425"/>
<path d="M8 7L8 54L992 54V7L8 7Z" fill="#74FCAA"/>
<path d="M8 7V9.22366H988.995V51.7763H8V54C24.3325 54 971.225 54 992 54C992 36.4129 992 24.5871 992 7C971.225 7 24.3325 7 8 7Z" fill="#181425"/>
<path d="M740.806 31.6094H737.824V33.8283H740.806V31.6094Z" fill="#181425"/>
<path d="M497.351 33.8283H494.368V36.0472H497.351V33.8283Z" fill="#181425"/>
<path d="M518.497 31.6094H515.515V33.8283H518.497V31.6094Z" fill="#181425"/>
<path d="M740.806 36.0472H737.824V38.2661H740.806V36.0472Z" fill="#181425"/>
<path d="M509.415 33.8283H506.433V36.0472H509.415V33.8283Z" fill="#181425"/>
<path d="M740.806 40.5858H737.824V42.8047H740.806V40.5858Z" fill="#181425"/>
<path d="M539.508 24.9528H536.526V27.1717H539.508V24.9528Z" fill="#181425"/>
<path d="M488.404 31.6094H485.422V33.8283H488.404V31.6094Z" fill="#181425"/>
<path d="M503.451 33.8283H500.468V36.0472H503.451V33.8283Z" fill="#181425"/>
<path d="M740.806 18.1953H737.824V20.4142H740.806V18.1953Z" fill="#181425"/>
<path d="M461.293 24.9528H458.311V27.1717H461.293V24.9528Z" fill="#181425"/>
<path d="M524.461 31.6094H521.479V33.8283H524.461V31.6094Z" fill="#181425"/>
<path d="M539.508 29.3906H536.526V31.6094H539.508V29.3906Z" fill="#181425"/>
<path d="M740.806 22.633H737.824V24.8519H740.806V22.633Z" fill="#181425"/>
<path d="M491.386 33.8283H488.404V36.0472H491.386V33.8283Z" fill="#181425"/>
<path d="M542.49 27.1717H539.508V29.3906H542.49V27.1717Z" fill="#181425"/>
<path d="M536.526 31.6094H533.544V33.8283H536.526V31.6094Z" fill="#181425"/>
<path d="M740.806 27.1717H737.824V29.3906H740.806V27.1717Z" fill="#181425"/>
<path d="M734.706 22.633H731.724V24.8519H734.706V22.633Z" fill="#181425"/>
<path d="M764.799 27.1717H761.817V29.3906H764.799V27.1717Z" fill="#181425"/>
<path d="M506.433 31.6094H503.451V33.8283H506.433V31.6094Z" fill="#181425"/>
<path d="M734.706 31.6094H731.724V33.8283H734.706V31.6094Z" fill="#181425"/>
<path d="M512.397 31.6094H509.415V33.8283H512.397V31.6094Z" fill="#181425"/>
<path d="M515.379 33.8283H512.397V36.0472H515.379V33.8283Z" fill="#181425"/>
<path d="M764.799 18.1953H761.817V20.4142H764.799V18.1953Z" fill="#181425"/>
<path d="M752.735 18.1953H749.753V20.4142H752.735V18.1953Z" fill="#181425"/>
<path d="M503.451 29.3906H500.468V31.6094H503.451V29.3906Z" fill="#181425"/>
<path d="M734.706 40.5858H731.724V42.8047H734.706V40.5858Z" fill="#181425"/>
<path d="M527.444 24.9528H524.461V27.1717H527.444V24.9528Z" fill="#181425"/>
<path d="M464.411 22.633H461.429V24.8519H464.411V22.633Z" fill="#181425"/>
<path d="M752.735 22.633H749.753V24.8519H752.735V22.633Z" fill="#181425"/>
<path d="M740.806 49.4614H737.824V51.6803H740.806V49.4614Z" fill="#181425"/>
<path d="M506.433 36.0472H503.451V38.2661H506.433V36.0472Z" fill="#181425"/>
<path d="M740.806 45.0236H737.824V47.2425H740.806V45.0236Z" fill="#181425"/>
<path d="M515.379 24.9528H512.397V27.1717H515.379V24.9528Z" fill="#181425"/>
<path d="M734.706 13.7575H731.724V15.9764H734.706V13.7575Z" fill="#181425"/>
<path d="M512.397 36.0472H509.415V38.2661H512.397V36.0472Z" fill="#181425"/>
<path d="M458.311 22.633H455.329V24.8519H458.311V22.633Z" fill="#181425"/>
<path d="M518.497 36.0472H515.515V38.2661H518.497V36.0472Z" fill="#181425"/>
<path d="M764.799 49.4614H761.817V51.6803H764.799V49.4614Z" fill="#181425"/>
<path d="M482.44 27.1717H479.457V29.3906H482.44V27.1717Z" fill="#181425"/>
<path d="M473.357 29.3906H470.375V31.6094H473.357V29.3906Z" fill="#181425"/>
<path d="M446.382 27.1717H443.4V29.3906H446.382V27.1717Z" fill="#181425"/>
<path d="M476.34 27.1717H473.357V29.3906H476.34V27.1717Z" fill="#181425"/>
<path d="M470.375 27.1717H467.393V29.3906H470.375V27.1717Z" fill="#181425"/>
<path d="M533.408 29.3906H530.426V31.6094H533.408V29.3906Z" fill="#181425"/>
<path d="M764.799 45.0236H761.817V47.2425H764.799V45.0236Z" fill="#181425"/>
<path d="M467.393 24.9528H464.411V27.1717H467.393V24.9528Z" fill="#181425"/>
<path d="M764.799 40.5858H761.817V42.8047H764.799V40.5858Z" fill="#181425"/>
<path d="M746.77 13.7575H743.788V15.9764H746.77V13.7575Z" fill="#181425"/>
<path d="M752.735 49.4614H749.753V51.6803H752.735V49.4614Z" fill="#181425"/>
<path d="M443.264 29.3906H440.282V31.6094H443.264V29.3906Z" fill="#181425"/>
<path d="M479.322 24.9528H476.34V27.1717H479.322V24.9528Z" fill="#181425"/>
<path d="M758.835 31.6094H755.852V33.8283H758.835V31.6094Z" fill="#181425"/>
<path d="M758.835 13.7575H755.852V15.9764H758.835V13.7575Z" fill="#181425"/>
<path d="M752.735 36.0472H749.753V38.2661H752.735V36.0472Z" fill="#181425"/>
<path d="M758.835 22.633H755.852V24.8519H758.835V22.633Z" fill="#181425"/>
<path d="M752.735 31.6094H749.753V33.8283H752.735V31.6094Z" fill="#181425"/>
<path d="M752.735 45.0236H749.753V47.2425H752.735V45.0236Z" fill="#181425"/>
<path d="M473.357 24.9528H470.375V27.1717H473.357V24.9528Z" fill="#181425"/>
<path d="M752.735 40.5858H749.753V42.8047H752.735V40.5858Z" fill="#181425"/>
<path d="M746.77 22.633H743.788V24.8519H746.77V22.633Z" fill="#181425"/>
<path d="M740.806 9.21888H737.824V11.4378H740.806V9.21888Z" fill="#181425"/>
<path d="M485.422 29.3906H482.44V31.6094H485.422V29.3906Z" fill="#181425"/>
<path d="M752.735 9.21888H749.753V11.4378H752.735V9.21888Z" fill="#181425"/>
<path d="M536.526 27.1717H533.544V29.3906H536.526V27.1717Z" fill="#181425"/>
<path d="M515.379 29.3906H512.397V31.6094H515.379V29.3906Z" fill="#181425"/>
<path d="M746.77 49.4614H743.788V51.6803H746.77V49.4614Z" fill="#181425"/>
<path d="M740.806 13.7575H737.824V15.9764H740.806V13.7575Z" fill="#181425"/>
<path d="M527.444 29.3906H524.461V31.6094H527.444V29.3906Z" fill="#181425"/>
<path d="M764.799 31.6094H761.817V33.8283H764.799V31.6094Z" fill="#181425"/>
<path d="M491.386 29.3906H488.404V31.6094H491.386V29.3906Z" fill="#181425"/>
<path d="M497.351 29.3906H494.368V31.6094H497.351V29.3906Z" fill="#181425"/>
<path d="M746.77 31.6094H743.788V33.8283H746.77V31.6094Z" fill="#181425"/>
<path d="M752.735 27.1717H749.753V29.3906H752.735V27.1717Z" fill="#181425"/>
<path d="M479.322 29.3906H476.34V31.6094H479.322V29.3906Z" fill="#181425"/>
<path d="M758.835 40.5858H755.852V42.8047H758.835V40.5858Z" fill="#181425"/>
<path d="M734.706 45.0236H731.724V47.2425H734.706V45.0236Z" fill="#181425"/>
<path d="M494.368 31.6094H491.386V33.8283H494.368V31.6094Z" fill="#181425"/>
<path d="M500.468 31.6094H497.486V33.8283H500.468V31.6094Z" fill="#181425"/>
<path d="M764.799 36.0472H761.817V38.2661H764.799V36.0472Z" fill="#181425"/>
<path d="M758.835 49.4614H755.852V51.6803H758.835V49.4614Z" fill="#181425"/>
<path d="M746.77 40.5858H743.788V42.8047H746.77V40.5858Z" fill="#181425"/>
<path d="M716.677 45.0236H713.695V47.2425H716.677V45.0236Z" fill="#181425"/>
<path d="M698.648 18.1953H695.666V20.4142H698.648V18.1953Z" fill="#181425"/>
<path d="M698.648 13.7575H695.666V15.9764H698.648V13.7575Z" fill="#181425"/>
<path d="M452.347 18.1953H449.364V20.4142H452.347V18.1953Z" fill="#181425"/>
<path d="M446.382 24.9528V27.1717H449.364V24.9528H452.347V22.633H449.364V20.4142H446.382V22.633H443.4V24.9528H446.382Z" fill="#181425"/>
<path d="M698.648 22.633H695.666V24.8519H698.648V22.633Z" fill="#181425"/>
<path d="M704.748 45.0236H701.766V47.2425H704.748V45.0236Z" fill="#181425"/>
<path d="M704.748 49.4614H701.766V51.6803H704.748V49.4614Z" fill="#181425"/>
<path d="M458.311 18.1953H455.329V20.4142H458.311V18.1953Z" fill="#181425"/>
<path d="M443.264 24.9528H440.282V27.1717H443.264V24.9528Z" fill="#181425"/>
<path d="M698.648 40.5858H695.666V42.8047H698.648V40.5858Z" fill="#181425"/>
<path d="M464.411 18.1953H461.429V20.4142H464.411V18.1953Z" fill="#181425"/>
<path d="M431.336 29.3906H428.354V31.6094H431.336V29.3906Z" fill="#181425"/>
<path d="M698.648 36.0472H695.666V38.2661H698.648V36.0472Z" fill="#181425"/>
<path d="M698.648 45.0236H695.666V47.2425H698.648V45.0236Z" fill="#181425"/>
<path d="M698.648 27.1717H695.666V29.3906H698.648V27.1717Z" fill="#181425"/>
<path d="M506.433 27.1717H503.451V29.3906H506.433V27.1717Z" fill="#181425"/>
<path d="M698.648 31.6094H695.666V33.8283H698.648V31.6094Z" fill="#181425"/>
<path d="M497.351 24.9528H494.368V27.1717H497.351V24.9528Z" fill="#181425"/>
<path d="M704.748 40.5858H701.766V42.8047H704.748V40.5858Z" fill="#181425"/>
<path d="M500.468 27.1717H497.486V29.3906H500.468V27.1717Z" fill="#181425"/>
<path d="M698.648 49.4614H695.666V51.6803H698.648V49.4614Z" fill="#181425"/>
<path d="M704.748 18.1953H701.766V20.4142H704.748V18.1953Z" fill="#181425"/>
<path d="M488.404 22.633H485.422V24.8519H488.404V22.633Z" fill="#181425"/>
<path d="M710.713 49.4614H707.731V51.6803H710.713V49.4614Z" fill="#181425"/>
<path d="M503.451 24.9528H500.468V27.1717H503.451V24.9528Z" fill="#181425"/>
<path d="M704.748 9.21888H701.766V11.4378H704.748V9.21888Z" fill="#181425"/>
<path d="M491.386 24.9528H488.404V27.1717H491.386V24.9528Z" fill="#181425"/>
<path d="M704.748 36.0472H701.766V38.2661H704.748V36.0472Z" fill="#181425"/>
<path d="M473.357 20.4142H470.375V22.633H473.357V20.4142Z" fill="#181425"/>
<path d="M704.748 31.6094H701.766V33.8283H704.748V31.6094Z" fill="#181425"/>
<path d="M470.375 18.1953H467.393V20.4142H470.375V18.1953Z" fill="#181425"/>
<path d="M704.748 22.633H701.766V24.8519H704.748V22.633Z" fill="#181425"/>
<path d="M485.422 20.4142H482.44V22.633H485.422V20.4142Z" fill="#181425"/>
<path d="M479.322 20.4142H476.34V22.633H479.322V20.4142Z" fill="#181425"/>
<path d="M704.748 27.1717H701.766V29.3906H704.748V27.1717Z" fill="#181425"/>
<path d="M440.282 27.1717H437.3V29.3906H440.282V27.1717Z" fill="#181425"/>
<path d="M686.72 27.1717H683.738V29.3906H686.72V27.1717Z" fill="#181425"/>
<path d="M410.325 27.1717H407.343V29.3906H410.325V27.1717Z" fill="#181425"/>
<path d="M407.207 29.3906H404.225V31.6094H407.207V29.3906Z" fill="#181425"/>
<path d="M686.72 36.0472H683.738V38.2661H686.72V36.0472Z" fill="#181425"/>
<path d="M686.72 31.6094H683.738V33.8283H686.72V31.6094Z" fill="#181425"/>
<path d="M434.318 27.1717H431.336V29.3906H434.318V27.1717Z" fill="#181425"/>
<path d="M686.72 18.1953H683.738V20.4142H686.72V18.1953Z" fill="#181425"/>
<path d="M407.207 24.9528H404.225V27.1717H407.207V24.9528Z" fill="#181425"/>
<path d="M404.225 27.1717H401.243V29.3906H404.225V27.1717Z" fill="#181425"/>
<path d="M431.336 33.8283H428.354V36.0472H431.336V33.8283Z" fill="#181425"/>
<path d="M686.72 49.4614H683.738V51.6803H686.72V49.4614Z" fill="#181425"/>
<path d="M428.354 33.8283V31.6094H425.371V29.3906H422.254V31.6094H419.271V33.8283H422.254V36.0472H425.371V33.8283H428.354Z" fill="#181425"/>
<path d="M680.62 9.21888H677.638V11.4378H680.62V9.21888Z" fill="#181425"/>
<path d="M686.72 40.5858H683.738V42.8047H686.72V40.5858Z" fill="#181425"/>
<path d="M416.289 33.8283V31.6094H413.307V29.3906H410.325V31.6094H407.343V33.8283H410.325V36.0472H413.307V33.8283H416.289Z" fill="#181425"/>
<path d="M686.72 45.0236H683.738V47.2425H686.72V45.0236Z" fill="#181425"/>
<path d="M419.271 33.8283H416.289V36.0472H419.271V33.8283Z" fill="#181425"/>
<path d="M686.72 22.633H683.738V24.8519H686.72V22.633Z" fill="#181425"/>
<path d="M428.354 27.1717H425.371V29.3906H428.354V27.1717Z" fill="#181425"/>
<path d="M692.684 22.633H689.702V24.8519H692.684V22.633Z" fill="#181425"/>
<path d="M692.684 18.1953H689.702V20.4142H692.684V18.1953Z" fill="#181425"/>
<path d="M692.684 27.1717H689.702V29.3906H692.684V27.1717Z" fill="#181425"/>
<path d="M692.684 9.21888H689.702V11.4378H692.684V9.21888Z" fill="#181425"/>
<path d="M692.684 13.7575H689.702V15.9764H692.684V13.7575Z" fill="#181425"/>
<path d="M692.684 31.6094H689.702V33.8283H692.684V31.6094Z" fill="#181425"/>
<path d="M686.72 13.7575H683.738V15.9764H686.72V13.7575Z" fill="#181425"/>
<path d="M431.336 24.9528H428.354V27.1717H431.336V24.9528Z" fill="#181425"/>
<path d="M419.271 29.3906H416.289V31.6094H419.271V29.3906Z" fill="#181425"/>
<path d="M692.684 49.4614H689.702V51.6803H692.684V49.4614Z" fill="#181425"/>
<path d="M416.289 27.1717H413.307V29.3906H416.289V27.1717Z" fill="#181425"/>
<path d="M686.72 9.21888H683.738V11.4378H686.72V9.21888Z" fill="#181425"/>
<path d="M419.271 24.9528H416.289V27.1717H419.271V24.9528Z" fill="#181425"/>
<path d="M692.684 36.0472H689.702V38.2661H692.684V36.0472Z" fill="#181425"/>
<path d="M692.684 40.5858H689.702V42.8047H692.684V40.5858Z" fill="#181425"/>
<path d="M422.254 27.1717H419.271V29.3906H422.254V27.1717Z" fill="#181425"/>
<path d="M704.748 13.7575H701.766V15.9764H704.748V13.7575Z" fill="#181425"/>
<path d="M455.329 20.4142H452.347V22.633H455.329V20.4142Z" fill="#181425"/>
<path d="M452.347 27.1717H449.364V29.3906H452.347V27.1717Z" fill="#181425"/>
<path d="M722.777 13.7575H719.795V15.9764H722.777V13.7575Z" fill="#181425"/>
<path d="M722.777 22.633H719.795V24.8519H722.777V22.633Z" fill="#181425"/>
<path d="M455.329 24.9528H452.347V27.1717H455.329V24.9528Z" fill="#181425"/>
<path d="M728.742 49.4614H725.759V51.6803H728.742V49.4614Z" fill="#181425"/>
<path d="M728.742 45.0236H725.759V47.2425H728.742V45.0236Z" fill="#181425"/>
<path d="M458.311 27.1717H455.329V29.3906H458.311V27.1717Z" fill="#181425"/>
<path d="M455.329 29.3906H452.347V31.6094H455.329V29.3906Z" fill="#181425"/>
<path d="M722.777 49.4614H719.795V51.6803H722.777V49.4614Z" fill="#181425"/>
<path d="M722.777 40.5858H719.795V42.8047H722.777V40.5858Z" fill="#181425"/>
<path d="M722.777 45.0236H719.795V47.2425H722.777V45.0236Z" fill="#181425"/>
<path d="M476.34 31.6094H473.357V33.8283H476.34V31.6094Z" fill="#181425"/>
<path d="M464.411 27.1717H461.429V29.3906H464.411V27.1717Z" fill="#181425"/>
<path d="M722.777 31.6094H719.795V33.8283H722.777V31.6094Z" fill="#181425"/>
<path d="M722.777 36.0472H719.795V38.2661H722.777V36.0472Z" fill="#181425"/>
<path d="M467.393 29.3906H464.411V31.6094H467.393V29.3906Z" fill="#181425"/>
<path d="M470.375 31.6094H467.393V33.8283H470.375V31.6094Z" fill="#181425"/>
<path d="M485.422 24.9528H482.44V27.1717H485.422V24.9528Z" fill="#181425"/>
<path d="M488.404 27.1717H485.422V29.3906H488.404V27.1717Z" fill="#181425"/>
<path d="M728.742 13.7575H725.759V15.9764H728.742V13.7575Z" fill="#181425"/>
<path d="M728.742 18.1953H725.759V20.4142H728.742V18.1953Z" fill="#181425"/>
<path d="M734.706 49.4614H731.724V51.6803H734.706V49.4614Z" fill="#181425"/>
<path d="M728.742 9.21888H725.759V11.4378H728.742V9.21888Z" fill="#181425"/>
<path d="M482.44 22.633H479.457V24.8519H482.44V22.633Z" fill="#181425"/>
<path d="M728.742 40.5858H725.759V42.8047H728.742V40.5858Z" fill="#181425"/>
<path d="M494.368 27.1717H491.386V29.3906H494.368V27.1717Z" fill="#181425"/>
<path d="M728.742 36.0472H725.759V38.2661H728.742V36.0472Z" fill="#181425"/>
<path d="M728.742 31.6094H725.759V33.8283H728.742V31.6094Z" fill="#181425"/>
<path d="M467.393 20.4142H464.411V22.633H467.393V20.4142Z" fill="#181425"/>
<path d="M461.293 20.4142H458.311V22.633H461.293V20.4142Z" fill="#181425"/>
<path d="M728.742 27.1717H725.759V29.3906H728.742V27.1717Z" fill="#181425"/>
<path d="M476.34 22.633H473.357V24.8519H476.34V22.633Z" fill="#181425"/>
<path d="M470.375 22.633H467.393V24.8519H470.375V22.633Z" fill="#181425"/>
<path d="M728.742 22.633H725.759V24.8519H728.742V22.633Z" fill="#181425"/>
<path d="M716.677 22.633H713.695V24.8519H716.677V22.633Z" fill="#181425"/>
<path d="M530.426 27.1717H527.444V29.3906H530.426V27.1717Z" fill="#181425"/>
<path d="M530.426 31.6094H527.444V33.8283H530.426V31.6094Z" fill="#181425"/>
<path d="M710.713 13.7575H707.731V15.9764H710.713V13.7575Z" fill="#181425"/>
<path d="M710.713 22.633H707.731V24.8519H710.713V22.633Z" fill="#181425"/>
<path d="M527.444 33.8283H524.461V36.0472H527.444V33.8283Z" fill="#181425"/>
<path d="M716.677 49.4614H713.695V51.6803H716.677V49.4614Z" fill="#181425"/>
<path d="M764.799 9.21888H761.817V11.4378H764.799V9.21888Z" fill="#181425"/>
<path d="M524.461 27.1717H521.479V29.3906H524.461V27.1717Z" fill="#181425"/>
<path d="M710.713 36.0472H707.731V38.2661H710.713V36.0472Z" fill="#181425"/>
<path d="M512.397 27.1717H509.415V29.3906H512.397V27.1717Z" fill="#181425"/>
<path d="M710.713 40.5858H707.731V42.8047H710.713V40.5858Z" fill="#181425"/>
<path d="M509.415 29.3906H506.433V31.6094H509.415V29.3906Z" fill="#181425"/>
<path d="M524.461 36.0472H521.479V38.2661H524.461V36.0472Z" fill="#181425"/>
<path d="M521.479 29.3906H518.497V31.6094H521.479V29.3906Z" fill="#181425"/>
<path d="M710.713 27.1717H707.731V29.3906H710.713V27.1717Z" fill="#181425"/>
<path d="M710.713 31.6094H707.731V33.8283H710.713V31.6094Z" fill="#181425"/>
<path d="M518.497 27.1717H515.515V29.3906H518.497V27.1717Z" fill="#181425"/>
<path d="M482.44 31.6094H479.457V33.8283H482.44V31.6094Z" fill="#181425"/>
<path d="M716.677 18.1953H713.695V20.4142H716.677V18.1953Z" fill="#181425"/>
<path d="M494.368 36.0472H491.386V38.2661H494.368V36.0472Z" fill="#181425"/>
<path d="M488.404 36.0472H485.422V38.2661H488.404V36.0472Z" fill="#181425"/>
<path d="M710.713 45.0236H707.731V47.2425H710.713V45.0236Z" fill="#181425"/>
<path d="M500.468 36.0472H497.486V38.2661H500.468V36.0472Z" fill="#181425"/>
<path d="M716.677 9.21888H713.695V11.4378H716.677V9.21888Z" fill="#181425"/>
<path d="M716.677 13.7575H713.695V15.9764H716.677V13.7575Z" fill="#181425"/>
<path d="M485.422 33.8283H482.44V36.0472H485.422V33.8283Z" fill="#181425"/>
<path d="M515.379 38.2661H512.397V40.485H515.379V38.2661Z" fill="#181425"/>
<path d="M521.479 38.2661H518.497V40.485H521.479V38.2661Z" fill="#181425"/>
<path d="M716.677 36.0472H713.695V38.2661H716.677V36.0472Z" fill="#181425"/>
<path d="M716.677 40.5858H713.695V42.8047H716.677V40.5858Z" fill="#181425"/>
<path d="M716.677 27.1717H713.695V29.3906H716.677V27.1717Z" fill="#181425"/>
<path d="M503.451 38.2661H500.468V40.485H503.451V38.2661Z" fill="#181425"/>
<path d="M509.415 38.2661H506.433V40.485H509.415V38.2661Z" fill="#181425"/>
<path d="M716.677 31.6094H713.695V33.8283H716.677V31.6094Z" fill="#181425"/>
<path d="M602.541 31.6094H599.558V33.8283H602.541V31.6094Z" fill="#181425"/>
<path d="M614.605 13.7575H611.623V15.9764H614.605V13.7575Z" fill="#181425"/>
<path d="M620.569 18.1953H617.587V20.4142H620.569V18.1953Z" fill="#181425"/>
<path d="M608.505 22.633H605.523V24.8519H608.505V22.633Z" fill="#181425"/>
<path d="M605.523 20.4142H602.541V22.633H605.523V20.4142Z" fill="#181425"/>
<path d="M620.569 13.7575H617.587V15.9764H620.569V13.7575Z" fill="#181425"/>
<path d="M608.505 18.1953H605.523V20.4142H608.505V18.1953Z" fill="#181425"/>
<path d="M614.605 18.1953H611.623V20.4142H614.605V18.1953Z" fill="#181425"/>
<path d="M602.541 22.633H599.558V24.8519H602.541V22.633Z" fill="#181425"/>
<path d="M617.587 29.3906H614.605V31.6094H617.587V29.3906Z" fill="#181425"/>
<path d="M614.605 9.21888H611.623V11.4378H614.605V9.21888Z" fill="#181425"/>
<path d="M620.569 9.21888H617.587V11.4378H620.569V9.21888Z" fill="#181425"/>
<path d="M614.605 27.1717H611.623V29.3906H614.605V27.1717Z" fill="#181425"/>
<path d="M620.569 27.1717H617.587V29.3906H620.569V27.1717Z" fill="#181425"/>
<path d="M617.587 11.5386H614.605V13.7575H617.587V11.5386Z" fill="#181425"/>
<path d="M608.505 27.1717H605.523V29.3906H608.505V27.1717Z" fill="#181425"/>
<path d="M602.541 18.1953H599.558V20.4142H602.541V18.1953Z" fill="#181425"/>
<path d="M608.505 9.21888H605.523V11.4378H608.505V9.21888Z" fill="#181425"/>
<path d="M602.541 9.21888H599.558V11.4378H602.541V9.21888Z" fill="#181425"/>
<path d="M593.594 11.5386H590.612V13.7575H593.594V11.5386Z" fill="#181425"/>
<path d="M605.523 11.5386H602.541V13.7575H605.523V11.5386Z" fill="#181425"/>
<path d="M602.541 13.7575H599.558V15.9764H602.541V13.7575Z" fill="#181425"/>
<path d="M608.505 13.7575H605.523V15.9764H608.505V13.7575Z" fill="#181425"/>
<path d="M596.576 9.21888H593.594V11.4378H596.576V9.21888Z" fill="#181425"/>
<path d="M596.576 18.1953H593.594V20.4142H596.576V18.1953Z" fill="#181425"/>
<path d="M614.605 22.633H611.623V24.8519H614.605V22.633Z" fill="#181425"/>
<path d="M617.587 20.4142H614.605V22.633H617.587V20.4142Z" fill="#181425"/>
<path d="M590.476 13.7575H587.494V15.9764H590.476V13.7575Z" fill="#181425"/>
<path d="M620.569 31.6094H617.587V33.8283H620.569V31.6094Z" fill="#181425"/>
<path d="M596.576 13.7575H593.594V15.9764H596.576V13.7575Z" fill="#181425"/>
<path d="M620.569 22.633H617.587V24.8519H620.569V22.633Z" fill="#181425"/>
<path d="M629.651 20.4142H626.669V22.633H629.651V20.4142Z" fill="#181425"/>
<path d="M644.562 49.4614H641.58V51.6803H644.562V49.4614Z" fill="#181425"/>
<path d="M626.534 22.633H623.552V24.8519H626.534V22.633Z" fill="#181425"/>
<path d="M878.936 40.5858H875.953V42.8047H878.936V40.5858Z" fill="#181425"/>
<path d="M632.634 22.633H629.651V24.8519H632.634V22.633Z" fill="#181425"/>
<path d="M563.501 47.2425H560.519V49.4614H563.501V47.2425Z" fill="#181425"/>
<path d="M878.936 49.4614H875.953V51.6803H878.936V49.4614Z" fill="#181425"/>
<path d="M551.437 47.2425H548.455V49.4614H551.437V47.2425Z" fill="#181425"/>
<path d="M891 49.4614H888.018V51.6803H891V49.4614Z" fill="#181425"/>
<path d="M854.943 31.6094H851.96V33.8283H854.943V31.6094Z" fill="#181425"/>
<path d="M854.943 40.5858H851.96V42.8047H854.943V40.5858Z" fill="#181425"/>
<path d="M867.007 31.6094H864.025V33.8283H867.007V31.6094Z" fill="#181425"/>
<path d="M854.943 22.633H851.96V24.8519H854.943V22.633Z" fill="#181425"/>
<path d="M867.007 49.4614H864.025V51.6803H867.007V49.4614Z" fill="#181425"/>
<path d="M867.007 40.5858H864.025V42.8047H867.007V40.5858Z" fill="#181425"/>
<path d="M632.634 18.1953H629.651V20.4142H632.634V18.1953Z" fill="#181425"/>
<path d="M629.651 29.3906H626.669V31.6094H629.651V29.3906Z" fill="#181425"/>
<path d="M632.634 36.0472H629.651V38.2661H632.634V36.0472Z" fill="#181425"/>
<path d="M629.651 38.2661H626.669V40.485H629.651V38.2661Z" fill="#181425"/>
<path d="M575.565 47.2425H572.583V49.4614H575.565V47.2425Z" fill="#181425"/>
<path d="M626.534 36.0472H623.552V38.2661H626.534V36.0472Z" fill="#181425"/>
<path d="M614.605 31.6094H611.623V33.8283H614.605V31.6094Z" fill="#181425"/>
<path d="M632.634 31.6094H629.651V33.8283H632.634V31.6094Z" fill="#181425"/>
<path d="M620.569 36.0472H617.587V38.2661H620.569V36.0472Z" fill="#181425"/>
<path d="M626.534 31.6094H623.552V33.8283H626.534V31.6094Z" fill="#181425"/>
<path d="M626.534 27.1717H623.552V29.3906H626.534V27.1717Z" fill="#181425"/>
<path d="M770.763 49.4614H767.781V51.6803H770.763V49.4614Z" fill="#181425"/>
<path d="M623.552 42.8047H620.569V45.0236H623.552V42.8047Z" fill="#181425"/>
<path d="M632.634 40.5858H629.651V42.8047H632.634V40.5858Z" fill="#181425"/>
<path d="M626.534 40.5858H623.552V42.8047L626.534 42.8047V40.5858Z" fill="#181425"/>
<path d="M632.634 27.1717H629.651V29.3906H632.634V27.1717Z" fill="#181425"/>
<path d="M455.329 51.6803H452.347V53.8991H455.329V51.6803Z" fill="#181425"/>
<path d="M431.336 51.6803H428.354V53.8991H431.336V51.6803Z" fill="#181425"/>
<path d="M425.236 7H422.254V9.21888H425.236V7Z" fill="#181425"/>
<path d="M431.336 7H428.354V9.21888H431.336V7Z" fill="#181425"/>
<path d="M419.271 7H416.289V9.21888H419.271V7Z" fill="#181425"/>
<path d="M437.3 7H434.318V9.21888H437.3V7Z" fill="#181425"/>
<path d="M413.307 7H410.325V9.21888H413.307V7Z" fill="#181425"/>
<path d="M419.271 51.6803H416.289V53.8991H419.271V51.6803Z" fill="#181425"/>
<path d="M449.364 7H446.382V9.21888H449.364V7Z" fill="#181425"/>
<path d="M455.329 7H452.347V9.21888H455.329V7Z" fill="#181425"/>
<path d="M590.476 9.21888H587.494V11.4378H590.476V9.21888Z" fill="#181425"/>
<path d="M461.293 7H458.311V9.21888H461.293V7Z" fill="#181425"/>
<path d="M443.264 51.6803H440.282V53.8991H443.264V51.6803Z" fill="#181425"/>
<path d="M854.943 49.4614H851.96V51.6803H854.943V49.4614Z" fill="#181425"/>
<path d="M443.264 7H440.282V9.21888H443.264V7Z" fill="#181425"/>
<path d="M407.207 7H404.225V9.21888H407.207V7Z" fill="#181425"/>
<path d="M389.178 7H386.196V9.21888H389.178V7Z" fill="#181425"/>
<path d="M377.25 7H374.267V9.21888H377.25V7Z" fill="#181425"/>
<path d="M365.185 7H362.203V9.21888H365.185V7Z" fill="#181425"/>
<path d="M353.121 7H350.139V9.21888H353.121V7Z" fill="#181425"/>
<path d="M293.07 7H290.088V9.21888H293.07V7Z" fill="#181425"/>
<path d="M341.192 7H338.21V9.21888H341.192V7Z" fill="#181425"/>
<path d="M329.128 7H326.146V9.21888H329.128V7Z" fill="#181425"/>
<path d="M305.135 7H302.153V9.21888H305.135V7Z" fill="#181425"/>
<path d="M407.207 51.6803H404.225V53.8991H407.207V51.6803Z" fill="#181425"/>
<path d="M395.278 7H392.296V9.21888H395.278V7Z" fill="#181425"/>
<path d="M395.278 51.6803H392.296V53.8991H395.278V51.6803Z" fill="#181425"/>
<path d="M401.243 7H398.26V9.21888H401.243V7Z" fill="#181425"/>
<path d="M383.214 7H380.232V9.21888H383.214V7Z" fill="#181425"/>
<path d="M467.393 7H464.411V9.21888H467.393V7Z" fill="#181425"/>
<path d="M281.006 7H278.024V9.21888H281.006V7Z" fill="#181425"/>
<path d="M467.393 51.6803H464.411V53.8991H467.393V51.6803Z" fill="#181425"/>
<path d="M551.437 7H548.455V9.21888H551.437V7Z" fill="#181425"/>
<path d="M587.494 51.6803H584.512V53.8991H587.494V51.6803Z" fill="#181425"/>
<path d="M575.565 51.6803H572.583V53.8991H575.565V51.6803Z" fill="#181425"/>
<path d="M539.508 7H536.526V9.21888H539.508V7Z" fill="#181425"/>
<path d="M551.437 51.6803H548.455V53.8991H551.437V51.6803Z" fill="#181425"/>
<path d="M563.501 51.6803H560.519V53.8991H563.501V51.6803Z" fill="#181425"/>
<path d="M563.501 7H560.519V9.21888H563.501V7Z" fill="#181425"/>
<path d="M575.565 7H572.583V9.21888H575.565V7Z" fill="#181425"/>
<path d="M584.512 9.21888H581.53V11.4378H584.512V9.21888Z" fill="#181425"/>
<path d="M623.552 51.6803H620.569V53.8991H623.552V51.6803Z" fill="#181425"/>
<path d="M635.616 51.6803H632.634V53.8991H635.616V51.6803Z" fill="#181425"/>
<path d="M527.444 7H524.461V9.21888H527.444V7Z" fill="#181425"/>
<path d="M611.623 51.6803H608.641V53.8991H611.623V51.6803Z" fill="#181425"/>
<path d="M599.558 51.6803H596.576V53.8991H599.558V51.6803Z" fill="#181425"/>
<path d="M521.479 51.6803H518.497V53.8991H521.479V51.6803Z" fill="#181425"/>
<path d="M491.386 7H488.404V9.21888H491.386V7Z" fill="#181425"/>
<path d="M497.351 51.6803H494.368V53.8991H497.351V51.6803Z" fill="#181425"/>
<path d="M503.451 51.6803H500.468V53.8991H503.451V51.6803Z" fill="#181425"/>
<path d="M473.357 7H470.375V9.21888H473.357V7Z" fill="#181425"/>
<path d="M509.415 51.6803H506.433V53.8991H509.415V51.6803Z" fill="#181425"/>
<path d="M479.322 7H476.34V9.21888H479.322V7Z" fill="#181425"/>
<path d="M491.386 51.6803H488.404V53.8991H491.386V51.6803Z" fill="#181425"/>
<path d="M515.379 51.6803H512.397V53.8991H515.379V51.6803Z" fill="#181425"/>
<path d="M527.444 51.6803H524.461V53.8991H527.444V51.6803Z" fill="#181425"/>
<path d="M533.408 51.6803H530.426V53.8991H533.408V51.6803Z" fill="#181425"/>
<path d="M503.451 7H500.468V9.21888H503.451V7Z" fill="#181425"/>
<path d="M515.379 7H512.397V9.21888H515.379V7Z" fill="#181425"/>
<path d="M479.322 51.6803H476.34V53.8991H479.322V51.6803Z" fill="#181425"/>
<path d="M539.508 51.6803H536.526V53.8991H539.508V51.6803Z" fill="#181425"/>
<path d="M626.534 45.0236H623.552V47.2425H626.534V45.0236Z" fill="#181425"/>
<path d="M587.494 33.8283H584.512V36.0472H587.494V33.8283Z" fill="#181425"/>
<path d="M590.476 31.6094H587.494V33.8283H590.476V31.6094Z" fill="#181425"/>
<path d="M590.476 36.0472H587.494V38.2661H590.476V36.0472Z" fill="#181425"/>
<path d="M674.655 9.21888H671.673V11.4378H674.655V9.21888Z" fill="#181425"/>
<path d="M674.655 13.7575H671.673V15.9764H674.655V13.7575Z" fill="#181425"/>
<path d="M674.655 18.1953H671.673V20.4142H674.655V18.1953Z" fill="#181425"/>
<path d="M584.512 27.1717H581.53V29.3906H584.512V27.1717Z" fill="#181425"/>
<path d="M788.792 18.1953H785.81V20.4142H788.792V18.1953Z" fill="#181425"/>
<path d="M788.792 9.21888H785.81V11.4378H788.792V9.21888Z" fill="#181425"/>
<path d="M794.892 49.4614H791.91V51.6803H794.892V49.4614Z" fill="#181425"/>
<path d="M563.501 38.2661H560.519V40.485H563.501V38.2661Z" fill="#181425"/>
<path d="M578.548 22.633H575.565V24.8519H578.548V22.633Z" fill="#181425"/>
<path d="M551.437 38.2661H548.455V40.485H551.437V38.2661Z" fill="#181425"/>
<path d="M794.892 13.7575H791.91V15.9764H794.892V13.7575Z" fill="#181425"/>
<path d="M788.792 27.1717H785.81V29.3906H788.792V27.1717Z" fill="#181425"/>
<path d="M794.892 40.5858H791.91V42.8047H794.892V40.5858Z" fill="#181425"/>
<path d="M503.451 15.9764H500.468V18.1953H503.451V15.9764Z" fill="#181425"/>
<path d="M674.655 40.5858H671.673V42.8047H674.655V40.5858Z" fill="#181425"/>
<path d="M662.591 9.21888H659.609V11.4378H662.591V9.21888Z" fill="#181425"/>
<path d="M674.655 36.0472H671.673V38.2661H674.655V36.0472Z" fill="#181425"/>
<path d="M662.591 13.7575H659.609V15.9764H662.591V13.7575Z" fill="#181425"/>
<path d="M794.892 31.6094H791.91V33.8283H794.892V31.6094Z" fill="#181425"/>
<path d="M794.892 22.633H791.91V24.8519H794.892V22.633Z" fill="#181425"/>
<path d="M440.282 33.8283V31.6094H437.3V29.3906H434.318V31.6094H431.336V33.8283H434.318V36.0472H437.3V33.8283H440.282Z" fill="#181425"/>
<path d="M674.655 22.633H671.673V24.8519H674.655V22.633Z" fill="#181425"/>
<path d="M674.655 27.1717H671.673V29.3906H674.655V27.1717Z" fill="#181425"/>
<path d="M572.448 18.1953H569.465V20.4142H572.448V18.1953Z" fill="#181425"/>
<path d="M515.379 15.9764H512.397V18.1953H515.379V15.9764Z" fill="#181425"/>
<path d="M674.655 31.6094H671.673V33.8283H674.655V31.6094Z" fill="#181425"/>
<path d="M527.444 15.9764H524.461V18.1953H527.444V15.9764Z" fill="#181425"/>
<path d="M536.526 40.5858H533.544V42.8047H536.526V40.5858Z" fill="#181425"/>
<path d="M776.863 27.1717H773.881V29.3906H776.863V27.1717Z" fill="#181425"/>
<path d="M572.448 31.6094H569.465V33.8283H572.448V31.6094Z" fill="#181425"/>
<path d="M776.863 18.1953H773.881V20.4142H776.863V18.1953Z" fill="#181425"/>
<path d="M569.465 29.3906H566.483V31.6094H569.465V29.3906Z" fill="#181425"/>
<path d="M776.863 40.5858H773.881V42.8047H776.863V40.5858Z" fill="#181425"/>
<path d="M563.501 33.8283H560.519V36.0472H563.501V33.8283Z" fill="#181425"/>
<path d="M551.437 33.8283H548.455V36.0472H551.437V33.8283Z" fill="#181425"/>
<path d="M776.863 36.0472H773.881V38.2661H776.863V36.0472Z" fill="#181425"/>
<path d="M770.763 31.6094H767.781V33.8283H770.763V31.6094Z" fill="#181425"/>
<path d="M776.863 45.0236H773.881V47.2425H776.863V45.0236Z" fill="#181425"/>
<path d="M770.763 22.633H767.781V24.8519H770.763V22.633Z" fill="#181425"/>
<path d="M788.792 36.0472H785.81V38.2661H788.792V36.0472Z" fill="#181425"/>
<path d="M770.763 13.7575H767.781V15.9764H770.763V13.7575Z" fill="#181425"/>
<path d="M776.863 49.4614H773.881V51.6803H776.863V49.4614Z" fill="#181425"/>
<path d="M770.763 40.5858H767.781V42.8047H770.763V40.5858Z" fill="#181425"/>
<path d="M782.828 31.6094H779.846V33.8283H782.828V31.6094Z" fill="#181425"/>
<path d="M782.828 49.4614H779.846V51.6803H782.828V49.4614Z" fill="#181425"/>
<path d="M782.828 40.5858H779.846V42.8047H782.828V40.5858Z" fill="#181425"/>
<path d="M782.828 22.633H779.846V24.8519H782.828V22.633Z" fill="#181425"/>
<path d="M788.792 45.0236H785.81V47.2425H788.792V45.0236Z" fill="#181425"/>
<path d="M788.792 49.4614H785.81V51.6803H788.792V49.4614Z" fill="#181425"/>
<path d="M782.828 13.7575H779.846V15.9764H782.828V13.7575Z" fill="#181425"/>
<path d="M776.863 9.21888H773.881V11.4378H776.863V9.21888Z" fill="#181425"/>
<path d="M527.444 20.4142H524.461V22.633H527.444V20.4142Z" fill="#181425"/>
<path d="M539.508 20.4142H536.526V22.633H539.508V20.4142Z" fill="#181425"/>
<path d="M572.448 27.1717H569.465V29.3906H572.448V27.1717Z" fill="#181425"/>
<path d="M566.483 22.633H563.501V24.8519H566.483V22.633Z" fill="#181425"/>
<path d="M503.451 20.4142H500.468V22.633H503.451V20.4142Z" fill="#181425"/>
<path d="M515.379 20.4142H512.397V22.633H515.379V20.4142Z" fill="#181425"/>
<path d="M608.505 36.0472H605.523V38.2661H608.505V36.0472Z" fill="#181425"/>
<path d="M629.651 11.5386H626.669V13.7575H629.651V11.5386Z" fill="#181425"/>
<path d="M515.379 11.5386H512.397V13.7575H515.379V11.5386Z" fill="#181425"/>
<path d="M527.444 11.5386H524.461V13.7575H527.444V11.5386Z" fill="#181425"/>
<path d="M503.451 11.5386H500.468V13.7575H503.451V11.5386Z" fill="#181425"/>
<path d="M818.885 13.7575H815.903V15.9764H818.885V13.7575Z" fill="#181425"/>
<path d="M491.386 11.5386H488.404V13.7575H491.386V11.5386Z" fill="#181425"/>
<path d="M818.885 22.633H815.903V24.8519H818.885V22.633Z" fill="#181425"/>
<path d="M626.534 9.21888H623.552V11.4378H626.534V9.21888Z" fill="#181425"/>
<path d="M824.85 45.0236H821.867V47.2425H824.85V45.0236Z" fill="#181425"/>
<path d="M317.064 7H314.081V9.21888H317.064V7Z" fill="#181425"/>
<path d="M578.548 13.7575H575.565V15.9764H578.548V13.7575Z" fill="#181425"/>
<path d="M596.576 27.1717H593.594V29.3906H596.576V27.1717Z" fill="#181425"/>
<path d="M590.476 22.633H587.494V24.8519H590.476V22.633Z" fill="#181425"/>
<path d="M584.512 18.1953H581.53V20.4142H584.512V18.1953Z" fill="#181425"/>
<path d="M632.634 9.21888H629.651V11.4378H632.634V9.21888Z" fill="#181425"/>
<path d="M842.878 31.6094H839.896V33.8283H842.878V31.6094Z" fill="#181425"/>
<path d="M842.878 49.4614H839.896V51.6803H842.878V49.4614Z" fill="#181425"/>
<path d="M842.878 40.5858H839.896V42.8047H842.878V40.5858Z" fill="#181425"/>
<path d="M626.534 13.7575H623.552V15.9764H626.534V13.7575Z" fill="#181425"/>
<path d="M626.534 18.1953H623.552V20.4142H626.534V18.1953Z" fill="#181425"/>
<path d="M836.914 45.0236H833.932V47.2425H836.914V45.0236Z" fill="#181425"/>
<path d="M842.878 22.633H839.896V24.8519H842.878V22.633Z" fill="#181425"/>
<path d="M842.878 13.7575H839.896V15.9764H842.878V13.7575Z" fill="#181425"/>
<path d="M824.85 36.0472H821.867V38.2661H824.85V36.0472Z" fill="#181425"/>
<path d="M830.949 40.5858H827.967V42.8047H830.949V40.5858Z" fill="#181425"/>
<path d="M632.634 13.7575H629.651V15.9764H632.634V13.7575Z" fill="#181425"/>
<path d="M830.949 49.4614H827.967V51.6803H830.949V49.4614Z" fill="#181425"/>
<path d="M830.949 13.7575H827.967V15.9764H830.949V13.7575Z" fill="#181425"/>
<path d="M830.949 31.6094H827.967V33.8283H830.949V31.6094Z" fill="#181425"/>
<path d="M830.949 22.633H827.967V24.8519H830.949V22.633Z" fill="#181425"/>
<path d="M638.598 9.21888H635.616V11.4378H638.598V9.21888Z" fill="#181425"/>
<path d="M806.821 31.6094H803.839V33.8283H806.821V31.6094Z" fill="#181425"/>
<path d="M662.591 31.6094H659.609V33.8283H662.591V31.6094Z" fill="#181425"/>
<path d="M662.591 27.1717H659.609V29.3906H662.591V27.1717Z" fill="#181425"/>
<path d="M806.821 40.5858H803.839V42.8047H806.821V40.5858Z" fill="#181425"/>
<path d="M650.662 9.21888H647.68V11.4378H650.662V9.21888Z" fill="#181425"/>
<path d="M806.821 13.7575H803.839V15.9764H806.821V13.7575Z" fill="#181425"/>
<path d="M806.821 22.633H803.839V24.8519H806.821V22.633Z" fill="#181425"/>
<path d="M806.821 49.4614H803.839V51.6803H806.821V49.4614Z" fill="#181425"/>
<path d="M812.921 45.0236H809.939V47.2425H812.921V45.0236Z" fill="#181425"/>
<path d="M800.856 36.0472H797.874V38.2661H800.856V36.0472Z" fill="#181425"/>
<path d="M662.591 18.1953H659.609V20.4142H662.591V18.1953Z" fill="#181425"/>
<path d="M800.856 27.1717H797.874V29.3906H800.856V27.1717Z" fill="#181425"/>
<path d="M662.591 22.633H659.609V24.8519H662.591V22.633Z" fill="#181425"/>
<path d="M800.856 18.1953H797.874V20.4142H800.856V18.1953Z" fill="#181425"/>
<path d="M650.662 18.1953H647.68V20.4142H650.662V18.1953Z" fill="#181425"/>
<path d="M812.921 36.0472H809.939V38.2661H812.921V36.0472Z" fill="#181425"/>
<path d="M551.437 42.8047H548.455V45.0236H551.437V42.8047Z" fill="#181425"/>
<path d="M575.565 42.8047H572.583V45.0236H575.565V42.8047Z" fill="#181425"/>
<path d="M563.501 42.8047H560.519V45.0236H563.501V42.8047Z" fill="#181425"/>
<path d="M800.856 45.0236H797.874V47.2425H800.856V45.0236Z" fill="#181425"/>
<path d="M608.505 40.5858H605.523V42.8047H608.505V40.5858Z" fill="#181425"/>
<path d="M605.523 38.2661H602.541V40.485H605.523V38.2661Z" fill="#181425"/>
<path d="M650.662 22.633H647.68V24.8519H650.662V22.633Z" fill="#181425"/>
<path d="M812.921 27.1717H809.939V29.3906H812.921V27.1717Z" fill="#181425"/>
<path d="M650.662 13.7575H647.68V15.9764H650.662V13.7575Z" fill="#181425"/>
<path d="M818.885 31.6094H815.903V33.8283H818.885V31.6094Z" fill="#181425"/>
<path d="M818.885 49.4614H815.903V51.6803H818.885V49.4614Z" fill="#181425"/>
<path d="M638.598 13.7575H635.616V15.9764H638.598V13.7575Z" fill="#181425"/>
<path d="M818.885 40.5858H815.903V42.8047H818.885V40.5858Z" fill="#181425"/>
<path d="M692.684 45.0236H689.702V47.2425H692.684V45.0236Z" fill="#181425"/>
<path d="M596.576 31.6094H593.594V33.8283H596.576V31.6094Z" fill="#181425"/>
<path d="M593.594 29.3906H590.612V31.6094H593.594V29.3906Z" fill="#181425"/>
<path d="M590.476 27.1717H587.494V29.3906H590.476V27.1717Z" fill="#181425"/>
<path d="M599.558 33.8283H596.576V36.0472H599.558V33.8283Z" fill="#181425"/>
<path d="M395.278 13.7575V15.9764H398.26V18.1953H401.243V15.9764H404.225V13.7575H401.243V11.5386H398.26V13.7575H395.278Z" fill="#181425"/>
<path d="M602.541 40.5858H599.558V42.8047H602.541V40.5858Z" fill="#181425"/>
<path d="M602.541 36.0472H599.558V38.2661H602.541V36.0472Z" fill="#181425"/>
<path d="M572.448 13.7575H569.465V15.9764H572.448V13.7575Z" fill="#181425"/>
<path d="M584.512 22.633H581.53V24.8519H584.512V22.633Z" fill="#181425"/>
<path d="M596.576 40.5858H593.594V42.8047H596.576V40.5858Z" fill="#181425"/>
<path d="M566.483 13.7575H563.501V15.9764H566.483V13.7575Z" fill="#181425"/>
<path d="M575.565 15.9764H572.583V18.1953H575.565V15.9764Z" fill="#181425"/>
<path d="M581.53 20.4142H578.548V22.633H581.53V20.4142Z" fill="#181425"/>
<path d="M578.548 18.1953H575.565V20.4142H578.548V18.1953Z" fill="#181425"/>
<path d="M572.448 40.5858H569.465V42.8047H572.448V40.5858Z" fill="#181425"/>
<path d="M557.537 38.2661H554.554V40.485H557.537V38.2661Z" fill="#181425"/>
<path d="M560.519 40.5858H557.537V42.8047L560.519 42.8047V40.5858Z" fill="#181425"/>
<path d="M566.483 40.5858H563.501V42.8047L566.483 42.8047V40.5858Z" fill="#181425"/>
<path d="M554.419 40.5858H551.437V42.8047L554.419 42.8047V40.5858Z" fill="#181425"/>
<path d="M545.472 38.2661H542.49V40.485H545.472V38.2661Z" fill="#181425"/>
<path d="M569.465 38.2661H566.483V40.485H569.465V38.2661Z" fill="#181425"/>
<path d="M548.455 40.5858H545.472V42.8047L548.455 42.8047V40.5858Z" fill="#181425"/>
<path d="M581.53 38.2661H578.548V40.485H581.53V38.2661Z" fill="#181425"/>
<path d="M590.476 40.5858H587.494V42.8047H590.476V40.5858Z" fill="#181425"/>
<path d="M593.594 38.2661H590.612V40.485H593.594V38.2661Z" fill="#181425"/>
<path d="M563.501 15.9764H560.519V18.1953H563.501V15.9764Z" fill="#181425"/>
<path d="M584.512 40.5858H581.53V42.8047H584.512V40.5858Z" fill="#181425"/>
<path d="M578.548 40.5858H575.565V42.8047L578.548 42.8047V40.5858Z" fill="#181425"/>
<path d="M596.576 36.0472H593.594V38.2661H596.576V36.0472Z" fill="#181425"/>
<path d="M506.433 13.7575H503.451V15.9764H506.433V13.7575Z" fill="#181425"/>
<path d="M455.329 11.5386H452.347V13.7575H455.329V11.5386Z" fill="#181425"/>
<path d="M482.44 13.7575H479.457V15.9764H482.44V13.7575Z" fill="#181425"/>
<path d="M449.364 11.5386H446.382V13.7575H449.364V11.5386Z" fill="#181425"/>
<path d="M560.519 13.7575H557.537V15.9764H560.519V13.7575Z" fill="#181425"/>
<path d="M479.322 11.5386H476.34V13.7575H479.322V11.5386Z" fill="#181425"/>
<path d="M473.357 11.5386H470.375V13.7575H473.357V11.5386Z" fill="#181425"/>
<path d="M467.393 11.5386H464.411V13.7575H467.393V11.5386Z" fill="#181425"/>
<path d="M461.293 11.5386H458.311V13.7575H461.293V11.5386Z" fill="#181425"/>
<path d="M407.343 13.7575V15.9764H410.325V18.1953H413.307V15.9764H416.289V13.7575H413.307V11.5386H410.325V13.7575H407.343Z" fill="#181425"/>
<path d="M407.207 11.5386H404.225V13.7575H407.207V11.5386Z" fill="#181425"/>
<path d="M419.271 11.5386H416.289V13.7575H419.271V11.5386Z" fill="#181425"/>
<path d="M431.336 13.7575V15.9764H434.318V18.1953H437.3V15.9764H440.282V13.7575H437.3V11.5386H434.318V13.7575H431.336Z" fill="#181425"/>
<path d="M419.271 13.7575V15.9764H422.254V18.1953H425.371V15.9764H428.354V13.7575H425.371V11.5386H422.254V13.7575H419.271Z" fill="#181425"/>
<path d="M431.336 11.5386H428.354V13.7575H431.336V11.5386Z" fill="#181425"/>
<path d="M443.264 11.5386H440.282V13.7575H443.264V11.5386Z" fill="#181425"/>
<path d="M539.508 15.9764H536.526V18.1953H539.508V15.9764Z" fill="#181425"/>
<path d="M488.404 13.7575H485.422V15.9764H488.404V13.7575Z" fill="#181425"/>
<path d="M536.526 13.7575H533.544V15.9764H536.526V13.7575Z" fill="#181425"/>
<path d="M548.455 13.7575H545.472V15.9764H548.455V13.7575Z" fill="#181425"/>
<path d="M530.426 13.7575H527.444V15.9764H530.426V13.7575Z" fill="#181425"/>
<path d="M554.419 13.7575H551.437V15.9764H554.419V13.7575Z" fill="#181425"/>
<path d="M551.437 15.9764H548.455V18.1953H551.437V15.9764Z" fill="#181425"/>
<path d="M542.49 13.7575H539.508V15.9764H542.49V13.7575Z" fill="#181425"/>
<path d="M542.49 40.5858H539.508V42.8047H542.49V40.5858Z" fill="#181425"/>
<path d="M500.468 13.7575H497.486V15.9764H500.468V13.7575Z" fill="#181425"/>
<path d="M524.461 13.7575H521.479V15.9764H524.461V13.7575Z" fill="#181425"/>
<path d="M494.368 13.7575H491.386V15.9764H494.368V13.7575Z" fill="#181425"/>
<path d="M518.497 13.7575H515.515V15.9764H518.497V13.7575Z" fill="#181425"/>
<path d="M512.397 13.7575H509.415V15.9764H512.397V13.7575Z" fill="#181425"/>
<path d="M587.494 24.9528H584.512V27.1717H587.494V24.9528Z" fill="#181425"/>
<path d="M428.354 18.1953H425.371V20.4142H428.354V18.1953Z" fill="#181425"/>
<path d="M410.325 18.1953H407.343V20.4142H410.325V18.1953Z" fill="#181425"/>
<path d="M413.307 49.4614V47.2425H410.325V49.4614H407.343V51.6803H410.325V54H413.307V51.6803H416.289V49.4614H413.307Z" fill="#181425"/>
<path d="M425.371 49.4614V47.2425H422.254V49.4614H419.271V51.6803H422.254V54H425.371V51.6803H428.354V49.4614H425.371Z" fill="#181425"/>
<path d="M437.3 49.4614V47.2425H434.318V49.4614H431.336V51.6803H434.318V54H437.3V51.6803H440.282V49.4614H437.3Z" fill="#181425"/>
<path d="M419.271 15.9764H416.289V18.1953H419.271V15.9764Z" fill="#181425"/>
<path d="M422.254 18.1953H419.271V20.4142H422.254V18.1953Z" fill="#181425"/>
<path d="M416.289 18.1953H413.307V20.4142H416.289V18.1953Z" fill="#181425"/>
<path d="M398.26 18.1953H395.278V20.4142H398.26V18.1953Z" fill="#181425"/>
<path d="M395.278 15.9764H392.296V18.1953H395.278V15.9764Z" fill="#181425"/>
<path d="M389.314 49.4614V47.2425H386.332V49.4614H383.35V47.2425H386.332V45.0236H383.35V42.8047H380.367V45.0236H377.385V47.2425H380.367V49.4614H377.385V47.2425H374.403V49.4614H371.421V47.2425H374.403V45.0236H371.421V42.8047H374.403V45.0236H377.385V42.8047H380.367V40.5858H377.385V38.367H374.403V40.5858H371.421V38.367H374.403V36.1481H371.421V33.9292H368.439V36.1481H365.456V38.367H368.439V40.5858H365.456V38.367H362.474V40.5858H359.492V38.367H362.474V36.1481H359.492V33.9292H362.474V36.1481H365.456V33.9292H368.439V31.7103H365.456V29.4914H362.474V31.7103H359.492V29.4914H362.474V27.2725H359.492V25.0536H356.239V27.2725H353.256V29.4914H356.239V31.7103H353.256V29.4914H350.274V31.7103H347.292V29.4914H350.274V27.2725H347.292V25.0536H350.274V27.2725H353.256V25.0536H356.239V22.8348H353.256V20.6159H350.274V22.8348H347.292V20.6159H350.274V18.1953H347.292V15.9764H344.31V18.1953H341.328V20.4142H344.31V22.633H341.328V20.4142H338.346V22.633H335.363V20.4142H338.346V18.1953H335.363V15.9764H338.346V18.1953H341.328V15.9764H344.31V13.7575H341.328V11.5386H338.346V13.7575H335.363V11.5386H338.346V9.31974H335.363V7H332.381V9.21888H329.128V11.4378H332.11V13.6567H329.128V11.4378H326.146V13.6567H323.163V11.4378H326.146V9.21888H323.163V7H320.181V9.21888H317.199V11.4378H320.181V13.6567H317.199V11.4378H314.217V13.6567H311.235V11.4378H314.217V9.21888H311.235V7H308.253V9.21888H305.27V11.4378H308.253V13.6567H305.27V11.4378H302.288V13.6567H299.306V11.4378H302.288V9.21888H299.306V7H296.324V9.21888H293.342V11.4378H296.324V13.6567H293.342V11.4378H290.359V13.6567H287.106V11.4378H290.088V9.21888H287.106V7H284.124V9.21888H281.142V11.4378H284.124V13.6567H281.142V11.4378H278.159V13.6567H275.177V11.4378H278.159V9.21888H275.177V7H272.195V9.21888H269.213V7H266.231V9.21888H263.249V7H260.266V9.21888H257.284V7H254.302V9.21888H251.32V7H248.338V9.21888H245.084V7H242.102V9.21888H239.12V7H236.138V9.21888H233.155V7H230.173V9.21888H227.191V7C223.802 7 221.498 7 218.245 7V9.21888H215.262V7H212.28V9.21888H209.298V7H206.316V9.21888H203.334V7H200.351V9.21888H197.369V7H194.387V9.21888H191.405V7H188.423V9.21888H185.44V7H182.458V9.21888H179.476V7H175.952V9.21888H172.969V7H169.987V9.21888H167.005V7C163.616 7 161.312 7 158.058 7V9.21888H155.076V7C151.687 7 149.383 7 146.13 7V9.21888H143.148V7C139.623 7 137.183 7 134.201 7V9.21888H131.219V7C127.83 7 125.525 7 122.272 7V9.21888H119.29V7C115.766 7 113.326 7 110.343 7V9.21888H106.819V7C103.295 7 100.855 7 97.8724 7V9.21888H94.8902V7C91.5014 7 89.197 7 85.9437 7V9.21888H82.9615V7C79.5726 7 77.2682 7 74.0149 7V9.21888H71.0327V7C48.5307 7 33.7553 7 8 7V53.8991C82.0126 53.8991 84.7237 53.8991 131.219 53.8991V51.6803H134.201V53.8991C137.59 53.8991 139.894 53.8991 143.148 53.8991V51.6803H146.13V53.8991C149.519 53.8991 151.823 53.8991 155.076 53.8991V51.6803H158.058V53.8991C161.447 53.8991 163.752 53.8991 167.005 53.8991V51.6803H169.987V53.8991C173.376 53.8991 175.681 53.8991 178.934 53.8991V51.6803H181.916V53.8991C185.305 53.8991 187.609 53.8991 190.863 53.8991V51.6803H193.845V53.8991C197.234 53.8991 199.538 53.8991 202.791 53.8991V51.6803H205.774V53.8991C209.298 53.8991 211.738 53.8991 214.72 53.8991V51.6803H217.702V53.8991C221.091 53.8991 223.396 53.8991 226.649 53.8991V51.6803H229.631V53.8991H232.613V51.6803H235.595V53.8991H238.578V51.6803H241.56V53.8991H244.542V51.6803H247.524V53.8991H250.506V51.6803H253.489V53.8991H256.471V51.6803H259.453V53.8991H262.435V51.6803H265.417V53.8991H268.4V51.6803H271.382V53.8991H274.364V51.6803H277.346V53.8991H280.328V51.6803H283.311V53.8991H286.293V51.6803H289.275V53.8991H292.257V51.6803H295.239V53.8991H298.221V51.6803H301.204V53.8991H304.186V51.6803H307.168V53.8991H310.15V51.6803H313.132V53.8991H316.115V51.6803H319.097V53.8991H322.079V51.6803H325.061V53.8991H328.043V51.6803H331.026V53.8991H334.008V51.6803H336.99V53.8991H339.972V51.6803H342.954V53.8991H345.937V51.6803H348.919V53.8991H351.901V51.6803H354.883V53.8991H357.865V51.6803H360.848V53.8991H363.83V51.6803H366.812V53.8991H369.794V51.6803H372.776V53.8991H375.758V51.6803H378.741V53.8991H381.723V51.6803H384.705V53.8991H387.687V51.6803H390.669V49.4614H389.314ZM85.8081 18.1953H82.8259V15.9764H85.8081V18.1953ZM97.8724 27.1717H94.8902V24.9528H97.8724V27.1717ZM97.8724 18.1953H94.8902V15.9764H97.8724V18.1953ZM109.801 36.0472H106.819V33.8283H109.801V36.0472ZM109.801 27.1717H106.819V24.9528H109.801V27.1717ZM109.801 18.1953H106.819V15.9764H109.801V18.1953ZM121.866 45.0236H118.883V42.8047H121.866V45.0236ZM121.866 36.0472H118.883V33.8283H121.866V36.0472ZM121.866 27.1717H118.883V24.9528H121.866V27.1717ZM121.866 18.1953H118.883V15.9764H121.866V18.1953ZM133.93 45.0236H130.948V42.8047H133.93V45.0236ZM133.93 36.0472H130.948V33.8283H133.93V36.0472ZM133.93 27.1717H130.948V24.9528H133.93V27.1717ZM133.93 18.1953H130.948V15.9764H133.93V18.1953ZM139.894 13.7575H136.912V11.5386H139.894V13.7575ZM145.859 45.0236H142.876V42.8047H145.859V45.0236ZM145.859 36.0472H142.876V33.8283H145.859V36.0472ZM145.859 27.1717H142.876V24.9528H145.859V27.1717ZM145.859 18.1953H142.876V15.9764H145.859V18.1953ZM151.959 22.633H148.841V20.4142H151.823V22.633H151.959ZM151.959 13.7575H148.841V11.5386H151.823V13.7575H151.959ZM157.923 45.0236H154.941V42.8047H157.923V45.0236ZM157.923 36.0472H154.941V33.8283H157.923V36.0472ZM157.923 27.1717H154.941V24.9528H157.923V27.1717ZM157.923 18.1953H154.941V15.9764H157.923V18.1953ZM163.887 31.6094H160.905V29.3906H163.887V31.6094ZM163.887 22.633H160.905V20.4142H163.887V22.633ZM163.887 13.7575H160.905V11.5386H163.887V13.7575ZM169.987 45.0236H167.005V42.8047H169.987V45.0236ZM169.987 36.0472H167.005V33.8283H169.987V36.0472ZM169.987 27.1717H167.005V24.9528H169.987V27.1717ZM169.987 18.1953H167.005V15.9764H169.987V18.1953ZM175.952 40.5858H172.969V38.367H175.952V40.5858ZM175.952 31.6094H172.969V29.3906H175.952V31.6094ZM175.952 22.633H172.969V20.4142H175.952V22.633ZM175.952 13.7575H172.969V11.5386H175.952V13.7575ZM181.916 45.0236H178.934V42.8047H181.916V45.0236ZM181.916 36.0472H178.934V33.8283H181.916V36.0472ZM181.916 27.1717H178.934V24.9528H181.916V27.1717ZM181.916 18.1953H178.934V15.9764H181.916V18.1953ZM188.016 49.4614H185.034V47.2425H188.016V49.4614ZM188.016 40.5858H185.034V38.367H188.016V40.5858ZM188.016 31.6094H185.034V29.3906H188.016V31.6094ZM188.016 22.633H185.034V20.4142H188.016V22.633ZM188.016 18.1953H185.034V15.9764H188.016V18.1953ZM188.016 13.7575H185.034V11.5386H188.016V13.7575ZM193.98 45.0236H190.998V42.8047H193.98V45.0236ZM193.98 36.0472H190.998V33.8283H193.98V36.0472ZM193.98 27.1717H190.998V24.9528H193.98V27.1717ZM193.98 18.1953H190.998V15.9764H193.98V18.1953ZM199.945 49.4614H196.963V47.2425H199.945V49.4614ZM199.945 40.5858H196.963V38.367H199.945V40.5858ZM199.945 31.6094H196.963V29.3906H199.945V31.6094ZM199.945 27.1717H196.963V24.9528H199.945V27.1717ZM199.945 22.633H196.963V20.4142H199.945V22.633ZM199.945 18.1953H196.963V15.9764H199.945V18.1953ZM199.945 13.7575H196.963V11.5386H199.945V13.7575ZM206.045 45.0236H203.062V42.8047H206.045V45.0236ZM206.045 36.0472H203.062V33.8283H206.045V36.0472ZM206.045 27.1717H203.062V24.9528H206.045V27.1717ZM206.045 18.1953H203.062V15.9764H206.045V18.1953ZM212.009 49.4614H209.027V47.2425H212.009V49.4614ZM212.009 40.5858H209.027V38.367H212.009V40.5858ZM212.009 36.0472H209.027V33.8283H212.009V36.0472ZM212.009 31.6094H209.027V29.3906H212.009V31.6094ZM212.009 27.1717H209.027V24.9528H212.009V27.1717ZM212.009 22.633H209.027V20.4142H212.009V22.633ZM212.009 18.1953H209.027V15.9764H212.009V18.1953ZM212.009 13.7575H209.027V11.5386H212.009V13.7575ZM217.973 45.0236H214.991V42.8047H217.973V45.0236ZM217.973 36.0472H214.991V33.8283H217.973V36.0472ZM217.973 27.1717H214.991V24.9528H217.973V27.1717ZM217.973 18.1953H214.991V15.9764H217.973V18.1953ZM224.073 49.4614H221.091V47.2425H224.073V49.4614ZM224.073 45.0236H221.091V42.8047H224.073V45.0236ZM224.073 40.5858H221.091V38.367H224.073V40.5858ZM224.073 36.0472H221.091V33.8283H224.073V36.0472ZM224.073 31.6094H221.091V29.3906H224.073V31.6094ZM224.073 27.1717H221.091V24.9528H224.073V27.1717ZM224.073 22.633H221.091V20.4142H224.073V22.633ZM224.073 18.1953H221.091V15.9764H224.073V18.1953ZM224.073 13.7575H221.091V11.5386H224.073V13.7575ZM230.038 45.0236H227.056V42.8047H230.038V45.0236ZM230.038 36.0472H227.056V33.8283H230.038V36.0472ZM230.038 27.1717H227.056V24.9528H230.038V27.1717ZM230.038 18.1953H227.056V15.9764H230.038V18.1953ZM236.002 49.4614H233.02V47.2425H236.002V49.4614ZM236.002 45.0236H233.02V42.8047H236.002V45.0236ZM236.002 40.5858H233.02V38.367H236.002V40.5858ZM236.002 36.0472H233.02V33.8283H236.002V36.0472ZM236.002 31.6094H233.02V29.3906H236.002V31.6094ZM236.002 27.1717H233.02V24.9528H236.002V27.1717ZM236.002 22.633H233.02V20.4142H236.002V22.633ZM236.002 18.1953H233.02V15.9764H236.002V18.1953ZM236.002 13.7575H233.02V11.5386H236.002V13.7575ZM242.102 45.0236H239.12V42.8047H242.102V45.0236ZM242.102 36.0472H239.12V33.8283H242.102V36.0472ZM242.102 27.1717H239.12V24.9528H242.102V27.1717ZM242.102 18.1953H239.12V15.9764H242.102V18.1953ZM242.102 13.7575H239.12V11.5386H242.102V13.7575ZM248.066 49.4614H245.084V47.2425H248.066V49.4614ZM248.066 45.0236H245.084V42.8047H248.066V45.0236ZM248.066 40.5858H245.084V38.367H248.066V40.5858ZM248.066 36.0472H245.084V33.8283H248.066V36.0472ZM248.066 31.6094H245.084V29.3906H248.066V31.6094ZM248.066 27.1717H245.084V24.9528H248.066V27.1717ZM248.066 22.633H245.084V20.4142H248.066V22.633ZM248.066 18.1953H245.084V15.9764H248.066V18.1953ZM248.066 13.7575H245.084V11.5386H248.066V13.7575ZM254.031 45.0236H251.049V42.8047H254.031V45.0236ZM254.031 36.0472H251.049V33.8283H254.031V36.0472ZM254.031 27.1717H251.049V24.9528H254.031V27.1717ZM254.031 22.633H251.049V20.4142H254.031V22.633ZM254.031 18.1953H251.049V15.9764H254.031V18.1953ZM254.031 13.7575H251.049V11.5386H254.031V13.7575ZM260.131 49.4614H257.149V47.2425H260.131V49.4614ZM260.131 45.0236H257.149V42.8047H260.131V45.0236ZM260.131 40.5858H257.149V38.367H260.131V40.5858ZM260.131 36.0472H257.149V33.8283H260.131V36.0472ZM260.131 31.6094H257.149V29.3906H260.131V31.6094ZM260.131 27.1717H257.149V24.9528H260.131V27.1717ZM260.131 22.633H257.149V20.4142H260.131V22.633ZM260.131 18.1953H257.149V15.9764H260.131V18.1953ZM260.131 13.7575H257.149V11.5386H260.131V13.7575ZM266.095 45.0236H263.113V42.8047H266.095V45.0236ZM266.095 36.0472H263.113V33.8283H266.095V36.0472ZM266.095 31.6094H263.113V29.3906H266.095V31.6094ZM266.095 27.1717H263.113V24.9528H266.095V27.1717ZM266.095 22.633H263.113V20.4142H266.095V22.633ZM266.095 18.1953H263.113V15.9764H266.095V18.1953ZM266.095 13.7575H263.113V11.5386H266.095V13.7575ZM272.06 49.4614H269.077V47.2425H272.06V49.4614ZM272.06 45.0236H269.077V42.8047H272.06V45.0236ZM272.06 40.5858H269.077V38.367H272.06V40.5858ZM272.06 36.0472H269.077V33.8283H272.06V36.0472ZM272.06 31.6094H269.077V29.3906H272.06V31.6094ZM272.06 27.1717H269.077V24.9528H272.06V27.1717ZM272.06 22.633H269.077V20.4142H272.06V22.633ZM272.06 18.1953H269.077V15.9764H272.06V18.1953ZM272.06 13.7575H269.077V11.5386H272.06V13.7575ZM278.024 45.0236H275.042V42.8047H278.024V45.0236ZM278.024 40.5858H275.042V38.367H278.024V40.5858ZM278.024 36.0472H275.042V33.8283H278.024V36.0472ZM278.024 31.6094H275.042V29.3906H278.024V31.6094ZM278.024 27.1717H275.042V24.9528H278.024V27.1717ZM278.024 22.633H275.042V20.4142H278.024V22.633ZM278.024 18.1953H275.042V15.9764H278.024V18.1953ZM284.124 49.4614H281.142V47.2425H284.124V49.4614ZM284.124 45.0236H281.142V42.8047H284.124V45.0236ZM284.124 40.5858H281.142V38.367H284.124V40.5858ZM284.124 36.0472H281.142V33.8283H284.124V36.0472ZM284.124 31.6094H281.142V29.3906H284.124V31.6094ZM284.124 27.1717H281.142V24.9528H284.124V27.1717ZM284.124 22.633H281.142V20.4142H284.124V22.633ZM284.124 18.1953H281.142V15.9764H284.124V18.1953ZM290.088 49.4614H287.106V47.2425H290.088V49.4614ZM290.088 45.0236H287.106V42.8047H290.088V45.0236ZM290.088 40.5858H287.106V38.367H290.088V40.5858ZM290.088 36.0472H287.106V33.8283H290.088V36.0472ZM290.088 31.6094H287.106V29.3906H290.088V31.6094ZM290.088 27.1717H287.106V24.9528H290.088V27.1717ZM296.053 49.4614H293.07V47.2425H296.053V49.4614ZM296.053 45.0236H293.07V42.8047H296.053V45.0236ZM296.053 40.5858H293.07V38.367H296.053V40.5858ZM296.053 36.0472H293.07V33.8283H296.053V36.0472ZM296.053 31.6094H293.07V29.3906H296.053V31.6094ZM296.053 27.1717H293.07V24.9528H296.053V27.1717ZM296.053 18.1953H293.07V20.4142H296.053V22.633H293.07V20.4142H290.088V22.633H287.106V20.4142H290.088V18.1953H287.106V15.9764H290.088V18.1953H293.07V15.9764H296.053V18.1953ZM302.153 49.4614H299.17V47.2425H302.153V49.4614ZM302.153 45.0236H299.17V42.8047H302.153V45.0236ZM302.153 40.5858H299.17V38.367H302.153V40.5858ZM302.153 36.0472H299.17V33.8283H302.153V36.0472ZM308.117 49.4614H305.135V47.2425H308.117V49.4614ZM308.117 45.0236H305.135V42.8047H308.117V45.0236ZM308.117 40.5858H305.135V38.367H308.117V40.5858ZM308.117 36.0472H305.135V33.8283H308.117V36.0472ZM308.117 27.1717H305.135V29.3906H308.117V31.6094H305.135V29.3906H302.153V31.6094H299.17V29.3906H302.153V27.1717H299.17V24.9528H302.153V27.1717H305.135V24.9528H308.117V27.1717ZM308.117 18.1953H305.135V20.4142H308.117V22.633H305.135V20.4142H302.153V22.633H299.17V20.4142H302.153V18.1953H299.17V15.9764H302.153V18.1953H305.135V15.9764H308.117V18.1953ZM314.081 49.4614H311.099V47.2425H314.081V49.4614ZM314.081 45.0236H311.099V42.8047H314.081V45.0236ZM320.181 49.4614H317.199V47.2425H320.181V49.4614ZM320.181 45.0236H317.199V42.8047H320.181V45.0236ZM320.181 36.0472H317.199V38.2661H320.181V40.485H317.199V38.2661H314.217V40.485H311.235V38.2661H314.217V36.0472H311.235V33.8283H314.217V36.0472H317.199V33.8283H320.181V36.0472ZM320.181 27.1717H317.199V29.3906H320.181V31.6094H317.199V29.3906H314.217V31.6094H311.235V29.3906H314.217V27.1717H311.235V24.9528H314.217V27.1717H317.199V24.9528H320.181V27.1717ZM320.181 18.1953H317.199V20.4142H320.181V22.633H317.199V20.4142H314.217V22.633H311.235V20.4142H314.217V18.1953H311.235V15.9764H314.217V18.1953H317.199V15.9764H320.181V18.1953ZM332.11 45.0236H329.128V47.2425H332.11V49.4614H329.128V47.2425H326.146V49.4614H323.163V47.2425H326.146V45.0236H323.163V42.8047H326.146V45.0236H329.128V42.8047H332.11V45.0236ZM332.11 36.0472H329.128V38.2661H332.11V40.485H329.128V38.2661H326.146V40.485H323.163V38.2661H326.146V36.0472H323.163V33.8283H326.146V36.0472H329.128V33.8283H332.11V36.0472ZM332.11 27.1717H329.128V29.3906H332.11V31.6094H329.128V29.3906H326.146V31.6094H323.163V29.3906H326.146V27.1717H323.163V24.9528H326.146V27.1717H329.128V24.9528H332.11V27.1717ZM332.11 18.1953H329.128V20.4142H332.11V22.633H329.128V20.4142H326.146V22.633H323.163V20.4142H326.146V18.1953H323.163V15.9764H326.146V18.1953H329.128V15.9764H332.11V18.1953ZM344.174 45.0236H341.192V47.2425H344.174V49.4614H341.192V47.2425H338.21V49.4614H335.228V47.2425H338.21V45.0236H335.228V42.8047H338.21V45.0236H341.192V42.8047H344.174V45.0236ZM344.174 36.0472H341.192V38.2661H344.174V40.485H341.192V38.2661H338.21V40.485H335.228V38.2661H338.21V36.0472H335.228V33.8283H338.21V36.0472H341.192V33.8283H344.174V36.0472ZM344.174 27.1717H341.192V29.3906H344.174V31.6094H341.192V29.3906H338.21V31.6094H335.228V29.3906H338.21V27.1717H335.228V24.9528H338.21V27.1717H341.192V24.9528H344.174V27.1717ZM356.239 45.0236H353.256V47.2425H356.239V49.4614H353.256V47.2425H350.274V49.4614H347.292V47.2425H350.274V45.0236H347.292V42.8047H350.274V45.0236H353.256V42.8047H356.239V45.0236ZM356.239 36.0472H353.256V38.2661H356.239V40.485H353.256V38.2661H350.274V40.485H347.292V38.2661H350.274V36.0472H347.292V33.8283H350.274V36.0472H353.256V33.8283H356.239V36.0472ZM368.167 45.0236H365.185V47.2425H368.167V49.4614H365.185V47.2425H362.203V49.4614H359.221V47.2425H362.203V45.0236H359.221V42.8047H362.203V45.0236H365.185V42.8047H368.167V45.0236Z" fill="#181425"/>
<path d="M404.225 18.1953H401.243V20.4142H404.225V18.1953Z" fill="#181425"/>
<path d="M401.243 49.4614V47.2425H398.26V49.4614H395.278V51.6803H398.26V54H401.243V51.6803H404.225V49.4614H401.243Z" fill="#181425"/>
<path d="M392.296 18.1953H389.314V20.4142H392.296V18.1953Z" fill="#181425"/>
<path d="M407.207 15.9764H404.225V18.1953H407.207V15.9764Z" fill="#181425"/>
<path d="M458.311 13.7575H455.329V15.9764H458.311V13.7575Z" fill="#181425"/>
<path d="M485.422 49.4614V47.2425H482.44V49.4614H479.457V51.6803H482.44V54H485.422V51.6803H488.404V49.4614H485.422Z" fill="#181425"/>
<path d="M452.347 13.7575H449.364V15.9764H452.347V13.7575Z" fill="#181425"/>
<path d="M464.411 13.7575H461.429V15.9764H464.411V13.7575Z" fill="#181425"/>
<path d="M494.368 49.4614H491.386V51.6803H494.368V49.4614Z" fill="#181425"/>
<path d="M473.357 49.4614V47.2425H470.375V49.4614H467.393V51.6803H470.375V54H473.357V51.6803H476.34V49.4614H473.357Z" fill="#181425"/>
<path d="M431.336 15.9764H428.354V18.1953H431.336V15.9764Z" fill="#181425"/>
<path d="M470.375 13.7575H467.393V15.9764H470.375V13.7575Z" fill="#181425"/>
<path d="M434.318 18.1953H431.336V20.4142H434.318V18.1953Z" fill="#181425"/>
<path d="M440.282 18.1953H437.3V20.4142H440.282V18.1953Z" fill="#181425"/>
<path d="M449.364 49.4614V47.2425H446.382V49.4614H443.4V51.6803H446.382V54H449.364V51.6803H452.347V49.4614H449.364Z" fill="#181425"/>
<path d="M446.382 13.7575H443.4V15.9764H446.382V13.7575Z" fill="#181425"/>
<path d="M443.264 15.9764H440.282V18.1953H443.264V15.9764Z" fill="#181425"/>
<path d="M461.429 49.4614V47.2425H458.311V49.4614H455.329V51.6803H458.311V54H461.429V51.6803H464.411V49.4614H461.429Z" fill="#181425"/>
<path d="M476.34 42.8047V40.5858H473.357V38.2661H470.375V40.5858H467.393V42.8047H470.375V45.0236H473.357V42.8047H476.34Z" fill="#181425"/>
<path d="M491.386 42.8047H488.404V45.0236H491.386V42.8047Z" fill="#181425"/>
<path d="M485.422 42.8047H482.44V45.0236H485.422V42.8047Z" fill="#181425"/>
<path d="M380.232 20.4142V22.633H383.214V20.4142H386.196V18.1953H383.214V15.9764H380.232V18.1953H377.25V20.4142H380.232Z" fill="#181425"/>
<path d="M479.322 42.8047H476.34V45.0236H479.322V42.8047Z" fill="#181425"/>
<path d="M467.393 42.8047H464.411V45.0236H467.393V42.8047Z" fill="#181425"/>
<path d="M539.508 42.8047H536.526V45.0236H539.508V42.8047Z" fill="#181425"/>
<path d="M500.468 45.0236H497.486V47.2425H500.468V45.0236Z" fill="#181425"/>
<path d="M464.411 42.8047V40.5858H461.429V38.2661H458.311V40.5858H455.329V42.8047H458.311V45.0236H461.429V42.8047H464.411Z" fill="#181425"/>
<path d="M530.426 45.0236H527.444V47.2425H530.426V45.0236Z" fill="#181425"/>
<path d="M536.526 45.0236H533.544V47.2425H536.526V45.0236Z" fill="#181425"/>
<path d="M524.461 45.0236H521.479V47.2425H524.461V45.0236Z" fill="#181425"/>
<path d="M518.497 45.0236H515.515V47.2425H518.497V45.0236Z" fill="#181425"/>
<path d="M512.397 45.0236H509.415V47.2425H512.397V45.0236Z" fill="#181425"/>
<path d="M506.433 45.0236H503.451V47.2425H506.433V45.0236Z" fill="#181425"/>
<path d="M494.368 45.0236H491.386V47.2425H494.368V45.0236Z" fill="#181425"/>
<path d="M389.314 33.8283H392.296V31.6094H389.314V29.3906H386.196V31.6094H383.214V33.8283H386.196V36.0472H389.314V33.8283Z" fill="#181425"/>
<path d="M395.278 38.2661H398.26V36.0472H395.278V33.8283H392.296V36.0472H389.314V38.2661H392.296V40.5858H395.278V38.2661Z" fill="#181425"/>
<path d="M383.214 29.3906H386.196V27.1717H383.214V24.9528H380.232V27.1717H377.25V29.3906H380.232V31.6094H383.214V29.3906Z" fill="#181425"/>
<path d="M377.25 24.9528H380.232V22.633H377.25V20.4142H374.267V22.633H371.285V24.9528H374.267V27.1717H377.25V24.9528Z" fill="#181425"/>
<path d="M371.285 20.4142H374.267V18.1953H371.285V15.9764H368.167V18.1953H365.185V20.4142H368.167V22.633H371.285V20.4142Z" fill="#181425"/>
<path d="M401.243 40.5858V38.2661H398.26V40.5858H395.278V42.8047H398.26V45.0236H401.243V42.8047H404.225V40.5858H401.243Z" fill="#181425"/>
<path d="M428.354 42.8047V40.5858H425.371V38.2661H422.254V40.5858H419.271V42.8047H422.254V45.0236H425.371V42.8047H428.354Z" fill="#181425"/>
<path d="M440.282 42.8047V40.5858H437.3V38.2661H434.318V40.5858H431.336V42.8047H434.318V45.0236H437.3V42.8047H440.282Z" fill="#181425"/>
<path d="M443.264 42.8047H440.282V45.0236H443.264V42.8047Z" fill="#181425"/>
<path d="M452.347 42.8047V40.5858H449.364V38.2661H446.382V40.5858H443.4V42.8047H446.382V45.0236H449.364V42.8047H452.347Z" fill="#181425"/>
<path d="M431.336 42.8047H428.354V45.0236H431.336V42.8047Z" fill="#181425"/>
<path d="M413.307 40.5858V38.2661H410.325V40.5858H407.343V42.8047H410.325V45.0236H413.307V42.8047H416.289V40.5858H413.307Z" fill="#181425"/>
<path d="M455.329 42.8047H452.347V45.0236H455.329V42.8047Z" fill="#181425"/>
<path d="M560.519 9.21888H557.537V11.4378H560.519V9.21888Z" fill="#181425"/>
<path d="M542.49 9.21888H539.508V11.4378H542.49V9.21888Z" fill="#181425"/>
<path d="M554.419 9.21888H551.437V11.4378H554.419V9.21888Z" fill="#181425"/>
<path d="M545.472 11.5386H542.49V13.7575H545.472V11.5386Z" fill="#181425"/>
<path d="M548.455 9.21888H545.472V11.4378H548.455V9.21888Z" fill="#181425"/>
<path d="M512.397 9.21888H509.415V11.4378H512.397V9.21888Z" fill="#181425"/>
<path d="M566.483 9.21888H563.501V11.4378H566.483V9.21888Z" fill="#181425"/>
<path d="M476.34 13.7575H473.357V15.9764H476.34V13.7575Z" fill="#181425"/>
<path d="M533.408 11.5386H530.426V13.7575H533.408V11.5386Z" fill="#181425"/>
<path d="M524.461 9.21888H521.479V11.4378H524.461V9.21888Z" fill="#181425"/>
<path d="M521.479 11.5386H518.497V13.7575H521.479V11.5386Z" fill="#181425"/>
<path d="M536.526 9.21888H533.544V11.4378H536.526V9.21888Z" fill="#181425"/>
<path d="M518.497 9.21888H515.515V11.4378H518.497V9.21888Z" fill="#181425"/>
<path d="M569.465 11.5386H566.483V13.7575H569.465V11.5386Z" fill="#181425"/>
<path d="M530.426 9.21888H527.444V11.4378H530.426V9.21888Z" fill="#181425"/>
<path d="M557.537 11.5386H554.554V13.7575H557.537V11.5386Z" fill="#181425"/>
<path d="M602.541 27.1717H599.558V29.3906H602.541V27.1717Z" fill="#181425"/>
<path d="M395.278 11.5386H392.296V13.7575H395.278V11.5386Z" fill="#181425"/>
<path d="M572.448 9.21888H569.465V11.4378H572.448V9.21888Z" fill="#181425"/>
<path d="M599.558 24.9528H596.576V27.1717H599.558V24.9528Z" fill="#181425"/>
<path d="M608.505 31.6094H605.523V33.8283H608.505V31.6094Z" fill="#181425"/>
<path d="M614.605 36.0472H611.623V38.2661H614.605V36.0472Z" fill="#181425"/>
<path d="M611.623 33.8283H608.641V36.0472H611.623V33.8283Z" fill="#181425"/>
<path d="M596.576 22.633H593.594V24.8519H596.576V22.633Z" fill="#181425"/>
<path d="M584.512 13.7575H581.53V15.9764H584.512V13.7575Z" fill="#181425"/>
<path d="M581.53 11.5386H578.548V13.7575H581.53V11.5386Z" fill="#181425"/>
<path d="M578.548 9.21888H575.565V11.4378H578.548V9.21888Z" fill="#181425"/>
<path d="M587.494 15.9764H584.512V18.1953H587.494V15.9764Z" fill="#181425"/>
<path d="M590.476 18.1953H587.494V20.4142H590.476V18.1953Z" fill="#181425"/>
<path d="M593.594 20.4142H590.612V22.633H593.594V20.4142Z" fill="#181425"/>
<path d="M422.254 9.21888H419.271V11.4378H422.254V9.21888Z" fill="#181425"/>
<path d="M410.325 9.21888H407.343V11.4378H410.325V9.21888Z" fill="#181425"/>
<path d="M440.282 9.21888H437.3V11.4378H440.282V9.21888Z" fill="#181425"/>
<path d="M416.289 9.21888H413.307V11.4378H416.289V9.21888Z" fill="#181425"/>
<path d="M617.587 38.2661H614.605V40.485H617.587V38.2661Z" fill="#181425"/>
<path d="M398.26 9.21888H395.278V11.4378H398.26V9.21888Z" fill="#181425"/>
<path d="M434.318 9.21888H431.336V11.4378H434.318V9.21888Z" fill="#181425"/>
<path d="M428.354 9.21888H425.371V11.4378H428.354V9.21888Z" fill="#181425"/>
<path d="M404.225 9.21888H401.243V11.4378H404.225V9.21888Z" fill="#181425"/>
<path d="M356.239 11.5386V13.7575H359.221V11.5386H362.203V9.21888H359.221V7H356.239V9.21888H353.256V11.5386H356.239Z" fill="#181425"/>
<path d="M509.415 11.5386H506.433V13.7575H509.415V11.5386Z" fill="#181425"/>
<path d="M344.174 11.5386V13.7575H347.157V11.5386H350.139V9.21888H347.157V7H344.174V9.21888H341.192V11.5386H344.174Z" fill="#181425"/>
<path d="M386.196 9.21888H383.214V11.4378H386.196V9.21888Z" fill="#181425"/>
<path d="M392.296 9.21888H389.314V11.4378H392.296V9.21888Z" fill="#181425"/>
<path d="M380.232 9.21888H377.25V11.4378H380.232V9.21888Z" fill="#181425"/>
<path d="M368.167 11.5386V13.7575H371.285V11.5386H374.267V9.21888H371.285V7H368.167V9.21888H365.185V11.5386H368.167Z" fill="#181425"/>
<path d="M485.422 11.5386H482.44V13.7575H485.422V11.5386Z" fill="#181425"/>
<path d="M494.368 9.21888H491.386V11.4378H494.368V9.21888Z" fill="#181425"/>
<path d="M488.404 9.21888H485.422V11.4378H488.404V9.21888Z" fill="#181425"/>
<path d="M497.351 11.5386H494.368V13.7575H497.351V11.5386Z" fill="#181425"/>
<path d="M506.433 9.21888H503.451V11.4378H506.433V9.21888Z" fill="#181425"/>
<path d="M446.382 9.21888H443.4V11.4378H446.382V9.21888Z" fill="#181425"/>
<path d="M500.468 9.21888H497.486V11.4378H500.468V9.21888Z" fill="#181425"/>
<path d="M458.311 9.21888H455.329V11.4378H458.311V9.21888Z" fill="#181425"/>
<path d="M452.347 9.21888H449.364V11.4378H452.347V9.21888Z" fill="#181425"/>
<path d="M464.411 9.21888H461.429V11.4378H464.411V9.21888Z" fill="#181425"/>
<path d="M476.34 9.21888H473.357V11.4378H476.34V9.21888Z" fill="#181425"/>
<path d="M470.375 9.21888H467.393V11.4378H470.375V9.21888Z" fill="#181425"/>
<path d="M482.44 9.21888H479.457V11.4378H482.44V9.21888Z" fill="#181425"/>
<path d="M605.523 29.3906H602.541V31.6094H605.523V29.3906Z" fill="#181425"/>
<path d="M455.329 47.2425H452.347V49.4614H455.329V47.2425Z" fill="#181425"/>
<path d="M452.347 45.0236H449.364V47.2425H452.347V45.0236Z" fill="#181425"/>
<path d="M443.264 47.2425H440.282V49.4614H443.264V47.2425Z" fill="#181425"/>
<path d="M446.382 45.0236H443.4V47.2425L446.382 47.2425V45.0236Z" fill="#181425"/>
<path d="M440.282 45.0236H437.3V47.2425H440.282V45.0236Z" fill="#181425"/>
<path d="M431.336 47.2425H428.354V49.4614H431.336V47.2425Z" fill="#181425"/>
<path d="M434.318 45.0236H431.336V47.2425H434.318V45.0236Z" fill="#181425"/>
<path d="M467.393 47.2425H464.411V49.4614H467.393V47.2425Z" fill="#181425"/>
<path d="M458.311 45.0236H455.329V47.2425H458.311V45.0236Z" fill="#181425"/>
<path d="M476.34 45.0236H473.357V47.2425L476.34 47.2425V45.0236Z" fill="#181425"/>
<path d="M479.322 47.2425L476.34 47.2425V49.4614H479.322V47.2425Z" fill="#181425"/>
<path d="M470.375 45.0236H467.393V47.2425H470.375V45.0236Z" fill="#181425"/>
<path d="M428.354 45.0236H425.371V47.2425H428.354V45.0236Z" fill="#181425"/>
<path d="M464.411 45.0236H461.429V47.2425H464.411V45.0236Z" fill="#181425"/>
<path d="M407.343 45.0236V42.8047H404.225V45.0236H401.243V47.2425L404.225 47.2425V49.4614H407.343V47.2425L410.325 47.2425V45.0236H407.343Z" fill="#181425"/>
<path d="M362.203 15.9764V18.1953H365.185V15.9764H368.167V13.7575H365.185V11.5386H362.203V13.7575H359.221V15.9764H362.203Z" fill="#181425"/>
<path d="M353.256 15.9764H356.239V13.7575H353.256V11.5386H350.139V13.7575H347.157V15.9764H350.139V18.1953H353.256V15.9764Z" fill="#181425"/>
<path d="M365.185 24.9528H368.167V22.633H365.185V20.4142H362.203V22.633H359.221V24.9528H362.203V27.1717H365.185V24.9528Z" fill="#181425"/>
<path d="M359.221 20.4142H362.203V18.1953H359.221V15.9764H356.239V18.1953H353.256V20.4142H356.239V22.633H359.221V20.4142Z" fill="#181425"/>
<path d="M620.569 40.5858H617.587V42.8047L620.569 42.8047V40.5858Z" fill="#181425"/>
<path d="M374.267 15.9764V18.1953H377.25V15.9764H380.232V13.7575H377.25V11.5386H374.267V13.7575H371.285V15.9764H374.267Z" fill="#181425"/>
<path d="M383.214 11.5386H380.232V13.7575H383.214V11.5386Z" fill="#181425"/>
<path d="M395.278 45.0236V42.8047H392.296V45.0236H389.314V47.2425L392.296 47.2425V49.4614L395.278 49.4614V47.2425L398.26 47.2425V45.0236H395.278Z" fill="#181425"/>
<path d="M389.314 42.8047H392.296V40.5858H389.314V38.2661H386.196V40.5858H383.214V42.8047H386.196V45.0236H389.314V42.8047Z" fill="#181425"/>
<path d="M371.285 29.3906H374.267V27.1717H371.285V24.9528H368.167V27.1717H365.185V29.3906H368.167V31.6094H371.285V29.3906Z" fill="#181425"/>
<path d="M482.44 45.0236H479.457V47.2425L482.44 47.2425V45.0236Z" fill="#181425"/>
<path d="M419.271 45.0236V42.8047H416.289V45.0236H413.307V47.2425L416.289 47.2425V49.4614H419.271V47.2425L422.254 47.2425V45.0236H419.271Z" fill="#181425"/>
<path d="M377.25 33.8283H380.232V31.6094H377.25V29.3906H374.267V31.6094H371.285V33.8283H374.267V36.0472H377.25V33.8283Z" fill="#181425"/>
<path d="M383.214 38.2661H386.196V36.0472H383.214V33.8283H380.232V36.0472H377.25V38.2661H380.232V40.5858H383.214V38.2661Z" fill="#181425"/>
<path d="M383.214 13.7575V15.9764H386.196V18.1953H389.314V15.9764H392.296V13.7575H389.314V11.5386H386.196V13.7575H383.214Z" fill="#181425"/>
<path d="M587.494 42.8047H584.512V45.0236H587.494V42.8047Z" fill="#181425"/>
<path d="M599.558 42.8047H596.576V45.0236H599.558V42.8047Z" fill="#181425"/>
<path d="M596.576 45.0236H593.594V47.2425H596.576V45.0236Z" fill="#181425"/>
<path d="M590.476 45.0236H587.494V47.2425H590.476V45.0236Z" fill="#181425"/>
<path d="M572.448 45.0236H569.465V47.2425H572.448V45.0236Z" fill="#181425"/>
<path d="M488.404 45.0236H485.422V47.2425L488.404 47.2425V45.0236Z" fill="#181425"/>
<path d="M566.483 45.0236H563.501V47.2425L566.483 47.2425V45.0236Z" fill="#181425"/>
<path d="M578.548 45.0236H575.565V47.2425L578.548 47.2425V45.0236Z" fill="#181425"/>
<path d="M614.605 45.0236H611.623V47.2425H614.605V45.0236Z" fill="#181425"/>
<path d="M602.541 45.0236H599.558V47.2425H602.541V45.0236Z" fill="#181425"/>
<path d="M620.569 45.0236H617.587V47.2425H620.569V45.0236Z" fill="#181425"/>
<path d="M614.605 40.5858H611.623V42.8047H614.605V40.5858Z" fill="#181425"/>
<path d="M611.623 42.8047L608.641 42.8047V45.0236H611.623V42.8047Z" fill="#181425"/>
<path d="M608.505 45.0236H605.523V47.2425H608.505V45.0236Z" fill="#181425"/>
<path d="M584.512 45.0236H581.53V47.2425H584.512V45.0236Z" fill="#181425"/>
<path d="M509.415 47.2425H506.433V49.4614H509.415V47.2425Z" fill="#181425"/>
<path d="M560.519 45.0236H557.537V47.2425L560.519 47.2425V45.0236Z" fill="#181425"/>
<path d="M515.379 47.2425L512.397 47.2425V49.4614H515.379V47.2425Z" fill="#181425"/>
<path d="M497.351 47.2425L494.368 47.2425V49.4614L497.351 49.4614V47.2425Z" fill="#181425"/>
<path d="M521.479 47.2425H518.497V49.4614H521.479V47.2425Z" fill="#181425"/>
<path d="M491.386 47.2425H488.404V49.4614L491.386 49.4614V47.2425Z" fill="#181425"/>
<path d="M503.451 47.2425H500.468V49.4614H503.451V47.2425Z" fill="#181425"/>
<path d="M548.455 45.0236H545.472V47.2425L548.455 47.2425V45.0236Z" fill="#181425"/>
<path d="M554.419 45.0236H551.437V47.2425L554.419 47.2425V45.0236Z" fill="#181425"/>
<path d="M542.49 45.0236H539.508V47.2425H542.49V45.0236Z" fill="#181425"/>
<path d="M533.408 47.2425L530.426 47.2425V49.4614H533.408V47.2425Z" fill="#181425"/>
<path d="M539.508 47.2425H536.526V49.4614H539.508V47.2425Z" fill="#181425"/>
<path d="M527.444 47.2425H524.461V49.4614H527.444V47.2425Z" fill="#181425"/>
<path d="M494.368 40.5858H491.386V42.8047L494.368 42.8047V40.5858Z" fill="#181425"/>
<path d="M500.468 22.633H497.486V24.8519H500.468V22.633Z" fill="#181425"/>
<path d="M494.368 22.633H491.386V24.8519H494.368V22.633Z" fill="#181425"/>
<path d="M653.645 29.3906H650.662V31.6094H653.645V29.3906Z" fill="#181425"/>
<path d="M650.662 31.6094H647.68V33.8283H650.662V31.6094Z" fill="#181425"/>
<path d="M506.433 22.633H503.451V24.8519H506.433V22.633Z" fill="#181425"/>
<path d="M512.397 22.633H509.415V24.8519H512.397V22.633Z" fill="#181425"/>
<path d="M650.662 27.1717H647.68V29.3906H650.662V27.1717Z" fill="#181425"/>
<path d="M491.386 20.4142H488.404V22.633H491.386V20.4142Z" fill="#181425"/>
<path d="M488.404 18.1953H485.422V20.4142H488.404V18.1953Z" fill="#181425"/>
<path d="M650.662 36.0472H647.68V38.2661H650.662V36.0472Z" fill="#181425"/>
<path d="M482.44 18.1953H479.457V20.4142H482.44V18.1953Z" fill="#181425"/>
<path d="M656.627 31.6094H653.645V33.8283H656.627V31.6094Z" fill="#181425"/>
<path d="M656.627 36.0472H653.645V38.2661H656.627V36.0472Z" fill="#181425"/>
<path d="M656.627 27.1717H653.645V29.3906H656.627V27.1717Z" fill="#181425"/>
<path d="M656.627 9.21888H653.645V11.4378H656.627V9.21888Z" fill="#181425"/>
<path d="M668.691 49.4614H665.709V51.6803H668.691V49.4614Z" fill="#181425"/>
<path d="M548.455 22.633H545.472V24.8519H548.455V22.633Z" fill="#181425"/>
<path d="M542.49 22.633H539.508V24.8519H542.49V22.633Z" fill="#181425"/>
<path d="M551.437 24.9528H548.455V27.1717H551.437V24.9528Z" fill="#181425"/>
<path d="M554.419 22.633H551.437V24.8519H554.419V22.633Z" fill="#181425"/>
<path d="M653.645 38.2661H650.662V40.485H653.645V38.2661Z" fill="#181425"/>
<path d="M662.591 49.4614H659.609V51.6803H662.591V49.4614Z" fill="#181425"/>
<path d="M530.426 22.633H527.444V24.8519H530.426V22.633Z" fill="#181425"/>
<path d="M656.627 18.1953H653.645V20.4142H656.627V18.1953Z" fill="#181425"/>
<path d="M536.526 22.633H533.544V24.8519H536.526V22.633Z" fill="#181425"/>
<path d="M656.627 22.633H653.645V24.8519H656.627V22.633Z" fill="#181425"/>
<path d="M524.461 22.633H521.479V24.8519H524.461V22.633Z" fill="#181425"/>
<path d="M656.627 13.7575H653.645V15.9764H656.627V13.7575Z" fill="#181425"/>
<path d="M518.497 22.633H515.515V24.8519H518.497V22.633Z" fill="#181425"/>
<path d="M455.329 15.9764H452.347V18.1953H455.329V15.9764Z" fill="#181425"/>
<path d="M644.562 18.1953H641.58V20.4142H644.562V18.1953Z" fill="#181425"/>
<path d="M419.271 22.633V24.9528H422.254V27.1717H425.371V24.9528H428.354V22.633H425.371V20.4142H422.254V22.633H419.271Z" fill="#181425"/>
<path d="M443.264 20.4142H440.282V22.633H443.264V20.4142Z" fill="#181425"/>
<path d="M431.336 20.4142H428.354V22.633H431.336V20.4142Z" fill="#181425"/>
<path d="M644.562 9.21888H641.58V11.4378H644.562V9.21888Z" fill="#181425"/>
<path d="M431.336 22.633V24.9528H434.318V27.1717H437.3V24.9528H440.282V22.633H437.3V20.4142H434.318V22.633H431.336Z" fill="#181425"/>
<path d="M644.562 13.7575H641.58V15.9764H644.562V13.7575Z" fill="#181425"/>
<path d="M638.598 18.1953H635.616V20.4142H638.598V18.1953Z" fill="#181425"/>
<path d="M407.207 20.4142H404.225V22.633H407.207V20.4142Z" fill="#181425"/>
<path d="M644.562 22.633H641.58V24.8519H644.562V22.633Z" fill="#181425"/>
<path d="M419.271 20.4142H416.289V22.633H419.271V20.4142Z" fill="#181425"/>
<path d="M638.598 22.633H635.616V24.8519H638.598V22.633Z" fill="#181425"/>
<path d="M641.58 20.4142H638.598V22.633H641.58V20.4142Z" fill="#181425"/>
<path d="M407.343 22.633V24.9528H410.325V27.1717H413.307V24.9528H416.289V22.633H413.307V20.4142H410.325V22.633H407.343Z" fill="#181425"/>
<path d="M461.293 15.9764H458.311V18.1953H461.293V15.9764Z" fill="#181425"/>
<path d="M467.393 15.9764H464.411V18.1953H467.393V15.9764Z" fill="#181425"/>
<path d="M656.627 40.5858H653.645V42.8047H656.627V40.5858Z" fill="#181425"/>
<path d="M476.34 18.1953H473.357V20.4142H476.34V18.1953Z" fill="#181425"/>
<path d="M656.627 45.0236H653.645V47.2425H656.627V45.0236Z" fill="#181425"/>
<path d="M650.662 40.5858H647.68V42.8047H650.662V40.5858Z" fill="#181425"/>
<path d="M473.357 15.9764H470.375V18.1953H473.357V15.9764Z" fill="#181425"/>
<path d="M560.519 22.633H557.537V24.8519H560.519V22.633Z" fill="#181425"/>
<path d="M650.662 49.4614H647.68V51.6803H650.662V49.4614Z" fill="#181425"/>
<path d="M446.382 18.1953H443.4V20.4142H446.382V18.1953Z" fill="#181425"/>
<path d="M650.662 45.0236H647.68V47.2425H650.662V45.0236Z" fill="#181425"/>
<path d="M449.364 15.9764H446.382V18.1953H449.364V15.9764Z" fill="#181425"/>
<path d="M656.627 49.4614H653.645V51.6803H656.627V49.4614Z" fill="#181425"/>
<path d="M653.645 47.2425H650.662V49.4614H653.645V47.2425Z" fill="#181425"/>
<path d="M467.393 33.8283H464.411V36.0472H467.393V33.8283Z" fill="#181425"/>
<path d="M674.655 49.4614H671.673V51.6803H674.655V49.4614Z" fill="#181425"/>
<path d="M497.351 38.2661H494.368V40.485H497.351V38.2661Z" fill="#181425"/>
<path d="M491.386 38.2661H488.404V40.485H491.386V38.2661Z" fill="#181425"/>
<path d="M485.422 38.2661H482.44V40.485H485.422V38.2661Z" fill="#181425"/>
<path d="M674.655 45.0236H671.673V47.2425H674.655V45.0236Z" fill="#181425"/>
<path d="M677.638 47.2425L674.655 47.2425V49.4614L677.638 49.4614V47.2425Z" fill="#181425"/>
<path d="M482.44 36.0472H479.457V38.2661H482.44V36.0472Z" fill="#181425"/>
<path d="M680.62 49.4614L677.638 49.4614V51.6803H680.62V49.4614Z" fill="#181425"/>
<path d="M668.691 13.7575H665.709V15.9764H668.691V13.7575Z" fill="#181425"/>
<path d="M479.322 15.9764H476.34V18.1953H479.322V15.9764Z" fill="#181425"/>
<path d="M668.691 18.1953H665.709V20.4142H668.691V18.1953Z" fill="#181425"/>
<path d="M500.468 40.5858H497.486V42.8047H500.468V40.5858Z" fill="#181425"/>
<path d="M668.691 9.21888H665.709V11.4378H668.691V9.21888Z" fill="#181425"/>
<path d="M506.433 40.5858H503.451V42.8047H506.433V40.5858Z" fill="#181425"/>
<path d="M680.62 22.633H677.638V24.8519H680.62V22.633Z" fill="#181425"/>
<path d="M455.329 33.8283H452.347V36.0472H455.329V33.8283Z" fill="#181425"/>
<path d="M680.62 45.0236H677.638V47.2425L680.62 47.2425V45.0236Z" fill="#181425"/>
<path d="M680.62 27.1717H677.638V29.3906H680.62V27.1717Z" fill="#181425"/>
<path d="M680.62 18.1953H677.638V20.4142H680.62V18.1953Z" fill="#181425"/>
<path d="M443.264 33.8283H440.282V36.0472H443.264V33.8283Z" fill="#181425"/>
<path d="M464.411 33.8283V31.6094H461.429V29.3906H458.311V31.6094H455.329V33.8283H458.311V36.0472H461.429V33.8283H464.411Z" fill="#181425"/>
<path d="M452.347 33.8283V31.6094H449.364V29.3906H446.382V31.6094H443.4V33.8283H446.382V36.0472H449.364V33.8283H452.347Z" fill="#181425"/>
<path d="M518.497 40.5858H515.515V42.8047H518.497V40.5858Z" fill="#181425"/>
<path d="M680.62 40.5858H677.638V42.8047H680.62V40.5858Z" fill="#181425"/>
<path d="M473.357 33.8283H470.375V36.0472H473.357V33.8283Z" fill="#181425"/>
<path d="M479.322 33.8283H476.34V36.0472H479.322V33.8283Z" fill="#181425"/>
<path d="M395.278 22.633V24.9528H398.26V27.1717H401.243V24.9528H404.225V22.633H401.243V20.4142H398.26V22.633H395.278Z" fill="#181425"/>
<path d="M680.62 36.0472H677.638V38.2661H680.62V36.0472Z" fill="#181425"/>
<path d="M680.62 31.6094H677.638V33.8283H680.62V31.6094Z" fill="#181425"/>
<path d="M665.709 47.2425H662.727V49.4614L665.709 49.4614V47.2425Z" fill="#181425"/>
<path d="M668.691 45.0236H665.709V47.2425L668.691 47.2425V45.0236Z" fill="#181425"/>
<path d="M668.691 22.633H665.709V24.8519H668.691V22.633Z" fill="#181425"/>
<path d="M662.591 45.0236H659.609V47.2425H662.591V45.0236Z" fill="#181425"/>
<path d="M554.419 31.6094H551.437V33.8283H554.419V31.6094Z" fill="#181425"/>
<path d="M668.691 40.5858H665.709V42.8047H668.691V40.5858Z" fill="#181425"/>
<path d="M662.591 40.5858H659.609V42.8047H662.591V40.5858Z" fill="#181425"/>
<path d="M548.455 27.1717H545.472V29.3906H548.455V27.1717Z" fill="#181425"/>
<path d="M560.519 27.1717H557.537V29.3906H560.519V27.1717Z" fill="#181425"/>
<path d="M566.483 27.1717H563.501V29.3906H566.483V27.1717Z" fill="#181425"/>
<path d="M563.501 24.9528H560.519V27.1717H563.501V24.9528Z" fill="#181425"/>
<path d="M566.483 31.6094H563.501V33.8283H566.483V31.6094Z" fill="#181425"/>
<path d="M560.519 31.6094H557.537V33.8283H560.519V31.6094Z" fill="#181425"/>
<path d="M551.437 29.3906H548.455V31.6094H551.437V29.3906Z" fill="#181425"/>
<path d="M557.537 29.3906H554.554V31.6094H557.537V29.3906Z" fill="#181425"/>
<path d="M548.455 31.6094H545.472V33.8283H548.455V31.6094Z" fill="#181425"/>
<path d="M536.526 36.0472H533.544V38.2661H536.526V36.0472Z" fill="#181425"/>
<path d="M668.691 31.6094H665.709V33.8283H668.691V31.6094Z" fill="#181425"/>
<path d="M530.426 36.0472H527.444V38.2661H530.426V36.0472Z" fill="#181425"/>
<path d="M527.444 38.2661H524.461V40.485H527.444V38.2661Z" fill="#181425"/>
<path d="M668.691 27.1717H665.709V29.3906H668.691V27.1717Z" fill="#181425"/>
<path d="M524.461 40.5858H521.479V42.8047H524.461V40.5858Z" fill="#181425"/>
<path d="M542.49 31.6094H539.508V33.8283H542.49V31.6094Z" fill="#181425"/>
<path d="M665.709 38.2661H662.727V40.485H665.709V38.2661Z" fill="#181425"/>
<path d="M668.691 36.0472H665.709V38.2661H668.691V36.0472Z" fill="#181425"/>
<path d="M554.419 27.1717H551.437V29.3906H554.419V27.1717Z" fill="#181425"/>
<path d="M545.472 29.3906H542.49V31.6094H545.472V29.3906Z" fill="#181425"/>
<path d="M539.508 33.8283H536.526V36.0472H539.508V33.8283Z" fill="#181425"/>
<path d="M662.591 36.0472H659.609V38.2661H662.591V36.0472Z" fill="#181425"/>
<path d="M512.397 40.5858H509.415V42.8047H512.397V40.5858Z" fill="#181425"/>
<path d="M584.512 31.6094H581.53V33.8283H584.512V31.6094Z" fill="#181425"/>
<path d="M584.512 36.0472H581.53V38.2661H584.512V36.0472Z" fill="#181425"/>
<path d="M554.419 49.4614L551.437 49.4614V51.6803L554.419 51.6803V49.4614Z" fill="#181425"/>
<path d="M578.548 36.0472H575.565V38.2661H578.548V36.0472Z" fill="#181425"/>
<path d="M581.53 29.3906H578.548V31.6094H581.53V29.3906Z" fill="#181425"/>
<path d="M575.565 33.8283H572.583V36.0472H575.565V33.8283Z" fill="#181425"/>
<path d="M578.548 31.6094H575.565V33.8283H578.548V31.6094Z" fill="#181425"/>
<path d="M566.483 18.1953H563.501V20.4142H566.483V18.1953Z" fill="#181425"/>
<path d="M569.465 20.4142H566.483V22.633H569.465V20.4142Z" fill="#181425"/>
<path d="M578.548 27.1717H575.565V29.3906H578.548V27.1717Z" fill="#181425"/>
<path d="M572.448 36.0472H569.465V38.2661H572.448V36.0472Z" fill="#181425"/>
<path d="M548.455 49.4614L545.472 49.4614V51.6803L548.455 51.6803V49.4614Z" fill="#181425"/>
<path d="M572.448 22.633H569.465V24.8519H572.448V22.633Z" fill="#181425"/>
<path d="M575.565 24.9528H572.583V27.1717H575.565V24.9528Z" fill="#181425"/>
<path d="M539.508 38.2661H536.526V40.485H539.508V38.2661Z" fill="#181425"/>
<path d="M533.408 38.2661H530.426V40.485H533.408V38.2661Z" fill="#181425"/>
<path d="M569.465 47.2425H566.483V49.4614H569.465V47.2425Z" fill="#181425"/>
<path d="M566.483 49.4614H563.501V51.6803L566.483 51.6803V49.4614Z" fill="#181425"/>
<path d="M560.519 18.1953H557.537V20.4142H560.519V18.1953Z" fill="#181425"/>
<path d="M521.479 42.8047H518.497V45.0236H521.479V42.8047Z" fill="#181425"/>
<path d="M530.426 40.5858H527.444V42.8047H530.426V40.5858Z" fill="#181425"/>
<path d="M527.444 42.8047H524.461V45.0236H527.444V42.8047Z" fill="#181425"/>
<path d="M548.455 36.0472H545.472V38.2661H548.455V36.0472Z" fill="#181425"/>
<path d="M554.419 36.0472H551.437V38.2661H554.419V36.0472Z" fill="#181425"/>
<path d="M560.519 36.0472H557.537V38.2661H560.519V36.0472Z" fill="#181425"/>
<path d="M557.537 47.2425L554.554 47.2425V49.4614H557.537V47.2425Z" fill="#181425"/>
<path d="M560.519 49.4614H557.537V51.6803L560.519 51.6803V49.4614Z" fill="#181425"/>
<path d="M566.483 36.0472H563.501V38.2661H566.483V36.0472Z" fill="#181425"/>
<path d="M542.49 36.0472H539.508V38.2661H542.49V36.0472Z" fill="#181425"/>
<path d="M572.448 49.4614L569.465 49.4614V51.6803H572.448V49.4614Z" fill="#181425"/>
<path d="M506.433 18.1953H503.451V20.4142H506.433V18.1953Z" fill="#181425"/>
<path d="M500.468 18.1953H497.486V20.4142H500.468V18.1953Z" fill="#181425"/>
<path d="M518.497 49.4614L515.515 49.4614V51.6803L518.497 51.6803V49.4614Z" fill="#181425"/>
<path d="M509.415 20.4142H506.433V22.633H509.415V20.4142Z" fill="#181425"/>
<path d="M524.461 49.4614H521.479V51.6803H524.461V49.4614Z" fill="#181425"/>
<path d="M512.397 18.1953H509.415V20.4142H512.397V18.1953Z" fill="#181425"/>
<path d="M512.397 49.4614H509.415V51.6803H512.397V49.4614Z" fill="#181425"/>
<path d="M485.422 15.9764H482.44V18.1953H485.422V15.9764Z" fill="#181425"/>
<path d="M518.497 18.1953H515.515V20.4142H518.497V18.1953Z" fill="#181425"/>
<path d="M491.386 15.9764H488.404V18.1953H491.386V15.9764Z" fill="#181425"/>
<path d="M497.351 20.4142H494.368V22.633H497.351V20.4142Z" fill="#181425"/>
<path d="M500.468 49.4614L497.486 49.4614V51.6803L500.468 51.6803V49.4614Z" fill="#181425"/>
<path d="M557.537 20.4142H554.554V22.633H557.537V20.4142Z" fill="#181425"/>
<path d="M506.433 49.4614H503.451V51.6803H506.433V49.4614Z" fill="#181425"/>
<path d="M494.368 18.1953H491.386V20.4142H494.368V18.1953Z" fill="#181425"/>
<path d="M545.472 47.2425H542.49V49.4614L545.472 49.4614V47.2425Z" fill="#181425"/>
<path d="M545.472 20.4142H542.49V22.633H545.472V20.4142Z" fill="#181425"/>
<path d="M521.479 20.4142H518.497V22.633H521.479V20.4142Z" fill="#181425"/>
<path d="M542.49 18.1953H539.508V20.4142H542.49V18.1953Z" fill="#181425"/>
<path d="M548.455 18.1953H545.472V20.4142H548.455V18.1953Z" fill="#181425"/>
<path d="M554.419 18.1953H551.437V20.4142H554.419V18.1953Z" fill="#181425"/>
<path d="M644.562 27.1717H641.58V29.3906H644.562V27.1717Z" fill="#181425"/>
<path d="M536.526 18.1953H533.544V20.4142H536.526V18.1953Z" fill="#181425"/>
<path d="M530.426 49.4614H527.444V51.6803H530.426V49.4614Z" fill="#181425"/>
<path d="M530.426 18.1953H527.444V20.4142H530.426V18.1953Z" fill="#181425"/>
<path d="M524.461 18.1953H521.479V20.4142H524.461V18.1953Z" fill="#181425"/>
<path d="M536.526 49.4614L533.544 49.4614V51.6803L536.526 51.6803V49.4614Z" fill="#181425"/>
<path d="M533.408 20.4142H530.426V22.633H533.408V20.4142Z" fill="#181425"/>
<path d="M542.49 49.4614H539.508V51.6803L542.49 51.6803V49.4614Z" fill="#181425"/>
<path d="M638.598 49.4614H635.616V51.6803L638.598 51.6803V49.4614Z" fill="#181425"/>
<path d="M419.271 38.2661H416.289V40.485H419.271V38.2661Z" fill="#181425"/>
<path d="M422.254 36.0472H419.271V38.2661H422.254V36.0472Z" fill="#181425"/>
<path d="M641.58 47.2425H638.598V49.4614H641.58V47.2425Z" fill="#181425"/>
<path d="M632.634 49.4614H629.651V51.6803L632.634 51.6803V49.4614Z" fill="#181425"/>
<path d="M638.598 45.0236H635.616V47.2425L638.598 47.2425V45.0236Z" fill="#181425"/>
<path d="M407.343 36.0472V33.8283H404.225V36.0472H401.243V38.2661H404.225V40.5858H407.343V38.2661H410.325V36.0472H407.343Z" fill="#181425"/>
<path d="M416.289 36.0472H413.307V38.2661H416.289V36.0472Z" fill="#181425"/>
<path d="M434.318 36.0472H431.336V38.2661H434.318V36.0472Z" fill="#181425"/>
<path d="M629.651 47.2425H626.669V49.4614L629.651 49.4614V47.2425Z" fill="#181425"/>
<path d="M440.282 36.0472H437.3V38.2661H440.282V36.0472Z" fill="#181425"/>
<path d="M632.634 45.0236H629.651V47.2425L632.634 47.2425V45.0236Z" fill="#181425"/>
<path d="M428.354 36.0472H425.371V38.2661H428.354V36.0472Z" fill="#181425"/>
<path d="M431.336 38.2661H428.354V40.485H431.336V38.2661Z" fill="#181425"/>
<path d="M638.598 31.6094H635.616V33.8283H638.598V31.6094Z" fill="#181425"/>
<path d="M389.314 24.9528H392.296V22.633H389.314V20.4142H386.196V22.633H383.214V24.9528H386.196V27.1717H389.314V24.9528Z" fill="#181425"/>
<path d="M644.562 36.0472H641.58V38.2661H644.562V36.0472Z" fill="#181425"/>
<path d="M644.562 31.6094H641.58V33.8283H644.562V31.6094Z" fill="#181425"/>
<path d="M626.534 49.4614H623.552V51.6803L626.534 51.6803V49.4614Z" fill="#181425"/>
<path d="M515.379 42.8047L512.397 42.8047V45.0236H515.379V42.8047Z" fill="#181425"/>
<path d="M638.598 27.1717H635.616V29.3906H638.598V27.1717Z" fill="#181425"/>
<path d="M641.58 29.3906H638.598V31.6094H641.58V29.3906Z" fill="#181425"/>
<path d="M395.278 29.3906H398.26V27.1717H395.278V24.9528H392.296V27.1717H389.314V29.3906H392.296V31.6094H395.278V29.3906Z" fill="#181425"/>
<path d="M401.243 33.8283H404.225V31.6094H401.243V29.3906H398.26V31.6094H395.278V33.8283H398.26V36.0472H401.243V33.8283Z" fill="#181425"/>
<path d="M638.598 40.5858H635.616V42.8047H638.598V40.5858Z" fill="#181425"/>
<path d="M644.562 40.5858H641.58V42.8047H644.562V40.5858Z" fill="#181425"/>
<path d="M641.58 38.2661H638.598V40.485H641.58V38.2661Z" fill="#181425"/>
<path d="M638.598 36.0472H635.616V38.2661H638.598V36.0472Z" fill="#181425"/>
<path d="M644.562 45.0236H641.58V47.2425L644.562 47.2425V45.0236Z" fill="#181425"/>
<path d="M395.278 20.4142H392.296V22.633H395.278V20.4142Z" fill="#181425"/>
<path d="M482.44 40.5858H479.457V42.8047L482.44 42.8047V40.5858Z" fill="#181425"/>
<path d="M680.62 13.7575H677.638V15.9764H680.62V13.7575Z" fill="#181425"/>
<path d="M590.476 49.4614H587.494V51.6803L590.476 51.6803V49.4614Z" fill="#181425"/>
<path d="M443.264 38.2661H440.282V40.485H443.264V38.2661Z" fill="#181425"/>
<path d="M593.594 47.2425L590.612 47.2425V49.4614H593.594V47.2425Z" fill="#181425"/>
<path d="M596.576 49.4614L593.594 49.4614V51.6803L596.576 51.6803V49.4614Z" fill="#181425"/>
<path d="M479.322 38.2661H476.34V40.485H479.322V38.2661Z" fill="#181425"/>
<path d="M509.415 42.8047H506.433V45.0236H509.415V42.8047Z" fill="#181425"/>
<path d="M503.451 42.8047H500.468V45.0236H503.451V42.8047Z" fill="#181425"/>
<path d="M476.34 36.0472H473.357V38.2661H476.34V36.0472Z" fill="#181425"/>
<path d="M578.548 49.4614L575.565 49.4614V51.6803L578.548 51.6803V49.4614Z" fill="#181425"/>
<path d="M497.351 42.8047L494.368 42.8047V45.0236H497.351V42.8047Z" fill="#181425"/>
<path d="M581.53 47.2425H578.548V49.4614L581.53 49.4614V47.2425Z" fill="#181425"/>
<path d="M584.512 49.4614L581.53 49.4614V51.6803L584.512 51.6803V49.4614Z" fill="#181425"/>
<path d="M488.404 40.5858H485.422V42.8047H488.404V40.5858Z" fill="#181425"/>
<path d="M452.347 36.0472H449.364V38.2661H452.347V36.0472Z" fill="#181425"/>
<path d="M614.605 49.4614H611.623V51.6803L614.605 51.6803V49.4614Z" fill="#181425"/>
<path d="M617.587 47.2425H614.605V49.4614L617.587 49.4614V47.2425Z" fill="#181425"/>
<path d="M455.329 38.2661H452.347V40.485H455.329V38.2661Z" fill="#181425"/>
<path d="M620.569 49.4614L617.587 49.4614V51.6803L620.569 51.6803V49.4614Z" fill="#181425"/>
<path d="M602.541 49.4614H599.558V51.6803L602.541 51.6803V49.4614Z" fill="#181425"/>
<path d="M446.382 36.0472H443.4V38.2661H446.382V36.0472Z" fill="#181425"/>
<path d="M467.393 38.2661H464.411V40.485H467.393V38.2661Z" fill="#181425"/>
<path d="M470.375 36.0472H467.393V38.2661H470.375V36.0472Z" fill="#181425"/>
<path d="M605.523 47.2425H602.541V49.4614L605.523 49.4614V47.2425Z" fill="#181425"/>
<path d="M608.505 49.4614L605.523 49.4614V51.6803H608.505V49.4614Z" fill="#181425"/>
<path d="M458.311 36.0472H455.329V38.2661H458.311V36.0472Z" fill="#181425"/>
<path d="M464.411 36.0472H461.429V38.2661H464.411V36.0472Z" fill="#181425"/>
<path d="M910 46.9C918 46.9 936.9 46.9 943.2 46.9V13.6H910C910 29.2 910 46.9 910 46.9Z" fill="white"/>
<path d="M907.8 11.4V49.1H945.5V11.4H907.8ZM910 46.9V13.6H943.2V46.8H910V46.9Z" fill="#181425"/>
<path d="M914.4 18C914.4 21.2 914.4 15.2 914.4 24.6C914.4 30.8 914.4 33.9 914.4 42.3C925.6 42.3 928.3 42.3 938.8 42.3C938.8 22.1 938.8 21.9 938.8 17.9C924.6 18 931 18 914.4 18ZM936.6 40.2H916.7V24.7H936.6V40.2Z" fill="#181425"/>
<path d="M867.9 46.9C875.9 46.9 894.8 46.9 901.1 46.9V13.6H867.9C867.9 29.2 867.9 46.9 867.9 46.9Z" fill="white"/>
<path d="M865.7 11.4V49.1H903.4V11.4H865.7ZM867.9 46.9V13.6H901.1V46.8H867.9V46.9Z" fill="#181425"/>
<path d="M896.7 40.2H872.3V42.4H896.7V40.2Z" fill="#181425"/>
<path d="M952.1 46.9C960.1 46.9 979 46.9 985.3 46.9V13.6H952.1C952.1 29.2 952.1 46.9 952.1 46.9Z" fill="white"/>
<path d="M949.9 11.4V49.1H987.6V11.4H949.9ZM952.1 46.9V13.6H985.3V46.8H952.1V46.9Z" fill="#181425"/>
<path d="M971 29.1H972.1V28H973.2V26.9H974.3V25.8H975.4V24.7H976.5V23.6H977.6V22.5H978.7V21.4H979.8V20.3H978.7V19.2H977.6V20.3H976.5V21.4H975.4V22.5H974.3V23.6H973.2V24.7H972.1V25.8H971V26.9H969.9V28H967.6V26.9H966.5V25.8H965.4V24.7H964.3V23.6H963.2V22.5H962.1V21.4H961V20.3H959.9V19.2H958.8V20.3H957.7V21.4H958.8V22.5H959.9V23.6H961V24.7H962.1V25.8H963.2V26.9H964.3V28H965.4V29.1H966.5V31.3H965.4V32.5H964.3V33.6H963.2V34.7H962.1V35.8H961V36.9H959.9V38H958.8V39.1H957.7V40.2H958.8V41.3H959.9V40.2H961V39.1H962.1V38H963.2V36.9H964.3V35.8H965.4V34.7H966.5V33.6H967.6V32.5H969.9V33.6H971V34.7H972.1V35.8H973.2V36.9H974.3V38H975.4V39.1H976.5V40.2H977.6V41.3H978.7V40.2H979.8V39.1H978.7V38H977.6V36.9H976.5V35.8H975.4V34.7H974.3V33.6H973.2V32.5H972.1V31.3H971V29.1Z" fill="#181425"/>
<defs>
<filter id="filter0_d" x="0" y="0" width="1010" height="450" filterUnits="userSpaceOnUse" color-interpolation-filters="sRGB">
<feFlood flood-opacity="0" result="BackgroundImageFix"/>
<feColorMatrix in="SourceAlpha" type="matrix" values="0 0 0 0 0 0 0 0 0 0 0 0 0 0 0 0 0 0 127 0"/>
<feOffset dx="10" dy="10"/>
<feColorMatrix type="matrix" values="0 0 0 0 0.988235 0 0 0 0 0.454902 0 0 0 0 0.776471 0 0 0 1 0"/>
<feBlend mode="normal" in2="BackgroundImageFix" result="effect1_dropShadow"/>
<feBlend mode="normal" in="SourceGraphic" in2="effect1_dropShadow" result="shape"/>
</filter>
</defs>
</svg>
