<svg width="123" height="39" viewBox="0 0 123 39" fill="none" xmlns="http://www.w3.org/2000/svg">
<path d="M45 35.9C53 35.9 71.9 35.9 78.2 35.9V2.60002H45C45 18.2 45 35.9 45 35.9Z" fill="white"/>
<path d="M42.8 0.400024V38.1H80.5V0.400024H42.8ZM45 35.9V2.60002H78.2V35.8H45V35.9Z" fill="#181425"/>
<path d="M49.4 7.00002C49.4 10.2 49.4 4.20003 49.4 13.6C49.4 19.8 49.4 22.9 49.4 31.3C60.6 31.3 63.3 31.3 73.8 31.3C73.8 11.1 73.8 10.9 73.8 6.90002C59.6 7.00002 66 7.00002 49.4 7.00002ZM71.6 29.2H51.7V13.7H71.6V29.2Z" fill="#181425"/>
<path d="M2.89996 35.9C10.9 35.9 29.8 35.9 36.1 35.9V2.60002H2.89996C2.89996 18.2 2.89996 35.9 2.89996 35.9Z" fill="white"/>
<path d="M0.699951 0.400024V38.1H38.4V0.400024H0.699951ZM2.89996 35.9V2.60002H36.1V35.8H2.89996V35.9Z" fill="#181425"/>
<path d="M31.7 29.2H7.29999V31.4H31.7V29.2Z" fill="#181425"/>
<path d="M87.1 35.9C95.1 35.9 114 35.9 120.3 35.9V2.60002H87.1C87.1 18.2 87.1 35.9 87.1 35.9Z" fill="white"/>
<path d="M84.9 0.400024V38.1H122.6V0.400024H84.9ZM87.1 35.9V2.60002H120.3V35.8H87.1V35.9Z" fill="#181425"/>
<path d="M106 18.1H107.1V17H108.2V15.9H109.3V14.8H110.4V13.7H111.5V12.6H112.6V11.5H113.7V10.4H114.8V9.30003H113.7V8.20003H112.6V9.30003H111.5V10.4H110.4V11.5H109.3V12.6H108.2V13.7H107.1V14.8H106V15.9H104.9V17H102.6V15.9H101.5V14.8H100.4V13.7H99.3V12.6H98.2V11.5H97.1V10.4H96V9.30003H94.9V8.20003H93.8V9.30003H92.7V10.4H93.8V11.5H94.9V12.6H96V13.7H97.1V14.8H98.2V15.9H99.3V17H100.4V18.1H101.5V20.3H100.4V21.5H99.3V22.6H98.2V23.7H97.1V24.8H96V25.9H94.9V27H93.8V28.1H92.7V29.2H93.8V30.3H94.9V29.2H96V28.1H97.1V27H98.2V25.9H99.3V24.8H100.4V23.7H101.5V22.6H102.6V21.5H104.9V22.6H106V23.7H107.1V24.8H108.2V25.9H109.3V27H110.4V28.1H111.5V29.2H112.6V30.3H113.7V29.2H114.8V28.1H113.7V27H112.6V25.9H111.5V24.8H110.4V23.7H109.3V22.6H108.2V21.5H107.1V20.3H106V18.1Z" fill="#181425"/>
</svg>
