<svg width="100%" height="47" viewBox="0 0 984 47" fill="none" xmlns="http://www.w3.org/2000/svg">
<path d="M0 0L0 47L984 47V0L0 0Z" fill="#74FCAA"/>
<path d="M0 0V2.22366H980.995V44.7763H0V47C16.3325 47 963.225 47 984 47C984 29.4129 984 17.5871 984 0C963.225 0 16.3325 0 0 0Z" fill="#181425"/>
<path d="M732.806 24.6094H729.824V26.8283H732.806V24.6094Z" fill="#181425"/>
<path d="M489.351 26.8283H486.368V29.0472H489.351V26.8283Z" fill="#181425"/>
<path d="M510.497 24.6094H507.515V26.8283H510.497V24.6094Z" fill="#181425"/>
<path d="M732.806 29.0472H729.824V31.2661H732.806V29.0472Z" fill="#181425"/>
<path d="M501.415 26.8283H498.433V29.0472H501.415V26.8283Z" fill="#181425"/>
<path d="M732.806 33.5858H729.824V35.8047H732.806V33.5858Z" fill="#181425"/>
<path d="M531.508 17.9528H528.526V20.1717H531.508V17.9528Z" fill="#181425"/>
<path d="M480.404 24.6094H477.422V26.8283H480.404V24.6094Z" fill="#181425"/>
<path d="M495.451 26.8283H492.468V29.0472H495.451V26.8283Z" fill="#181425"/>
<path d="M732.806 11.1953H729.824V13.4142H732.806V11.1953Z" fill="#181425"/>
<path d="M453.293 17.9528H450.311V20.1717H453.293V17.9528Z" fill="#181425"/>
<path d="M516.461 24.6094H513.479V26.8283H516.461V24.6094Z" fill="#181425"/>
<path d="M531.508 22.3906H528.526V24.6094H531.508V22.3906Z" fill="#181425"/>
<path d="M732.806 15.633H729.824V17.8519H732.806V15.633Z" fill="#181425"/>
<path d="M483.386 26.8283H480.404V29.0472H483.386V26.8283Z" fill="#181425"/>
<path d="M534.49 20.1717H531.508V22.3906H534.49V20.1717Z" fill="#181425"/>
<path d="M528.526 24.6094H525.544V26.8283H528.526V24.6094Z" fill="#181425"/>
<path d="M732.806 20.1717H729.824V22.3906H732.806V20.1717Z" fill="#181425"/>
<path d="M726.706 15.633H723.724V17.8519H726.706V15.633Z" fill="#181425"/>
<path d="M756.799 20.1717H753.817V22.3906H756.799V20.1717Z" fill="#181425"/>
<path d="M498.433 24.6094H495.451V26.8283H498.433V24.6094Z" fill="#181425"/>
<path d="M726.706 24.6094H723.724V26.8283H726.706V24.6094Z" fill="#181425"/>
<path d="M504.397 24.6094H501.415V26.8283H504.397V24.6094Z" fill="#181425"/>
<path d="M507.379 26.8283H504.397V29.0472H507.379V26.8283Z" fill="#181425"/>
<path d="M756.799 11.1953H753.817V13.4142H756.799V11.1953Z" fill="#181425"/>
<path d="M744.735 11.1953H741.753V13.4142H744.735V11.1953Z" fill="#181425"/>
<path d="M495.451 22.3906H492.468V24.6094H495.451V22.3906Z" fill="#181425"/>
<path d="M726.706 33.5858H723.724V35.8047H726.706V33.5858Z" fill="#181425"/>
<path d="M519.444 17.9528H516.461V20.1717H519.444V17.9528Z" fill="#181425"/>
<path d="M456.411 15.633H453.429V17.8519H456.411V15.633Z" fill="#181425"/>
<path d="M744.735 15.633H741.753V17.8519H744.735V15.633Z" fill="#181425"/>
<path d="M732.806 42.4614H729.824V44.6803H732.806V42.4614Z" fill="#181425"/>
<path d="M498.433 29.0472H495.451V31.2661H498.433V29.0472Z" fill="#181425"/>
<path d="M732.806 38.0236H729.824V40.2425H732.806V38.0236Z" fill="#181425"/>
<path d="M507.379 17.9528H504.397V20.1717H507.379V17.9528Z" fill="#181425"/>
<path d="M726.706 6.75751H723.724V8.97639H726.706V6.75751Z" fill="#181425"/>
<path d="M504.397 29.0472H501.415V31.2661H504.397V29.0472Z" fill="#181425"/>
<path d="M450.311 15.633H447.329V17.8519H450.311V15.633Z" fill="#181425"/>
<path d="M510.497 29.0472H507.515V31.2661H510.497V29.0472Z" fill="#181425"/>
<path d="M756.799 42.4614H753.817V44.6803H756.799V42.4614Z" fill="#181425"/>
<path d="M474.44 20.1717H471.457V22.3906H474.44V20.1717Z" fill="#181425"/>
<path d="M465.357 22.3906H462.375V24.6094H465.357V22.3906Z" fill="#181425"/>
<path d="M438.382 20.1717H435.4V22.3906H438.382V20.1717Z" fill="#181425"/>
<path d="M468.34 20.1717H465.357V22.3906H468.34V20.1717Z" fill="#181425"/>
<path d="M462.375 20.1717H459.393V22.3906H462.375V20.1717Z" fill="#181425"/>
<path d="M525.408 22.3906H522.426V24.6094H525.408V22.3906Z" fill="#181425"/>
<path d="M756.799 38.0236H753.817V40.2425H756.799V38.0236Z" fill="#181425"/>
<path d="M459.393 17.9528H456.411V20.1717H459.393V17.9528Z" fill="#181425"/>
<path d="M756.799 33.5858H753.817V35.8047H756.799V33.5858Z" fill="#181425"/>
<path d="M738.77 6.75751H735.788V8.97639H738.77V6.75751Z" fill="#181425"/>
<path d="M744.735 42.4614H741.753V44.6803H744.735V42.4614Z" fill="#181425"/>
<path d="M435.264 22.3906H432.282V24.6094H435.264V22.3906Z" fill="#181425"/>
<path d="M471.322 17.9528H468.34V20.1717H471.322V17.9528Z" fill="#181425"/>
<path d="M750.835 24.6094H747.852V26.8283H750.835V24.6094Z" fill="#181425"/>
<path d="M750.835 6.75751H747.852V8.97639H750.835V6.75751Z" fill="#181425"/>
<path d="M744.735 29.0472H741.753V31.2661H744.735V29.0472Z" fill="#181425"/>
<path d="M750.835 15.633H747.852V17.8519H750.835V15.633Z" fill="#181425"/>
<path d="M744.735 24.6094H741.753V26.8283H744.735V24.6094Z" fill="#181425"/>
<path d="M744.735 38.0236H741.753V40.2425H744.735V38.0236Z" fill="#181425"/>
<path d="M465.357 17.9528H462.375V20.1717H465.357V17.9528Z" fill="#181425"/>
<path d="M744.735 33.5858H741.753V35.8047H744.735V33.5858Z" fill="#181425"/>
<path d="M738.77 15.633H735.788V17.8519H738.77V15.633Z" fill="#181425"/>
<path d="M732.806 2.21888H729.824V4.43777H732.806V2.21888Z" fill="#181425"/>
<path d="M477.422 22.3906H474.44V24.6094H477.422V22.3906Z" fill="#181425"/>
<path d="M744.735 2.21888H741.753V4.43777H744.735V2.21888Z" fill="#181425"/>
<path d="M528.526 20.1717H525.544V22.3906H528.526V20.1717Z" fill="#181425"/>
<path d="M507.379 22.3906H504.397V24.6094H507.379V22.3906Z" fill="#181425"/>
<path d="M738.77 42.4614H735.788V44.6803H738.77V42.4614Z" fill="#181425"/>
<path d="M732.806 6.75751H729.824V8.97639H732.806V6.75751Z" fill="#181425"/>
<path d="M519.444 22.3906H516.461V24.6094H519.444V22.3906Z" fill="#181425"/>
<path d="M756.799 24.6094H753.817V26.8283H756.799V24.6094Z" fill="#181425"/>
<path d="M483.386 22.3906H480.404V24.6094H483.386V22.3906Z" fill="#181425"/>
<path d="M489.351 22.3906H486.368V24.6094H489.351V22.3906Z" fill="#181425"/>
<path d="M738.77 24.6094H735.788V26.8283H738.77V24.6094Z" fill="#181425"/>
<path d="M744.735 20.1717H741.753V22.3906H744.735V20.1717Z" fill="#181425"/>
<path d="M471.322 22.3906H468.34V24.6094H471.322V22.3906Z" fill="#181425"/>
<path d="M750.835 33.5858H747.852V35.8047H750.835V33.5858Z" fill="#181425"/>
<path d="M726.706 38.0236H723.724V40.2425H726.706V38.0236Z" fill="#181425"/>
<path d="M486.368 24.6094H483.386V26.8283H486.368V24.6094Z" fill="#181425"/>
<path d="M492.468 24.6094H489.486V26.8283H492.468V24.6094Z" fill="#181425"/>
<path d="M756.799 29.0472H753.817V31.2661H756.799V29.0472Z" fill="#181425"/>
<path d="M750.835 42.4614H747.852V44.6803H750.835V42.4614Z" fill="#181425"/>
<path d="M738.77 33.5858H735.788V35.8047H738.77V33.5858Z" fill="#181425"/>
<path d="M708.677 38.0236H705.695V40.2425H708.677V38.0236Z" fill="#181425"/>
<path d="M690.648 11.1953H687.666V13.4142H690.648V11.1953Z" fill="#181425"/>
<path d="M690.648 6.75751H687.666V8.97639H690.648V6.75751Z" fill="#181425"/>
<path d="M444.347 11.1953H441.364V13.4142H444.347V11.1953Z" fill="#181425"/>
<path d="M438.382 17.9528V20.1717H441.364V17.9528H444.347V15.633H441.364V13.4142H438.382V15.633H435.4V17.9528H438.382Z" fill="#181425"/>
<path d="M690.648 15.633H687.666V17.8519H690.648V15.633Z" fill="#181425"/>
<path d="M696.748 38.0236H693.766V40.2425H696.748V38.0236Z" fill="#181425"/>
<path d="M696.748 42.4614H693.766V44.6803H696.748V42.4614Z" fill="#181425"/>
<path d="M450.311 11.1953H447.329V13.4142H450.311V11.1953Z" fill="#181425"/>
<path d="M435.264 17.9528H432.282V20.1717H435.264V17.9528Z" fill="#181425"/>
<path d="M690.648 33.5858H687.666V35.8047H690.648V33.5858Z" fill="#181425"/>
<path d="M456.411 11.1953H453.429V13.4142H456.411V11.1953Z" fill="#181425"/>
<path d="M423.336 22.3906H420.354V24.6094H423.336V22.3906Z" fill="#181425"/>
<path d="M690.648 29.0472H687.666V31.2661H690.648V29.0472Z" fill="#181425"/>
<path d="M690.648 38.0236H687.666V40.2425H690.648V38.0236Z" fill="#181425"/>
<path d="M690.648 20.1717H687.666V22.3906H690.648V20.1717Z" fill="#181425"/>
<path d="M498.433 20.1717H495.451V22.3906H498.433V20.1717Z" fill="#181425"/>
<path d="M690.648 24.6094H687.666V26.8283H690.648V24.6094Z" fill="#181425"/>
<path d="M489.351 17.9528H486.368V20.1717H489.351V17.9528Z" fill="#181425"/>
<path d="M696.748 33.5858H693.766V35.8047H696.748V33.5858Z" fill="#181425"/>
<path d="M492.468 20.1717H489.486V22.3906H492.468V20.1717Z" fill="#181425"/>
<path d="M690.648 42.4614H687.666V44.6803H690.648V42.4614Z" fill="#181425"/>
<path d="M696.748 11.1953H693.766V13.4142H696.748V11.1953Z" fill="#181425"/>
<path d="M480.404 15.633H477.422V17.8519H480.404V15.633Z" fill="#181425"/>
<path d="M702.713 42.4614H699.731V44.6803H702.713V42.4614Z" fill="#181425"/>
<path d="M495.451 17.9528H492.468V20.1717H495.451V17.9528Z" fill="#181425"/>
<path d="M696.748 2.21888H693.766V4.43777H696.748V2.21888Z" fill="#181425"/>
<path d="M483.386 17.9528H480.404V20.1717H483.386V17.9528Z" fill="#181425"/>
<path d="M696.748 29.0472H693.766V31.2661H696.748V29.0472Z" fill="#181425"/>
<path d="M465.357 13.4142H462.375V15.633H465.357V13.4142Z" fill="#181425"/>
<path d="M696.748 24.6094H693.766V26.8283H696.748V24.6094Z" fill="#181425"/>
<path d="M462.375 11.1953H459.393V13.4142H462.375V11.1953Z" fill="#181425"/>
<path d="M696.748 15.633H693.766V17.8519H696.748V15.633Z" fill="#181425"/>
<path d="M477.422 13.4142H474.44V15.633H477.422V13.4142Z" fill="#181425"/>
<path d="M471.322 13.4142H468.34V15.633H471.322V13.4142Z" fill="#181425"/>
<path d="M696.748 20.1717H693.766V22.3906H696.748V20.1717Z" fill="#181425"/>
<path d="M432.282 20.1717H429.3V22.3906H432.282V20.1717Z" fill="#181425"/>
<path d="M678.72 20.1717H675.738V22.3906H678.72V20.1717Z" fill="#181425"/>
<path d="M402.325 20.1717H399.343V22.3906H402.325V20.1717Z" fill="#181425"/>
<path d="M399.207 22.3906H396.225V24.6094H399.207V22.3906Z" fill="#181425"/>
<path d="M678.72 29.0472H675.738V31.2661H678.72V29.0472Z" fill="#181425"/>
<path d="M678.72 24.6094H675.738V26.8283H678.72V24.6094Z" fill="#181425"/>
<path d="M426.318 20.1717H423.336V22.3906H426.318V20.1717Z" fill="#181425"/>
<path d="M678.72 11.1953H675.738V13.4142H678.72V11.1953Z" fill="#181425"/>
<path d="M399.207 17.9528H396.225V20.1717H399.207V17.9528Z" fill="#181425"/>
<path d="M396.225 20.1717H393.243V22.3906H396.225V20.1717Z" fill="#181425"/>
<path d="M423.336 26.8283H420.354V29.0472H423.336V26.8283Z" fill="#181425"/>
<path d="M678.72 42.4614H675.738V44.6803H678.72V42.4614Z" fill="#181425"/>
<path d="M420.354 26.8283V24.6094H417.371V22.3906H414.254V24.6094H411.271V26.8283H414.254V29.0472H417.371V26.8283H420.354Z" fill="#181425"/>
<path d="M672.62 2.21888H669.638V4.43777H672.62V2.21888Z" fill="#181425"/>
<path d="M678.72 33.5858H675.738V35.8047H678.72V33.5858Z" fill="#181425"/>
<path d="M408.289 26.8283V24.6094H405.307V22.3906H402.325V24.6094H399.343V26.8283H402.325V29.0472H405.307V26.8283H408.289Z" fill="#181425"/>
<path d="M678.72 38.0236H675.738V40.2425H678.72V38.0236Z" fill="#181425"/>
<path d="M411.271 26.8283H408.289V29.0472H411.271V26.8283Z" fill="#181425"/>
<path d="M678.72 15.633H675.738V17.8519H678.72V15.633Z" fill="#181425"/>
<path d="M420.354 20.1717H417.371V22.3906H420.354V20.1717Z" fill="#181425"/>
<path d="M684.684 15.633H681.702V17.8519H684.684V15.633Z" fill="#181425"/>
<path d="M684.684 11.1953H681.702V13.4142H684.684V11.1953Z" fill="#181425"/>
<path d="M684.684 20.1717H681.702V22.3906H684.684V20.1717Z" fill="#181425"/>
<path d="M684.684 2.21888H681.702V4.43777H684.684V2.21888Z" fill="#181425"/>
<path d="M684.684 6.75751H681.702V8.97639H684.684V6.75751Z" fill="#181425"/>
<path d="M684.684 24.6094H681.702V26.8283H684.684V24.6094Z" fill="#181425"/>
<path d="M678.72 6.75751H675.738V8.97639H678.72V6.75751Z" fill="#181425"/>
<path d="M423.336 17.9528H420.354V20.1717H423.336V17.9528Z" fill="#181425"/>
<path d="M411.271 22.3906H408.289V24.6094H411.271V22.3906Z" fill="#181425"/>
<path d="M684.684 42.4614H681.702V44.6803H684.684V42.4614Z" fill="#181425"/>
<path d="M408.289 20.1717H405.307V22.3906H408.289V20.1717Z" fill="#181425"/>
<path d="M678.72 2.21888H675.738V4.43777H678.72V2.21888Z" fill="#181425"/>
<path d="M411.271 17.9528H408.289V20.1717H411.271V17.9528Z" fill="#181425"/>
<path d="M684.684 29.0472H681.702V31.2661H684.684V29.0472Z" fill="#181425"/>
<path d="M684.684 33.5858H681.702V35.8047H684.684V33.5858Z" fill="#181425"/>
<path d="M414.254 20.1717H411.271V22.3906H414.254V20.1717Z" fill="#181425"/>
<path d="M696.748 6.75751H693.766V8.97639H696.748V6.75751Z" fill="#181425"/>
<path d="M447.329 13.4142H444.347V15.633H447.329V13.4142Z" fill="#181425"/>
<path d="M444.347 20.1717H441.364V22.3906H444.347V20.1717Z" fill="#181425"/>
<path d="M714.777 6.75751H711.795V8.97639H714.777V6.75751Z" fill="#181425"/>
<path d="M714.777 15.633H711.795V17.8519H714.777V15.633Z" fill="#181425"/>
<path d="M447.329 17.9528H444.347V20.1717H447.329V17.9528Z" fill="#181425"/>
<path d="M720.742 42.4614H717.759V44.6803H720.742V42.4614Z" fill="#181425"/>
<path d="M720.742 38.0236H717.759V40.2425H720.742V38.0236Z" fill="#181425"/>
<path d="M450.311 20.1717H447.329V22.3906H450.311V20.1717Z" fill="#181425"/>
<path d="M447.329 22.3906H444.347V24.6094H447.329V22.3906Z" fill="#181425"/>
<path d="M714.777 42.4614H711.795V44.6803H714.777V42.4614Z" fill="#181425"/>
<path d="M714.777 33.5858H711.795V35.8047H714.777V33.5858Z" fill="#181425"/>
<path d="M714.777 38.0236H711.795V40.2425H714.777V38.0236Z" fill="#181425"/>
<path d="M468.34 24.6094H465.357V26.8283H468.34V24.6094Z" fill="#181425"/>
<path d="M456.411 20.1717H453.429V22.3906H456.411V20.1717Z" fill="#181425"/>
<path d="M714.777 24.6094H711.795V26.8283H714.777V24.6094Z" fill="#181425"/>
<path d="M714.777 29.0472H711.795V31.2661H714.777V29.0472Z" fill="#181425"/>
<path d="M459.393 22.3906H456.411V24.6094H459.393V22.3906Z" fill="#181425"/>
<path d="M462.375 24.6094H459.393V26.8283H462.375V24.6094Z" fill="#181425"/>
<path d="M477.422 17.9528H474.44V20.1717H477.422V17.9528Z" fill="#181425"/>
<path d="M480.404 20.1717H477.422V22.3906H480.404V20.1717Z" fill="#181425"/>
<path d="M720.742 6.75751H717.759V8.97639H720.742V6.75751Z" fill="#181425"/>
<path d="M720.742 11.1953H717.759V13.4142H720.742V11.1953Z" fill="#181425"/>
<path d="M726.706 42.4614H723.724V44.6803H726.706V42.4614Z" fill="#181425"/>
<path d="M720.742 2.21888H717.759V4.43777H720.742V2.21888Z" fill="#181425"/>
<path d="M474.44 15.633H471.457V17.8519H474.44V15.633Z" fill="#181425"/>
<path d="M720.742 33.5858H717.759V35.8047H720.742V33.5858Z" fill="#181425"/>
<path d="M486.368 20.1717H483.386V22.3906H486.368V20.1717Z" fill="#181425"/>
<path d="M720.742 29.0472H717.759V31.2661H720.742V29.0472Z" fill="#181425"/>
<path d="M720.742 24.6094H717.759V26.8283H720.742V24.6094Z" fill="#181425"/>
<path d="M459.393 13.4142H456.411V15.633H459.393V13.4142Z" fill="#181425"/>
<path d="M453.293 13.4142H450.311V15.633H453.293V13.4142Z" fill="#181425"/>
<path d="M720.742 20.1717H717.759V22.3906H720.742V20.1717Z" fill="#181425"/>
<path d="M468.34 15.633H465.357V17.8519H468.34V15.633Z" fill="#181425"/>
<path d="M462.375 15.633H459.393V17.8519H462.375V15.633Z" fill="#181425"/>
<path d="M720.742 15.633H717.759V17.8519H720.742V15.633Z" fill="#181425"/>
<path d="M708.677 15.633H705.695V17.8519H708.677V15.633Z" fill="#181425"/>
<path d="M522.426 20.1717H519.444V22.3906H522.426V20.1717Z" fill="#181425"/>
<path d="M522.426 24.6094H519.444V26.8283H522.426V24.6094Z" fill="#181425"/>
<path d="M702.713 6.75751H699.731V8.97639H702.713V6.75751Z" fill="#181425"/>
<path d="M702.713 15.633H699.731V17.8519H702.713V15.633Z" fill="#181425"/>
<path d="M519.444 26.8283H516.461V29.0472H519.444V26.8283Z" fill="#181425"/>
<path d="M708.677 42.4614H705.695V44.6803H708.677V42.4614Z" fill="#181425"/>
<path d="M756.799 2.21888H753.817V4.43777H756.799V2.21888Z" fill="#181425"/>
<path d="M516.461 20.1717H513.479V22.3906H516.461V20.1717Z" fill="#181425"/>
<path d="M702.713 29.0472H699.731V31.2661H702.713V29.0472Z" fill="#181425"/>
<path d="M504.397 20.1717H501.415V22.3906H504.397V20.1717Z" fill="#181425"/>
<path d="M702.713 33.5858H699.731V35.8047H702.713V33.5858Z" fill="#181425"/>
<path d="M501.415 22.3906H498.433V24.6094H501.415V22.3906Z" fill="#181425"/>
<path d="M516.461 29.0472H513.479V31.2661H516.461V29.0472Z" fill="#181425"/>
<path d="M513.479 22.3906H510.497V24.6094H513.479V22.3906Z" fill="#181425"/>
<path d="M702.713 20.1717H699.731V22.3906H702.713V20.1717Z" fill="#181425"/>
<path d="M702.713 24.6094H699.731V26.8283H702.713V24.6094Z" fill="#181425"/>
<path d="M510.497 20.1717H507.515V22.3906H510.497V20.1717Z" fill="#181425"/>
<path d="M474.44 24.6094H471.457V26.8283H474.44V24.6094Z" fill="#181425"/>
<path d="M708.677 11.1953H705.695V13.4142H708.677V11.1953Z" fill="#181425"/>
<path d="M486.368 29.0472H483.386V31.2661H486.368V29.0472Z" fill="#181425"/>
<path d="M480.404 29.0472H477.422V31.2661H480.404V29.0472Z" fill="#181425"/>
<path d="M702.713 38.0236H699.731V40.2425H702.713V38.0236Z" fill="#181425"/>
<path d="M492.468 29.0472H489.486V31.2661H492.468V29.0472Z" fill="#181425"/>
<path d="M708.677 2.21888H705.695V4.43777H708.677V2.21888Z" fill="#181425"/>
<path d="M708.677 6.75751H705.695V8.97639H708.677V6.75751Z" fill="#181425"/>
<path d="M477.422 26.8283H474.44V29.0472H477.422V26.8283Z" fill="#181425"/>
<path d="M507.379 31.2661H504.397V33.485H507.379V31.2661Z" fill="#181425"/>
<path d="M513.479 31.2661H510.497V33.485H513.479V31.2661Z" fill="#181425"/>
<path d="M708.677 29.0472H705.695V31.2661H708.677V29.0472Z" fill="#181425"/>
<path d="M708.677 33.5858H705.695V35.8047H708.677V33.5858Z" fill="#181425"/>
<path d="M708.677 20.1717H705.695V22.3906H708.677V20.1717Z" fill="#181425"/>
<path d="M495.451 31.2661H492.468V33.485H495.451V31.2661Z" fill="#181425"/>
<path d="M501.415 31.2661H498.433V33.485H501.415V31.2661Z" fill="#181425"/>
<path d="M708.677 24.6094H705.695V26.8283H708.677V24.6094Z" fill="#181425"/>
<path d="M594.541 24.6094H591.558V26.8283H594.541V24.6094Z" fill="#181425"/>
<path d="M606.605 6.75751H603.623V8.97639H606.605V6.75751Z" fill="#181425"/>
<path d="M612.569 11.1953H609.587V13.4142H612.569V11.1953Z" fill="#181425"/>
<path d="M600.505 15.633H597.523V17.8519H600.505V15.633Z" fill="#181425"/>
<path d="M597.523 13.4142H594.541V15.633H597.523V13.4142Z" fill="#181425"/>
<path d="M612.569 6.75751H609.587V8.97639H612.569V6.75751Z" fill="#181425"/>
<path d="M600.505 11.1953H597.523V13.4142H600.505V11.1953Z" fill="#181425"/>
<path d="M606.605 11.1953H603.623V13.4142H606.605V11.1953Z" fill="#181425"/>
<path d="M594.541 15.633H591.558V17.8519H594.541V15.633Z" fill="#181425"/>
<path d="M609.587 22.3906H606.605V24.6094H609.587V22.3906Z" fill="#181425"/>
<path d="M606.605 2.21888H603.623V4.43777H606.605V2.21888Z" fill="#181425"/>
<path d="M612.569 2.21888H609.587V4.43777H612.569V2.21888Z" fill="#181425"/>
<path d="M606.605 20.1717H603.623V22.3906H606.605V20.1717Z" fill="#181425"/>
<path d="M612.569 20.1717H609.587V22.3906H612.569V20.1717Z" fill="#181425"/>
<path d="M609.587 4.53863H606.605V6.75751H609.587V4.53863Z" fill="#181425"/>
<path d="M600.505 20.1717H597.523V22.3906H600.505V20.1717Z" fill="#181425"/>
<path d="M594.541 11.1953H591.558V13.4142H594.541V11.1953Z" fill="#181425"/>
<path d="M600.505 2.21888H597.523V4.43777H600.505V2.21888Z" fill="#181425"/>
<path d="M594.541 2.21888H591.558V4.43777H594.541V2.21888Z" fill="#181425"/>
<path d="M585.594 4.53863H582.612V6.75751H585.594V4.53863Z" fill="#181425"/>
<path d="M597.523 4.53863H594.541V6.75751H597.523V4.53863Z" fill="#181425"/>
<path d="M594.541 6.75751H591.558V8.97639H594.541V6.75751Z" fill="#181425"/>
<path d="M600.505 6.75751H597.523V8.97639H600.505V6.75751Z" fill="#181425"/>
<path d="M588.576 2.21888H585.594V4.43777H588.576V2.21888Z" fill="#181425"/>
<path d="M588.576 11.1953H585.594V13.4142H588.576V11.1953Z" fill="#181425"/>
<path d="M606.605 15.633H603.623V17.8519H606.605V15.633Z" fill="#181425"/>
<path d="M609.587 13.4142H606.605V15.633H609.587V13.4142Z" fill="#181425"/>
<path d="M582.476 6.75751H579.494V8.97639H582.476V6.75751Z" fill="#181425"/>
<path d="M612.569 24.6094H609.587V26.8283H612.569V24.6094Z" fill="#181425"/>
<path d="M588.576 6.75751H585.594V8.97639H588.576V6.75751Z" fill="#181425"/>
<path d="M612.569 15.633H609.587V17.8519H612.569V15.633Z" fill="#181425"/>
<path d="M621.651 13.4142H618.669V15.633H621.651V13.4142Z" fill="#181425"/>
<path d="M636.562 42.4614H633.58V44.6803H636.562V42.4614Z" fill="#181425"/>
<path d="M618.534 15.633H615.552V17.8519H618.534V15.633Z" fill="#181425"/>
<path d="M870.936 33.5858H867.953V35.8047H870.936V33.5858Z" fill="#181425"/>
<path d="M624.634 15.633H621.651V17.8519H624.634V15.633Z" fill="#181425"/>
<path d="M555.501 40.2425H552.519V42.4614H555.501V40.2425Z" fill="#181425"/>
<path d="M870.936 42.4614H867.953V44.6803H870.936V42.4614Z" fill="#181425"/>
<path d="M543.437 40.2425H540.455V42.4614H543.437V40.2425Z" fill="#181425"/>
<path d="M883 42.4614H880.018V44.6803H883V42.4614Z" fill="#181425"/>
<path d="M846.943 24.6094H843.96V26.8283H846.943V24.6094Z" fill="#181425"/>
<path d="M846.943 33.5858H843.96V35.8047H846.943V33.5858Z" fill="#181425"/>
<path d="M859.007 24.6094H856.025V26.8283H859.007V24.6094Z" fill="#181425"/>
<path d="M846.943 15.633H843.96V17.8519H846.943V15.633Z" fill="#181425"/>
<path d="M859.007 42.4614H856.025V44.6803H859.007V42.4614Z" fill="#181425"/>
<path d="M859.007 33.5858H856.025V35.8047H859.007V33.5858Z" fill="#181425"/>
<path d="M624.634 11.1953H621.651V13.4142H624.634V11.1953Z" fill="#181425"/>
<path d="M621.651 22.3906H618.669V24.6094H621.651V22.3906Z" fill="#181425"/>
<path d="M624.634 29.0472H621.651V31.2661H624.634V29.0472Z" fill="#181425"/>
<path d="M621.651 31.2661H618.669V33.485H621.651V31.2661Z" fill="#181425"/>
<path d="M567.565 40.2425H564.583V42.4614H567.565V40.2425Z" fill="#181425"/>
<path d="M618.534 29.0472H615.552V31.2661H618.534V29.0472Z" fill="#181425"/>
<path d="M606.605 24.6094H603.623V26.8283H606.605V24.6094Z" fill="#181425"/>
<path d="M624.634 24.6094H621.651V26.8283H624.634V24.6094Z" fill="#181425"/>
<path d="M612.569 29.0472H609.587V31.2661H612.569V29.0472Z" fill="#181425"/>
<path d="M618.534 24.6094H615.552V26.8283H618.534V24.6094Z" fill="#181425"/>
<path d="M618.534 20.1717H615.552V22.3906H618.534V20.1717Z" fill="#181425"/>
<path d="M762.763 42.4614H759.781V44.6803H762.763V42.4614Z" fill="#181425"/>
<path d="M615.552 35.8047H612.569V38.0236H615.552V35.8047Z" fill="#181425"/>
<path d="M624.634 33.5858H621.651V35.8047H624.634V33.5858Z" fill="#181425"/>
<path d="M618.534 33.5858H615.552V35.8047L618.534 35.8047V33.5858Z" fill="#181425"/>
<path d="M624.634 20.1717H621.651V22.3906H624.634V20.1717Z" fill="#181425"/>
<path d="M447.329 44.6803H444.347V46.8991H447.329V44.6803Z" fill="#181425"/>
<path d="M423.336 44.6803H420.354V46.8991H423.336V44.6803Z" fill="#181425"/>
<path d="M417.236 0H414.254V2.21888H417.236V0Z" fill="#181425"/>
<path d="M423.336 0H420.354V2.21888H423.336V0Z" fill="#181425"/>
<path d="M411.271 0H408.289V2.21888H411.271V0Z" fill="#181425"/>
<path d="M429.3 0H426.318V2.21888H429.3V0Z" fill="#181425"/>
<path d="M405.307 0H402.325V2.21888H405.307V0Z" fill="#181425"/>
<path d="M411.271 44.6803H408.289V46.8991H411.271V44.6803Z" fill="#181425"/>
<path d="M441.364 0H438.382V2.21888H441.364V0Z" fill="#181425"/>
<path d="M447.329 0H444.347V2.21888H447.329V0Z" fill="#181425"/>
<path d="M582.476 2.21888H579.494V4.43777H582.476V2.21888Z" fill="#181425"/>
<path d="M453.293 0H450.311V2.21888H453.293V0Z" fill="#181425"/>
<path d="M435.264 44.6803H432.282V46.8991H435.264V44.6803Z" fill="#181425"/>
<path d="M846.943 42.4614H843.96V44.6803H846.943V42.4614Z" fill="#181425"/>
<path d="M435.264 0H432.282V2.21888H435.264V0Z" fill="#181425"/>
<path d="M399.207 0H396.225V2.21888H399.207V0Z" fill="#181425"/>
<path d="M381.178 0H378.196V2.21888H381.178V0Z" fill="#181425"/>
<path d="M369.25 0H366.267V2.21888H369.25V0Z" fill="#181425"/>
<path d="M357.185 0H354.203V2.21888H357.185V0Z" fill="#181425"/>
<path d="M345.121 0H342.139V2.21888H345.121V0Z" fill="#181425"/>
<path d="M285.07 0H282.088V2.21888H285.07V0Z" fill="#181425"/>
<path d="M333.192 0H330.21V2.21888H333.192V0Z" fill="#181425"/>
<path d="M321.128 0H318.146V2.21888H321.128V0Z" fill="#181425"/>
<path d="M297.135 0H294.153V2.21888H297.135V0Z" fill="#181425"/>
<path d="M399.207 44.6803H396.225V46.8991H399.207V44.6803Z" fill="#181425"/>
<path d="M387.278 0H384.296V2.21888H387.278V0Z" fill="#181425"/>
<path d="M387.278 44.6803H384.296V46.8991H387.278V44.6803Z" fill="#181425"/>
<path d="M393.243 0H390.26V2.21888H393.243V0Z" fill="#181425"/>
<path d="M375.214 0H372.232V2.21888H375.214V0Z" fill="#181425"/>
<path d="M459.393 0H456.411V2.21888H459.393V0Z" fill="#181425"/>
<path d="M273.006 0H270.024V2.21888H273.006V0Z" fill="#181425"/>
<path d="M459.393 44.6803H456.411V46.8991H459.393V44.6803Z" fill="#181425"/>
<path d="M543.437 0H540.455V2.21888H543.437V0Z" fill="#181425"/>
<path d="M579.494 44.6803H576.512V46.8991H579.494V44.6803Z" fill="#181425"/>
<path d="M567.565 44.6803H564.583V46.8991H567.565V44.6803Z" fill="#181425"/>
<path d="M531.508 0H528.526V2.21888H531.508V0Z" fill="#181425"/>
<path d="M543.437 44.6803H540.455V46.8991H543.437V44.6803Z" fill="#181425"/>
<path d="M555.501 44.6803H552.519V46.8991H555.501V44.6803Z" fill="#181425"/>
<path d="M555.501 0H552.519V2.21888H555.501V0Z" fill="#181425"/>
<path d="M567.565 0H564.583V2.21888H567.565V0Z" fill="#181425"/>
<path d="M576.512 2.21888H573.53V4.43777H576.512V2.21888Z" fill="#181425"/>
<path d="M615.552 44.6803H612.569V46.8991H615.552V44.6803Z" fill="#181425"/>
<path d="M627.616 44.6803H624.634V46.8991H627.616V44.6803Z" fill="#181425"/>
<path d="M519.444 0H516.461V2.21888H519.444V0Z" fill="#181425"/>
<path d="M603.623 44.6803H600.641V46.8991H603.623V44.6803Z" fill="#181425"/>
<path d="M591.558 44.6803H588.576V46.8991H591.558V44.6803Z" fill="#181425"/>
<path d="M513.479 44.6803H510.497V46.8991H513.479V44.6803Z" fill="#181425"/>
<path d="M483.386 0H480.404V2.21888H483.386V0Z" fill="#181425"/>
<path d="M489.351 44.6803H486.368V46.8991H489.351V44.6803Z" fill="#181425"/>
<path d="M495.451 44.6803H492.468V46.8991H495.451V44.6803Z" fill="#181425"/>
<path d="M465.357 0H462.375V2.21888H465.357V0Z" fill="#181425"/>
<path d="M501.415 44.6803H498.433V46.8991H501.415V44.6803Z" fill="#181425"/>
<path d="M471.322 0H468.34V2.21888H471.322V0Z" fill="#181425"/>
<path d="M483.386 44.6803H480.404V46.8991H483.386V44.6803Z" fill="#181425"/>
<path d="M507.379 44.6803H504.397V46.8991H507.379V44.6803Z" fill="#181425"/>
<path d="M519.444 44.6803H516.461V46.8991H519.444V44.6803Z" fill="#181425"/>
<path d="M525.408 44.6803H522.426V46.8991H525.408V44.6803Z" fill="#181425"/>
<path d="M495.451 0H492.468V2.21888H495.451V0Z" fill="#181425"/>
<path d="M507.379 0H504.397V2.21888H507.379V0Z" fill="#181425"/>
<path d="M471.322 44.6803H468.34V46.8991H471.322V44.6803Z" fill="#181425"/>
<path d="M531.508 44.6803H528.526V46.8991H531.508V44.6803Z" fill="#181425"/>
<path d="M618.534 38.0236H615.552V40.2425H618.534V38.0236Z" fill="#181425"/>
<path d="M579.494 26.8283H576.512V29.0472H579.494V26.8283Z" fill="#181425"/>
<path d="M582.476 24.6094H579.494V26.8283H582.476V24.6094Z" fill="#181425"/>
<path d="M582.476 29.0472H579.494V31.2661H582.476V29.0472Z" fill="#181425"/>
<path d="M666.655 2.21888H663.673V4.43777H666.655V2.21888Z" fill="#181425"/>
<path d="M666.655 6.75751H663.673V8.97639H666.655V6.75751Z" fill="#181425"/>
<path d="M666.655 11.1953H663.673V13.4142H666.655V11.1953Z" fill="#181425"/>
<path d="M576.512 20.1717H573.53V22.3906H576.512V20.1717Z" fill="#181425"/>
<path d="M780.792 11.1953H777.81V13.4142H780.792V11.1953Z" fill="#181425"/>
<path d="M780.792 2.21888H777.81V4.43777H780.792V2.21888Z" fill="#181425"/>
<path d="M786.892 42.4614H783.91V44.6803H786.892V42.4614Z" fill="#181425"/>
<path d="M555.501 31.2661H552.519V33.485H555.501V31.2661Z" fill="#181425"/>
<path d="M570.548 15.633H567.565V17.8519H570.548V15.633Z" fill="#181425"/>
<path d="M543.437 31.2661H540.455V33.485H543.437V31.2661Z" fill="#181425"/>
<path d="M786.892 6.75751H783.91V8.97639H786.892V6.75751Z" fill="#181425"/>
<path d="M780.792 20.1717H777.81V22.3906H780.792V20.1717Z" fill="#181425"/>
<path d="M786.892 33.5858H783.91V35.8047H786.892V33.5858Z" fill="#181425"/>
<path d="M495.451 8.97639H492.468V11.1953H495.451V8.97639Z" fill="#181425"/>
<path d="M666.655 33.5858H663.673V35.8047H666.655V33.5858Z" fill="#181425"/>
<path d="M654.591 2.21888H651.609V4.43777H654.591V2.21888Z" fill="#181425"/>
<path d="M666.655 29.0472H663.673V31.2661H666.655V29.0472Z" fill="#181425"/>
<path d="M654.591 6.75751H651.609V8.97639H654.591V6.75751Z" fill="#181425"/>
<path d="M786.892 24.6094H783.91V26.8283H786.892V24.6094Z" fill="#181425"/>
<path d="M786.892 15.633H783.91V17.8519H786.892V15.633Z" fill="#181425"/>
<path d="M432.282 26.8283V24.6094H429.3V22.3906H426.318V24.6094H423.336V26.8283H426.318V29.0472H429.3V26.8283H432.282Z" fill="#181425"/>
<path d="M666.655 15.633H663.673V17.8519H666.655V15.633Z" fill="#181425"/>
<path d="M666.655 20.1717H663.673V22.3906H666.655V20.1717Z" fill="#181425"/>
<path d="M564.448 11.1953H561.465V13.4142H564.448V11.1953Z" fill="#181425"/>
<path d="M507.379 8.97639H504.397V11.1953H507.379V8.97639Z" fill="#181425"/>
<path d="M666.655 24.6094H663.673V26.8283H666.655V24.6094Z" fill="#181425"/>
<path d="M519.444 8.97639H516.461V11.1953H519.444V8.97639Z" fill="#181425"/>
<path d="M528.526 33.5858H525.544V35.8047H528.526V33.5858Z" fill="#181425"/>
<path d="M768.863 20.1717H765.881V22.3906H768.863V20.1717Z" fill="#181425"/>
<path d="M564.448 24.6094H561.465V26.8283H564.448V24.6094Z" fill="#181425"/>
<path d="M768.863 11.1953H765.881V13.4142H768.863V11.1953Z" fill="#181425"/>
<path d="M561.465 22.3906H558.483V24.6094H561.465V22.3906Z" fill="#181425"/>
<path d="M768.863 33.5858H765.881V35.8047H768.863V33.5858Z" fill="#181425"/>
<path d="M555.501 26.8283H552.519V29.0472H555.501V26.8283Z" fill="#181425"/>
<path d="M543.437 26.8283H540.455V29.0472H543.437V26.8283Z" fill="#181425"/>
<path d="M768.863 29.0472H765.881V31.2661H768.863V29.0472Z" fill="#181425"/>
<path d="M762.763 24.6094H759.781V26.8283H762.763V24.6094Z" fill="#181425"/>
<path d="M768.863 38.0236H765.881V40.2425H768.863V38.0236Z" fill="#181425"/>
<path d="M762.763 15.633H759.781V17.8519H762.763V15.633Z" fill="#181425"/>
<path d="M780.792 29.0472H777.81V31.2661H780.792V29.0472Z" fill="#181425"/>
<path d="M762.763 6.75751H759.781V8.97639H762.763V6.75751Z" fill="#181425"/>
<path d="M768.863 42.4614H765.881V44.6803H768.863V42.4614Z" fill="#181425"/>
<path d="M762.763 33.5858H759.781V35.8047H762.763V33.5858Z" fill="#181425"/>
<path d="M774.828 24.6094H771.846V26.8283H774.828V24.6094Z" fill="#181425"/>
<path d="M774.828 42.4614H771.846V44.6803H774.828V42.4614Z" fill="#181425"/>
<path d="M774.828 33.5858H771.846V35.8047H774.828V33.5858Z" fill="#181425"/>
<path d="M774.828 15.633H771.846V17.8519H774.828V15.633Z" fill="#181425"/>
<path d="M780.792 38.0236H777.81V40.2425H780.792V38.0236Z" fill="#181425"/>
<path d="M780.792 42.4614H777.81V44.6803H780.792V42.4614Z" fill="#181425"/>
<path d="M774.828 6.75751H771.846V8.97639H774.828V6.75751Z" fill="#181425"/>
<path d="M768.863 2.21888H765.881V4.43777H768.863V2.21888Z" fill="#181425"/>
<path d="M519.444 13.4142H516.461V15.633H519.444V13.4142Z" fill="#181425"/>
<path d="M531.508 13.4142H528.526V15.633H531.508V13.4142Z" fill="#181425"/>
<path d="M564.448 20.1717H561.465V22.3906H564.448V20.1717Z" fill="#181425"/>
<path d="M558.483 15.633H555.501V17.8519H558.483V15.633Z" fill="#181425"/>
<path d="M495.451 13.4142H492.468V15.633H495.451V13.4142Z" fill="#181425"/>
<path d="M507.379 13.4142H504.397V15.633H507.379V13.4142Z" fill="#181425"/>
<path d="M600.505 29.0472H597.523V31.2661H600.505V29.0472Z" fill="#181425"/>
<path d="M621.651 4.53863H618.669V6.75751H621.651V4.53863Z" fill="#181425"/>
<path d="M507.379 4.53863H504.397V6.75751H507.379V4.53863Z" fill="#181425"/>
<path d="M519.444 4.53863H516.461V6.75751H519.444V4.53863Z" fill="#181425"/>
<path d="M495.451 4.53863H492.468V6.75751H495.451V4.53863Z" fill="#181425"/>
<path d="M810.885 6.75751H807.903V8.97639H810.885V6.75751Z" fill="#181425"/>
<path d="M483.386 4.53863H480.404V6.75751H483.386V4.53863Z" fill="#181425"/>
<path d="M810.885 15.633H807.903V17.8519H810.885V15.633Z" fill="#181425"/>
<path d="M618.534 2.21888H615.552V4.43777H618.534V2.21888Z" fill="#181425"/>
<path d="M816.85 38.0236H813.867V40.2425H816.85V38.0236Z" fill="#181425"/>
<path d="M309.064 0H306.081V2.21888H309.064V0Z" fill="#181425"/>
<path d="M570.548 6.75751H567.565V8.97639H570.548V6.75751Z" fill="#181425"/>
<path d="M588.576 20.1717H585.594V22.3906H588.576V20.1717Z" fill="#181425"/>
<path d="M582.476 15.633H579.494V17.8519H582.476V15.633Z" fill="#181425"/>
<path d="M576.512 11.1953H573.53V13.4142H576.512V11.1953Z" fill="#181425"/>
<path d="M624.634 2.21888H621.651V4.43777H624.634V2.21888Z" fill="#181425"/>
<path d="M834.878 24.6094H831.896V26.8283H834.878V24.6094Z" fill="#181425"/>
<path d="M834.878 42.4614H831.896V44.6803H834.878V42.4614Z" fill="#181425"/>
<path d="M834.878 33.5858H831.896V35.8047H834.878V33.5858Z" fill="#181425"/>
<path d="M618.534 6.75751H615.552V8.97639H618.534V6.75751Z" fill="#181425"/>
<path d="M618.534 11.1953H615.552V13.4142H618.534V11.1953Z" fill="#181425"/>
<path d="M828.914 38.0236H825.932V40.2425H828.914V38.0236Z" fill="#181425"/>
<path d="M834.878 15.633H831.896V17.8519H834.878V15.633Z" fill="#181425"/>
<path d="M834.878 6.75751H831.896V8.97639H834.878V6.75751Z" fill="#181425"/>
<path d="M816.85 29.0472H813.867V31.2661H816.85V29.0472Z" fill="#181425"/>
<path d="M822.949 33.5858H819.967V35.8047H822.949V33.5858Z" fill="#181425"/>
<path d="M624.634 6.75751H621.651V8.97639H624.634V6.75751Z" fill="#181425"/>
<path d="M822.949 42.4614H819.967V44.6803H822.949V42.4614Z" fill="#181425"/>
<path d="M822.949 6.75751H819.967V8.97639H822.949V6.75751Z" fill="#181425"/>
<path d="M822.949 24.6094H819.967V26.8283H822.949V24.6094Z" fill="#181425"/>
<path d="M822.949 15.633H819.967V17.8519H822.949V15.633Z" fill="#181425"/>
<path d="M630.598 2.21888H627.616V4.43777H630.598V2.21888Z" fill="#181425"/>
<path d="M798.821 24.6094H795.839V26.8283H798.821V24.6094Z" fill="#181425"/>
<path d="M654.591 24.6094H651.609V26.8283H654.591V24.6094Z" fill="#181425"/>
<path d="M654.591 20.1717H651.609V22.3906H654.591V20.1717Z" fill="#181425"/>
<path d="M798.821 33.5858H795.839V35.8047H798.821V33.5858Z" fill="#181425"/>
<path d="M642.662 2.21888H639.68V4.43777H642.662V2.21888Z" fill="#181425"/>
<path d="M798.821 6.75751H795.839V8.97639H798.821V6.75751Z" fill="#181425"/>
<path d="M798.821 15.633H795.839V17.8519H798.821V15.633Z" fill="#181425"/>
<path d="M798.821 42.4614H795.839V44.6803H798.821V42.4614Z" fill="#181425"/>
<path d="M804.921 38.0236H801.939V40.2425H804.921V38.0236Z" fill="#181425"/>
<path d="M792.856 29.0472H789.874V31.2661H792.856V29.0472Z" fill="#181425"/>
<path d="M654.591 11.1953H651.609V13.4142H654.591V11.1953Z" fill="#181425"/>
<path d="M792.856 20.1717H789.874V22.3906H792.856V20.1717Z" fill="#181425"/>
<path d="M654.591 15.633H651.609V17.8519H654.591V15.633Z" fill="#181425"/>
<path d="M792.856 11.1953H789.874V13.4142H792.856V11.1953Z" fill="#181425"/>
<path d="M642.662 11.1953H639.68V13.4142H642.662V11.1953Z" fill="#181425"/>
<path d="M804.921 29.0472H801.939V31.2661H804.921V29.0472Z" fill="#181425"/>
<path d="M543.437 35.8047H540.455V38.0236H543.437V35.8047Z" fill="#181425"/>
<path d="M567.565 35.8047H564.583V38.0236H567.565V35.8047Z" fill="#181425"/>
<path d="M555.501 35.8047H552.519V38.0236H555.501V35.8047Z" fill="#181425"/>
<path d="M792.856 38.0236H789.874V40.2425H792.856V38.0236Z" fill="#181425"/>
<path d="M600.505 33.5858H597.523V35.8047H600.505V33.5858Z" fill="#181425"/>
<path d="M597.523 31.2661H594.541V33.485H597.523V31.2661Z" fill="#181425"/>
<path d="M642.662 15.633H639.68V17.8519H642.662V15.633Z" fill="#181425"/>
<path d="M804.921 20.1717H801.939V22.3906H804.921V20.1717Z" fill="#181425"/>
<path d="M642.662 6.75751H639.68V8.97639H642.662V6.75751Z" fill="#181425"/>
<path d="M810.885 24.6094H807.903V26.8283H810.885V24.6094Z" fill="#181425"/>
<path d="M810.885 42.4614H807.903V44.6803H810.885V42.4614Z" fill="#181425"/>
<path d="M630.598 6.75751H627.616V8.97639H630.598V6.75751Z" fill="#181425"/>
<path d="M810.885 33.5858H807.903V35.8047H810.885V33.5858Z" fill="#181425"/>
<path d="M684.684 38.0236H681.702V40.2425H684.684V38.0236Z" fill="#181425"/>
<path d="M588.576 24.6094H585.594V26.8283H588.576V24.6094Z" fill="#181425"/>
<path d="M585.594 22.3906H582.612V24.6094H585.594V22.3906Z" fill="#181425"/>
<path d="M582.476 20.1717H579.494V22.3906H582.476V20.1717Z" fill="#181425"/>
<path d="M591.558 26.8283H588.576V29.0472H591.558V26.8283Z" fill="#181425"/>
<path d="M387.278 6.75751V8.97639H390.26V11.1953H393.243V8.97639H396.225V6.75751H393.243V4.53863H390.26V6.75751H387.278Z" fill="#181425"/>
<path d="M594.541 33.5858H591.558V35.8047H594.541V33.5858Z" fill="#181425"/>
<path d="M594.541 29.0472H591.558V31.2661H594.541V29.0472Z" fill="#181425"/>
<path d="M564.448 6.75751H561.465V8.97639H564.448V6.75751Z" fill="#181425"/>
<path d="M576.512 15.633H573.53V17.8519H576.512V15.633Z" fill="#181425"/>
<path d="M588.576 33.5858H585.594V35.8047H588.576V33.5858Z" fill="#181425"/>
<path d="M558.483 6.75751H555.501V8.97639H558.483V6.75751Z" fill="#181425"/>
<path d="M567.565 8.97639H564.583V11.1953H567.565V8.97639Z" fill="#181425"/>
<path d="M573.53 13.4142H570.548V15.633H573.53V13.4142Z" fill="#181425"/>
<path d="M570.548 11.1953H567.565V13.4142H570.548V11.1953Z" fill="#181425"/>
<path d="M564.448 33.5858H561.465V35.8047H564.448V33.5858Z" fill="#181425"/>
<path d="M549.537 31.2661H546.554V33.485H549.537V31.2661Z" fill="#181425"/>
<path d="M552.519 33.5858H549.537V35.8047L552.519 35.8047V33.5858Z" fill="#181425"/>
<path d="M558.483 33.5858H555.501V35.8047L558.483 35.8047V33.5858Z" fill="#181425"/>
<path d="M546.419 33.5858H543.437V35.8047L546.419 35.8047V33.5858Z" fill="#181425"/>
<path d="M537.472 31.2661H534.49V33.485H537.472V31.2661Z" fill="#181425"/>
<path d="M561.465 31.2661H558.483V33.485H561.465V31.2661Z" fill="#181425"/>
<path d="M540.455 33.5858H537.472V35.8047L540.455 35.8047V33.5858Z" fill="#181425"/>
<path d="M573.53 31.2661H570.548V33.485H573.53V31.2661Z" fill="#181425"/>
<path d="M582.476 33.5858H579.494V35.8047H582.476V33.5858Z" fill="#181425"/>
<path d="M585.594 31.2661H582.612V33.485H585.594V31.2661Z" fill="#181425"/>
<path d="M555.501 8.97639H552.519V11.1953H555.501V8.97639Z" fill="#181425"/>
<path d="M576.512 33.5858H573.53V35.8047H576.512V33.5858Z" fill="#181425"/>
<path d="M570.548 33.5858H567.565V35.8047L570.548 35.8047V33.5858Z" fill="#181425"/>
<path d="M588.576 29.0472H585.594V31.2661H588.576V29.0472Z" fill="#181425"/>
<path d="M498.433 6.75751H495.451V8.97639H498.433V6.75751Z" fill="#181425"/>
<path d="M447.329 4.53863H444.347V6.75751H447.329V4.53863Z" fill="#181425"/>
<path d="M474.44 6.75751H471.457V8.97639H474.44V6.75751Z" fill="#181425"/>
<path d="M441.364 4.53863H438.382V6.75751H441.364V4.53863Z" fill="#181425"/>
<path d="M552.519 6.75751H549.537V8.97639H552.519V6.75751Z" fill="#181425"/>
<path d="M471.322 4.53863H468.34V6.75751H471.322V4.53863Z" fill="#181425"/>
<path d="M465.357 4.53863H462.375V6.75751H465.357V4.53863Z" fill="#181425"/>
<path d="M459.393 4.53863H456.411V6.75751H459.393V4.53863Z" fill="#181425"/>
<path d="M453.293 4.53863H450.311V6.75751H453.293V4.53863Z" fill="#181425"/>
<path d="M399.343 6.75751V8.97639H402.325V11.1953H405.307V8.97639H408.289V6.75751H405.307V4.53863H402.325V6.75751H399.343Z" fill="#181425"/>
<path d="M399.207 4.53863H396.225V6.75751H399.207V4.53863Z" fill="#181425"/>
<path d="M411.271 4.53863H408.289V6.75751H411.271V4.53863Z" fill="#181425"/>
<path d="M423.336 6.75751V8.97639H426.318V11.1953H429.3V8.97639H432.282V6.75751H429.3V4.53863H426.318V6.75751H423.336Z" fill="#181425"/>
<path d="M411.271 6.75751V8.97639H414.254V11.1953H417.371V8.97639H420.354V6.75751H417.371V4.53863H414.254V6.75751H411.271Z" fill="#181425"/>
<path d="M423.336 4.53863H420.354V6.75751H423.336V4.53863Z" fill="#181425"/>
<path d="M435.264 4.53863H432.282V6.75751H435.264V4.53863Z" fill="#181425"/>
<path d="M531.508 8.97639H528.526V11.1953H531.508V8.97639Z" fill="#181425"/>
<path d="M480.404 6.75751H477.422V8.97639H480.404V6.75751Z" fill="#181425"/>
<path d="M528.526 6.75751H525.544V8.97639H528.526V6.75751Z" fill="#181425"/>
<path d="M540.455 6.75751H537.472V8.97639H540.455V6.75751Z" fill="#181425"/>
<path d="M522.426 6.75751H519.444V8.97639H522.426V6.75751Z" fill="#181425"/>
<path d="M546.419 6.75751H543.437V8.97639H546.419V6.75751Z" fill="#181425"/>
<path d="M543.437 8.97639H540.455V11.1953H543.437V8.97639Z" fill="#181425"/>
<path d="M534.49 6.75751H531.508V8.97639H534.49V6.75751Z" fill="#181425"/>
<path d="M534.49 33.5858H531.508V35.8047H534.49V33.5858Z" fill="#181425"/>
<path d="M492.468 6.75751H489.486V8.97639H492.468V6.75751Z" fill="#181425"/>
<path d="M516.461 6.75751H513.479V8.97639H516.461V6.75751Z" fill="#181425"/>
<path d="M486.368 6.75751H483.386V8.97639H486.368V6.75751Z" fill="#181425"/>
<path d="M510.497 6.75751H507.515V8.97639H510.497V6.75751Z" fill="#181425"/>
<path d="M504.397 6.75751H501.415V8.97639H504.397V6.75751Z" fill="#181425"/>
<path d="M579.494 17.9528H576.512V20.1717H579.494V17.9528Z" fill="#181425"/>
<path d="M420.354 11.1953H417.371V13.4142H420.354V11.1953Z" fill="#181425"/>
<path d="M402.325 11.1953H399.343V13.4142H402.325V11.1953Z" fill="#181425"/>
<path d="M405.307 42.4614V40.2425H402.325V42.4614H399.343V44.6803H402.325V47H405.307V44.6803H408.289V42.4614H405.307Z" fill="#181425"/>
<path d="M417.371 42.4614V40.2425H414.254V42.4614H411.271V44.6803H414.254V47H417.371V44.6803H420.354V42.4614H417.371Z" fill="#181425"/>
<path d="M429.3 42.4614V40.2425H426.318V42.4614H423.336V44.6803H426.318V47H429.3V44.6803H432.282V42.4614H429.3Z" fill="#181425"/>
<path d="M411.271 8.97639H408.289V11.1953H411.271V8.97639Z" fill="#181425"/>
<path d="M414.254 11.1953H411.271V13.4142H414.254V11.1953Z" fill="#181425"/>
<path d="M408.289 11.1953H405.307V13.4142H408.289V11.1953Z" fill="#181425"/>
<path d="M390.26 11.1953H387.278V13.4142H390.26V11.1953Z" fill="#181425"/>
<path d="M387.278 8.97639H384.296V11.1953H387.278V8.97639Z" fill="#181425"/>
<path d="M381.314 42.4614V40.2425H378.332V42.4614H375.35V40.2425H378.332V38.0236H375.35V35.8047H372.367V38.0236H369.385V40.2425H372.367V42.4614H369.385V40.2425H366.403V42.4614H363.421V40.2425H366.403V38.0236H363.421V35.8047H366.403V38.0236H369.385V35.8047H372.367V33.5858H369.385V31.367H366.403V33.5858H363.421V31.367H366.403V29.1481H363.421V26.9292H360.439V29.1481H357.456V31.367H360.439V33.5858H357.456V31.367H354.474V33.5858H351.492V31.367H354.474V29.1481H351.492V26.9292H354.474V29.1481H357.456V26.9292H360.439V24.7103H357.456V22.4914H354.474V24.7103H351.492V22.4914H354.474V20.2725H351.492V18.0536H348.239V20.2725H345.256V22.4914H348.239V24.7103H345.256V22.4914H342.274V24.7103H339.292V22.4914H342.274V20.2725H339.292V18.0536H342.274V20.2725H345.256V18.0536H348.239V15.8348H345.256V13.6159H342.274V15.8348H339.292V13.6159H342.274V11.1953H339.292V8.97639H336.31V11.1953H333.328V13.4142H336.31V15.633H333.328V13.4142H330.346V15.633H327.363V13.4142H330.346V11.1953H327.363V8.97639H330.346V11.1953H333.328V8.97639H336.31V6.75751H333.328V4.53863H330.346V6.75751H327.363V4.53863H330.346V2.31974H327.363V0H324.381V2.21888H321.128V4.43777H324.11V6.65665H321.128V4.43777H318.146V6.65665H315.163V4.43777H318.146V2.21888H315.163V0H312.181V2.21888H309.199V4.43777H312.181V6.65665H309.199V4.43777H306.217V6.65665H303.235V4.43777H306.217V2.21888H303.235V0H300.253V2.21888H297.27V4.43777H300.253V6.65665H297.27V4.43777H294.288V6.65665H291.306V4.43777H294.288V2.21888H291.306V0H288.324V2.21888H285.342V4.43777H288.324V6.65665H285.342V4.43777H282.359V6.65665H279.106V4.43777H282.088V2.21888H279.106V0H276.124V2.21888H273.142V4.43777H276.124V6.65665H273.142V4.43777H270.159V6.65665H267.177V4.43777H270.159V2.21888H267.177V0H264.195V2.21888H261.213V0H258.231V2.21888H255.249V0H252.266V2.21888H249.284V0H246.302V2.21888H243.32V0H240.338V2.21888H237.084V0H234.102V2.21888H231.12V0H228.138V2.21888H225.155V0H222.173V2.21888H219.191V0C215.802 0 213.498 0 210.245 0V2.21888H207.262V0H204.28V2.21888H201.298V0H198.316V2.21888H195.334V0H192.351V2.21888H189.369V0H186.387V2.21888H183.405V0H180.423V2.21888H177.44V0H174.458V2.21888H171.476V0H167.952V2.21888H164.969V0H161.987V2.21888H159.005V0C155.616 0 153.312 0 150.058 0V2.21888H147.076V0C143.687 0 141.383 0 138.13 0V2.21888H135.148V0C131.623 0 129.183 0 126.201 0V2.21888H123.219V0C119.83 0 117.525 0 114.272 0V2.21888H111.29V0C107.766 0 105.326 0 102.343 0V2.21888H98.819V0C95.2946 0 92.8546 0 89.8724 0V2.21888H86.8902V0C83.5014 0 81.197 0 77.9437 0V2.21888H74.9615V0C71.5726 0 69.2682 0 66.0149 0V2.21888H63.0327V0C40.5307 0 25.7553 0 0 0V46.8991C74.0126 46.8991 76.7237 46.8991 123.219 46.8991V44.6803H126.201V46.8991C129.59 46.8991 131.894 46.8991 135.148 46.8991V44.6803H138.13V46.8991C141.519 46.8991 143.823 46.8991 147.076 46.8991V44.6803H150.058V46.8991C153.447 46.8991 155.752 46.8991 159.005 46.8991V44.6803H161.987V46.8991C165.376 46.8991 167.681 46.8991 170.934 46.8991V44.6803H173.916V46.8991C177.305 46.8991 179.609 46.8991 182.863 46.8991V44.6803H185.845V46.8991C189.234 46.8991 191.538 46.8991 194.791 46.8991V44.6803H197.774V46.8991C201.298 46.8991 203.738 46.8991 206.72 46.8991V44.6803H209.702V46.8991C213.091 46.8991 215.396 46.8991 218.649 46.8991V44.6803H221.631V46.8991H224.613V44.6803H227.595V46.8991H230.578V44.6803H233.56V46.8991H236.542V44.6803H239.524V46.8991H242.506V44.6803H245.489V46.8991H248.471V44.6803H251.453V46.8991H254.435V44.6803H257.417V46.8991H260.4V44.6803H263.382V46.8991H266.364V44.6803H269.346V46.8991H272.328V44.6803H275.311V46.8991H278.293V44.6803H281.275V46.8991H284.257V44.6803H287.239V46.8991H290.221V44.6803H293.204V46.8991H296.186V44.6803H299.168V46.8991H302.15V44.6803H305.132V46.8991H308.115V44.6803H311.097V46.8991H314.079V44.6803H317.061V46.8991H320.043V44.6803H323.026V46.8991H326.008V44.6803H328.99V46.8991H331.972V44.6803H334.954V46.8991H337.937V44.6803H340.919V46.8991H343.901V44.6803H346.883V46.8991H349.865V44.6803H352.848V46.8991H355.83V44.6803H358.812V46.8991H361.794V44.6803H364.776V46.8991H367.758V44.6803H370.741V46.8991H373.723V44.6803H376.705V46.8991H379.687V44.6803H382.669V42.4614H381.314ZM77.8081 11.1953H74.8259V8.97639H77.8081V11.1953ZM89.8724 20.1717H86.8902V17.9528H89.8724V20.1717ZM89.8724 11.1953H86.8902V8.97639H89.8724V11.1953ZM101.801 29.0472H98.819V26.8283H101.801V29.0472ZM101.801 20.1717H98.819V17.9528H101.801V20.1717ZM101.801 11.1953H98.819V8.97639H101.801V11.1953ZM113.866 38.0236H110.883V35.8047H113.866V38.0236ZM113.866 29.0472H110.883V26.8283H113.866V29.0472ZM113.866 20.1717H110.883V17.9528H113.866V20.1717ZM113.866 11.1953H110.883V8.97639H113.866V11.1953ZM125.93 38.0236H122.948V35.8047H125.93V38.0236ZM125.93 29.0472H122.948V26.8283H125.93V29.0472ZM125.93 20.1717H122.948V17.9528H125.93V20.1717ZM125.93 11.1953H122.948V8.97639H125.93V11.1953ZM131.894 6.75751H128.912V4.53863H131.894V6.75751ZM137.859 38.0236H134.876V35.8047H137.859V38.0236ZM137.859 29.0472H134.876V26.8283H137.859V29.0472ZM137.859 20.1717H134.876V17.9528H137.859V20.1717ZM137.859 11.1953H134.876V8.97639H137.859V11.1953ZM143.959 15.633H140.841V13.4142H143.823V15.633H143.959ZM143.959 6.75751H140.841V4.53863H143.823V6.75751H143.959ZM149.923 38.0236H146.941V35.8047H149.923V38.0236ZM149.923 29.0472H146.941V26.8283H149.923V29.0472ZM149.923 20.1717H146.941V17.9528H149.923V20.1717ZM149.923 11.1953H146.941V8.97639H149.923V11.1953ZM155.887 24.6094H152.905V22.3906H155.887V24.6094ZM155.887 15.633H152.905V13.4142H155.887V15.633ZM155.887 6.75751H152.905V4.53863H155.887V6.75751ZM161.987 38.0236H159.005V35.8047H161.987V38.0236ZM161.987 29.0472H159.005V26.8283H161.987V29.0472ZM161.987 20.1717H159.005V17.9528H161.987V20.1717ZM161.987 11.1953H159.005V8.97639H161.987V11.1953ZM167.952 33.5858H164.969V31.367H167.952V33.5858ZM167.952 24.6094H164.969V22.3906H167.952V24.6094ZM167.952 15.633H164.969V13.4142H167.952V15.633ZM167.952 6.75751H164.969V4.53863H167.952V6.75751ZM173.916 38.0236H170.934V35.8047H173.916V38.0236ZM173.916 29.0472H170.934V26.8283H173.916V29.0472ZM173.916 20.1717H170.934V17.9528H173.916V20.1717ZM173.916 11.1953H170.934V8.97639H173.916V11.1953ZM180.016 42.4614H177.034V40.2425H180.016V42.4614ZM180.016 33.5858H177.034V31.367H180.016V33.5858ZM180.016 24.6094H177.034V22.3906H180.016V24.6094ZM180.016 15.633H177.034V13.4142H180.016V15.633ZM180.016 11.1953H177.034V8.97639H180.016V11.1953ZM180.016 6.75751H177.034V4.53863H180.016V6.75751ZM185.98 38.0236H182.998V35.8047H185.98V38.0236ZM185.98 29.0472H182.998V26.8283H185.98V29.0472ZM185.98 20.1717H182.998V17.9528H185.98V20.1717ZM185.98 11.1953H182.998V8.97639H185.98V11.1953ZM191.945 42.4614H188.963V40.2425H191.945V42.4614ZM191.945 33.5858H188.963V31.367H191.945V33.5858ZM191.945 24.6094H188.963V22.3906H191.945V24.6094ZM191.945 20.1717H188.963V17.9528H191.945V20.1717ZM191.945 15.633H188.963V13.4142H191.945V15.633ZM191.945 11.1953H188.963V8.97639H191.945V11.1953ZM191.945 6.75751H188.963V4.53863H191.945V6.75751ZM198.045 38.0236H195.062V35.8047H198.045V38.0236ZM198.045 29.0472H195.062V26.8283H198.045V29.0472ZM198.045 20.1717H195.062V17.9528H198.045V20.1717ZM198.045 11.1953H195.062V8.97639H198.045V11.1953ZM204.009 42.4614H201.027V40.2425H204.009V42.4614ZM204.009 33.5858H201.027V31.367H204.009V33.5858ZM204.009 29.0472H201.027V26.8283H204.009V29.0472ZM204.009 24.6094H201.027V22.3906H204.009V24.6094ZM204.009 20.1717H201.027V17.9528H204.009V20.1717ZM204.009 15.633H201.027V13.4142H204.009V15.633ZM204.009 11.1953H201.027V8.97639H204.009V11.1953ZM204.009 6.75751H201.027V4.53863H204.009V6.75751ZM209.973 38.0236H206.991V35.8047H209.973V38.0236ZM209.973 29.0472H206.991V26.8283H209.973V29.0472ZM209.973 20.1717H206.991V17.9528H209.973V20.1717ZM209.973 11.1953H206.991V8.97639H209.973V11.1953ZM216.073 42.4614H213.091V40.2425H216.073V42.4614ZM216.073 38.0236H213.091V35.8047H216.073V38.0236ZM216.073 33.5858H213.091V31.367H216.073V33.5858ZM216.073 29.0472H213.091V26.8283H216.073V29.0472ZM216.073 24.6094H213.091V22.3906H216.073V24.6094ZM216.073 20.1717H213.091V17.9528H216.073V20.1717ZM216.073 15.633H213.091V13.4142H216.073V15.633ZM216.073 11.1953H213.091V8.97639H216.073V11.1953ZM216.073 6.75751H213.091V4.53863H216.073V6.75751ZM222.038 38.0236H219.056V35.8047H222.038V38.0236ZM222.038 29.0472H219.056V26.8283H222.038V29.0472ZM222.038 20.1717H219.056V17.9528H222.038V20.1717ZM222.038 11.1953H219.056V8.97639H222.038V11.1953ZM228.002 42.4614H225.02V40.2425H228.002V42.4614ZM228.002 38.0236H225.02V35.8047H228.002V38.0236ZM228.002 33.5858H225.02V31.367H228.002V33.5858ZM228.002 29.0472H225.02V26.8283H228.002V29.0472ZM228.002 24.6094H225.02V22.3906H228.002V24.6094ZM228.002 20.1717H225.02V17.9528H228.002V20.1717ZM228.002 15.633H225.02V13.4142H228.002V15.633ZM228.002 11.1953H225.02V8.97639H228.002V11.1953ZM228.002 6.75751H225.02V4.53863H228.002V6.75751ZM234.102 38.0236H231.12V35.8047H234.102V38.0236ZM234.102 29.0472H231.12V26.8283H234.102V29.0472ZM234.102 20.1717H231.12V17.9528H234.102V20.1717ZM234.102 11.1953H231.12V8.97639H234.102V11.1953ZM234.102 6.75751H231.12V4.53863H234.102V6.75751ZM240.066 42.4614H237.084V40.2425H240.066V42.4614ZM240.066 38.0236H237.084V35.8047H240.066V38.0236ZM240.066 33.5858H237.084V31.367H240.066V33.5858ZM240.066 29.0472H237.084V26.8283H240.066V29.0472ZM240.066 24.6094H237.084V22.3906H240.066V24.6094ZM240.066 20.1717H237.084V17.9528H240.066V20.1717ZM240.066 15.633H237.084V13.4142H240.066V15.633ZM240.066 11.1953H237.084V8.97639H240.066V11.1953ZM240.066 6.75751H237.084V4.53863H240.066V6.75751ZM246.031 38.0236H243.049V35.8047H246.031V38.0236ZM246.031 29.0472H243.049V26.8283H246.031V29.0472ZM246.031 20.1717H243.049V17.9528H246.031V20.1717ZM246.031 15.633H243.049V13.4142H246.031V15.633ZM246.031 11.1953H243.049V8.97639H246.031V11.1953ZM246.031 6.75751H243.049V4.53863H246.031V6.75751ZM252.131 42.4614H249.149V40.2425H252.131V42.4614ZM252.131 38.0236H249.149V35.8047H252.131V38.0236ZM252.131 33.5858H249.149V31.367H252.131V33.5858ZM252.131 29.0472H249.149V26.8283H252.131V29.0472ZM252.131 24.6094H249.149V22.3906H252.131V24.6094ZM252.131 20.1717H249.149V17.9528H252.131V20.1717ZM252.131 15.633H249.149V13.4142H252.131V15.633ZM252.131 11.1953H249.149V8.97639H252.131V11.1953ZM252.131 6.75751H249.149V4.53863H252.131V6.75751ZM258.095 38.0236H255.113V35.8047H258.095V38.0236ZM258.095 29.0472H255.113V26.8283H258.095V29.0472ZM258.095 24.6094H255.113V22.3906H258.095V24.6094ZM258.095 20.1717H255.113V17.9528H258.095V20.1717ZM258.095 15.633H255.113V13.4142H258.095V15.633ZM258.095 11.1953H255.113V8.97639H258.095V11.1953ZM258.095 6.75751H255.113V4.53863H258.095V6.75751ZM264.06 42.4614H261.077V40.2425H264.06V42.4614ZM264.06 38.0236H261.077V35.8047H264.06V38.0236ZM264.06 33.5858H261.077V31.367H264.06V33.5858ZM264.06 29.0472H261.077V26.8283H264.06V29.0472ZM264.06 24.6094H261.077V22.3906H264.06V24.6094ZM264.06 20.1717H261.077V17.9528H264.06V20.1717ZM264.06 15.633H261.077V13.4142H264.06V15.633ZM264.06 11.1953H261.077V8.97639H264.06V11.1953ZM264.06 6.75751H261.077V4.53863H264.06V6.75751ZM270.024 38.0236H267.042V35.8047H270.024V38.0236ZM270.024 33.5858H267.042V31.367H270.024V33.5858ZM270.024 29.0472H267.042V26.8283H270.024V29.0472ZM270.024 24.6094H267.042V22.3906H270.024V24.6094ZM270.024 20.1717H267.042V17.9528H270.024V20.1717ZM270.024 15.633H267.042V13.4142H270.024V15.633ZM270.024 11.1953H267.042V8.97639H270.024V11.1953ZM276.124 42.4614H273.142V40.2425H276.124V42.4614ZM276.124 38.0236H273.142V35.8047H276.124V38.0236ZM276.124 33.5858H273.142V31.367H276.124V33.5858ZM276.124 29.0472H273.142V26.8283H276.124V29.0472ZM276.124 24.6094H273.142V22.3906H276.124V24.6094ZM276.124 20.1717H273.142V17.9528H276.124V20.1717ZM276.124 15.633H273.142V13.4142H276.124V15.633ZM276.124 11.1953H273.142V8.97639H276.124V11.1953ZM282.088 42.4614H279.106V40.2425H282.088V42.4614ZM282.088 38.0236H279.106V35.8047H282.088V38.0236ZM282.088 33.5858H279.106V31.367H282.088V33.5858ZM282.088 29.0472H279.106V26.8283H282.088V29.0472ZM282.088 24.6094H279.106V22.3906H282.088V24.6094ZM282.088 20.1717H279.106V17.9528H282.088V20.1717ZM288.053 42.4614H285.07V40.2425H288.053V42.4614ZM288.053 38.0236H285.07V35.8047H288.053V38.0236ZM288.053 33.5858H285.07V31.367H288.053V33.5858ZM288.053 29.0472H285.07V26.8283H288.053V29.0472ZM288.053 24.6094H285.07V22.3906H288.053V24.6094ZM288.053 20.1717H285.07V17.9528H288.053V20.1717ZM288.053 11.1953H285.07V13.4142H288.053V15.633H285.07V13.4142H282.088V15.633H279.106V13.4142H282.088V11.1953H279.106V8.97639H282.088V11.1953H285.07V8.97639H288.053V11.1953ZM294.153 42.4614H291.17V40.2425H294.153V42.4614ZM294.153 38.0236H291.17V35.8047H294.153V38.0236ZM294.153 33.5858H291.17V31.367H294.153V33.5858ZM294.153 29.0472H291.17V26.8283H294.153V29.0472ZM300.117 42.4614H297.135V40.2425H300.117V42.4614ZM300.117 38.0236H297.135V35.8047H300.117V38.0236ZM300.117 33.5858H297.135V31.367H300.117V33.5858ZM300.117 29.0472H297.135V26.8283H300.117V29.0472ZM300.117 20.1717H297.135V22.3906H300.117V24.6094H297.135V22.3906H294.153V24.6094H291.17V22.3906H294.153V20.1717H291.17V17.9528H294.153V20.1717H297.135V17.9528H300.117V20.1717ZM300.117 11.1953H297.135V13.4142H300.117V15.633H297.135V13.4142H294.153V15.633H291.17V13.4142H294.153V11.1953H291.17V8.97639H294.153V11.1953H297.135V8.97639H300.117V11.1953ZM306.081 42.4614H303.099V40.2425H306.081V42.4614ZM306.081 38.0236H303.099V35.8047H306.081V38.0236ZM312.181 42.4614H309.199V40.2425H312.181V42.4614ZM312.181 38.0236H309.199V35.8047H312.181V38.0236ZM312.181 29.0472H309.199V31.2661H312.181V33.485H309.199V31.2661H306.217V33.485H303.235V31.2661H306.217V29.0472H303.235V26.8283H306.217V29.0472H309.199V26.8283H312.181V29.0472ZM312.181 20.1717H309.199V22.3906H312.181V24.6094H309.199V22.3906H306.217V24.6094H303.235V22.3906H306.217V20.1717H303.235V17.9528H306.217V20.1717H309.199V17.9528H312.181V20.1717ZM312.181 11.1953H309.199V13.4142H312.181V15.633H309.199V13.4142H306.217V15.633H303.235V13.4142H306.217V11.1953H303.235V8.97639H306.217V11.1953H309.199V8.97639H312.181V11.1953ZM324.11 38.0236H321.128V40.2425H324.11V42.4614H321.128V40.2425H318.146V42.4614H315.163V40.2425H318.146V38.0236H315.163V35.8047H318.146V38.0236H321.128V35.8047H324.11V38.0236ZM324.11 29.0472H321.128V31.2661H324.11V33.485H321.128V31.2661H318.146V33.485H315.163V31.2661H318.146V29.0472H315.163V26.8283H318.146V29.0472H321.128V26.8283H324.11V29.0472ZM324.11 20.1717H321.128V22.3906H324.11V24.6094H321.128V22.3906H318.146V24.6094H315.163V22.3906H318.146V20.1717H315.163V17.9528H318.146V20.1717H321.128V17.9528H324.11V20.1717ZM324.11 11.1953H321.128V13.4142H324.11V15.633H321.128V13.4142H318.146V15.633H315.163V13.4142H318.146V11.1953H315.163V8.97639H318.146V11.1953H321.128V8.97639H324.11V11.1953ZM336.174 38.0236H333.192V40.2425H336.174V42.4614H333.192V40.2425H330.21V42.4614H327.228V40.2425H330.21V38.0236H327.228V35.8047H330.21V38.0236H333.192V35.8047H336.174V38.0236ZM336.174 29.0472H333.192V31.2661H336.174V33.485H333.192V31.2661H330.21V33.485H327.228V31.2661H330.21V29.0472H327.228V26.8283H330.21V29.0472H333.192V26.8283H336.174V29.0472ZM336.174 20.1717H333.192V22.3906H336.174V24.6094H333.192V22.3906H330.21V24.6094H327.228V22.3906H330.21V20.1717H327.228V17.9528H330.21V20.1717H333.192V17.9528H336.174V20.1717ZM348.239 38.0236H345.256V40.2425H348.239V42.4614H345.256V40.2425H342.274V42.4614H339.292V40.2425H342.274V38.0236H339.292V35.8047H342.274V38.0236H345.256V35.8047H348.239V38.0236ZM348.239 29.0472H345.256V31.2661H348.239V33.485H345.256V31.2661H342.274V33.485H339.292V31.2661H342.274V29.0472H339.292V26.8283H342.274V29.0472H345.256V26.8283H348.239V29.0472ZM360.167 38.0236H357.185V40.2425H360.167V42.4614H357.185V40.2425H354.203V42.4614H351.221V40.2425H354.203V38.0236H351.221V35.8047H354.203V38.0236H357.185V35.8047H360.167V38.0236Z" fill="#181425"/>
<path d="M396.225 11.1953H393.243V13.4142H396.225V11.1953Z" fill="#181425"/>
<path d="M393.243 42.4614V40.2425H390.26V42.4614H387.278V44.6803H390.26V47H393.243V44.6803H396.225V42.4614H393.243Z" fill="#181425"/>
<path d="M384.296 11.1953H381.314V13.4142H384.296V11.1953Z" fill="#181425"/>
<path d="M399.207 8.97639H396.225V11.1953H399.207V8.97639Z" fill="#181425"/>
<path d="M450.311 6.75751H447.329V8.97639H450.311V6.75751Z" fill="#181425"/>
<path d="M477.422 42.4614V40.2425H474.44V42.4614H471.457V44.6803H474.44V47H477.422V44.6803H480.404V42.4614H477.422Z" fill="#181425"/>
<path d="M444.347 6.75751H441.364V8.97639H444.347V6.75751Z" fill="#181425"/>
<path d="M456.411 6.75751H453.429V8.97639H456.411V6.75751Z" fill="#181425"/>
<path d="M486.368 42.4614H483.386V44.6803H486.368V42.4614Z" fill="#181425"/>
<path d="M465.357 42.4614V40.2425H462.375V42.4614H459.393V44.6803H462.375V47H465.357V44.6803H468.34V42.4614H465.357Z" fill="#181425"/>
<path d="M423.336 8.97639H420.354V11.1953H423.336V8.97639Z" fill="#181425"/>
<path d="M462.375 6.75751H459.393V8.97639H462.375V6.75751Z" fill="#181425"/>
<path d="M426.318 11.1953H423.336V13.4142H426.318V11.1953Z" fill="#181425"/>
<path d="M432.282 11.1953H429.3V13.4142H432.282V11.1953Z" fill="#181425"/>
<path d="M441.364 42.4614V40.2425H438.382V42.4614H435.4V44.6803H438.382V47H441.364V44.6803H444.347V42.4614H441.364Z" fill="#181425"/>
<path d="M438.382 6.75751H435.4V8.97639H438.382V6.75751Z" fill="#181425"/>
<path d="M435.264 8.97639H432.282V11.1953H435.264V8.97639Z" fill="#181425"/>
<path d="M453.429 42.4614V40.2425H450.311V42.4614H447.329V44.6803H450.311V47H453.429V44.6803H456.411V42.4614H453.429Z" fill="#181425"/>
<path d="M468.34 35.8047V33.5858H465.357V31.2661H462.375V33.5858H459.393V35.8047H462.375V38.0236H465.357V35.8047H468.34Z" fill="#181425"/>
<path d="M483.386 35.8047H480.404V38.0236H483.386V35.8047Z" fill="#181425"/>
<path d="M477.422 35.8047H474.44V38.0236H477.422V35.8047Z" fill="#181425"/>
<path d="M372.232 13.4142V15.633H375.214V13.4142H378.196V11.1953H375.214V8.97639H372.232V11.1953H369.25V13.4142H372.232Z" fill="#181425"/>
<path d="M471.322 35.8047H468.34V38.0236H471.322V35.8047Z" fill="#181425"/>
<path d="M459.393 35.8047H456.411V38.0236H459.393V35.8047Z" fill="#181425"/>
<path d="M531.508 35.8047H528.526V38.0236H531.508V35.8047Z" fill="#181425"/>
<path d="M492.468 38.0236H489.486V40.2425H492.468V38.0236Z" fill="#181425"/>
<path d="M456.411 35.8047V33.5858H453.429V31.2661H450.311V33.5858H447.329V35.8047H450.311V38.0236H453.429V35.8047H456.411Z" fill="#181425"/>
<path d="M522.426 38.0236H519.444V40.2425H522.426V38.0236Z" fill="#181425"/>
<path d="M528.526 38.0236H525.544V40.2425H528.526V38.0236Z" fill="#181425"/>
<path d="M516.461 38.0236H513.479V40.2425H516.461V38.0236Z" fill="#181425"/>
<path d="M510.497 38.0236H507.515V40.2425H510.497V38.0236Z" fill="#181425"/>
<path d="M504.397 38.0236H501.415V40.2425H504.397V38.0236Z" fill="#181425"/>
<path d="M498.433 38.0236H495.451V40.2425H498.433V38.0236Z" fill="#181425"/>
<path d="M486.368 38.0236H483.386V40.2425H486.368V38.0236Z" fill="#181425"/>
<path d="M381.314 26.8283H384.296V24.6094H381.314V22.3906H378.196V24.6094H375.214V26.8283H378.196V29.0472H381.314V26.8283Z" fill="#181425"/>
<path d="M387.278 31.2661H390.26V29.0472H387.278V26.8283H384.296V29.0472H381.314V31.2661H384.296V33.5858H387.278V31.2661Z" fill="#181425"/>
<path d="M375.214 22.3906H378.196V20.1717H375.214V17.9528H372.232V20.1717H369.25V22.3906H372.232V24.6094H375.214V22.3906Z" fill="#181425"/>
<path d="M369.25 17.9528H372.232V15.633H369.25V13.4142H366.267V15.633H363.285V17.9528H366.267V20.1717H369.25V17.9528Z" fill="#181425"/>
<path d="M363.285 13.4142H366.267V11.1953H363.285V8.97639H360.167V11.1953H357.185V13.4142H360.167V15.633H363.285V13.4142Z" fill="#181425"/>
<path d="M393.243 33.5858V31.2661H390.26V33.5858H387.278V35.8047H390.26V38.0236H393.243V35.8047H396.225V33.5858H393.243Z" fill="#181425"/>
<path d="M420.354 35.8047V33.5858H417.371V31.2661H414.254V33.5858H411.271V35.8047H414.254V38.0236H417.371V35.8047H420.354Z" fill="#181425"/>
<path d="M432.282 35.8047V33.5858H429.3V31.2661H426.318V33.5858H423.336V35.8047H426.318V38.0236H429.3V35.8047H432.282Z" fill="#181425"/>
<path d="M435.264 35.8047H432.282V38.0236H435.264V35.8047Z" fill="#181425"/>
<path d="M444.347 35.8047V33.5858H441.364V31.2661H438.382V33.5858H435.4V35.8047H438.382V38.0236H441.364V35.8047H444.347Z" fill="#181425"/>
<path d="M423.336 35.8047H420.354V38.0236H423.336V35.8047Z" fill="#181425"/>
<path d="M405.307 33.5858V31.2661H402.325V33.5858H399.343V35.8047H402.325V38.0236H405.307V35.8047H408.289V33.5858H405.307Z" fill="#181425"/>
<path d="M447.329 35.8047H444.347V38.0236H447.329V35.8047Z" fill="#181425"/>
<path d="M552.519 2.21888H549.537V4.43777H552.519V2.21888Z" fill="#181425"/>
<path d="M534.49 2.21888H531.508V4.43777H534.49V2.21888Z" fill="#181425"/>
<path d="M546.419 2.21888H543.437V4.43777H546.419V2.21888Z" fill="#181425"/>
<path d="M537.472 4.53863H534.49V6.75751H537.472V4.53863Z" fill="#181425"/>
<path d="M540.455 2.21888H537.472V4.43777H540.455V2.21888Z" fill="#181425"/>
<path d="M504.397 2.21888H501.415V4.43777H504.397V2.21888Z" fill="#181425"/>
<path d="M558.483 2.21888H555.501V4.43777H558.483V2.21888Z" fill="#181425"/>
<path d="M468.34 6.75751H465.357V8.97639H468.34V6.75751Z" fill="#181425"/>
<path d="M525.408 4.53863H522.426V6.75751H525.408V4.53863Z" fill="#181425"/>
<path d="M516.461 2.21888H513.479V4.43777H516.461V2.21888Z" fill="#181425"/>
<path d="M513.479 4.53863H510.497V6.75751H513.479V4.53863Z" fill="#181425"/>
<path d="M528.526 2.21888H525.544V4.43777H528.526V2.21888Z" fill="#181425"/>
<path d="M510.497 2.21888H507.515V4.43777H510.497V2.21888Z" fill="#181425"/>
<path d="M561.465 4.53863H558.483V6.75751H561.465V4.53863Z" fill="#181425"/>
<path d="M522.426 2.21888H519.444V4.43777H522.426V2.21888Z" fill="#181425"/>
<path d="M549.537 4.53863H546.554V6.75751H549.537V4.53863Z" fill="#181425"/>
<path d="M594.541 20.1717H591.558V22.3906H594.541V20.1717Z" fill="#181425"/>
<path d="M387.278 4.53863H384.296V6.75751H387.278V4.53863Z" fill="#181425"/>
<path d="M564.448 2.21888H561.465V4.43777H564.448V2.21888Z" fill="#181425"/>
<path d="M591.558 17.9528H588.576V20.1717H591.558V17.9528Z" fill="#181425"/>
<path d="M600.505 24.6094H597.523V26.8283H600.505V24.6094Z" fill="#181425"/>
<path d="M606.605 29.0472H603.623V31.2661H606.605V29.0472Z" fill="#181425"/>
<path d="M603.623 26.8283H600.641V29.0472H603.623V26.8283Z" fill="#181425"/>
<path d="M588.576 15.633H585.594V17.8519H588.576V15.633Z" fill="#181425"/>
<path d="M576.512 6.75751H573.53V8.97639H576.512V6.75751Z" fill="#181425"/>
<path d="M573.53 4.53863H570.548V6.75751H573.53V4.53863Z" fill="#181425"/>
<path d="M570.548 2.21888H567.565V4.43777H570.548V2.21888Z" fill="#181425"/>
<path d="M579.494 8.97639H576.512V11.1953H579.494V8.97639Z" fill="#181425"/>
<path d="M582.476 11.1953H579.494V13.4142H582.476V11.1953Z" fill="#181425"/>
<path d="M585.594 13.4142H582.612V15.633H585.594V13.4142Z" fill="#181425"/>
<path d="M414.254 2.21888H411.271V4.43777H414.254V2.21888Z" fill="#181425"/>
<path d="M402.325 2.21888H399.343V4.43777H402.325V2.21888Z" fill="#181425"/>
<path d="M432.282 2.21888H429.3V4.43777H432.282V2.21888Z" fill="#181425"/>
<path d="M408.289 2.21888H405.307V4.43777H408.289V2.21888Z" fill="#181425"/>
<path d="M609.587 31.2661H606.605V33.485H609.587V31.2661Z" fill="#181425"/>
<path d="M390.26 2.21888H387.278V4.43777H390.26V2.21888Z" fill="#181425"/>
<path d="M426.318 2.21888H423.336V4.43777H426.318V2.21888Z" fill="#181425"/>
<path d="M420.354 2.21888H417.371V4.43777H420.354V2.21888Z" fill="#181425"/>
<path d="M396.225 2.21888H393.243V4.43777H396.225V2.21888Z" fill="#181425"/>
<path d="M348.239 4.53863V6.75751H351.221V4.53863H354.203V2.21888H351.221V0H348.239V2.21888H345.256V4.53863H348.239Z" fill="#181425"/>
<path d="M501.415 4.53863H498.433V6.75751H501.415V4.53863Z" fill="#181425"/>
<path d="M336.174 4.53863V6.75751H339.157V4.53863H342.139V2.21888H339.157V0H336.174V2.21888H333.192V4.53863H336.174Z" fill="#181425"/>
<path d="M378.196 2.21888H375.214V4.43777H378.196V2.21888Z" fill="#181425"/>
<path d="M384.296 2.21888H381.314V4.43777H384.296V2.21888Z" fill="#181425"/>
<path d="M372.232 2.21888H369.25V4.43777H372.232V2.21888Z" fill="#181425"/>
<path d="M360.167 4.53863V6.75751H363.285V4.53863H366.267V2.21888H363.285V0H360.167V2.21888H357.185V4.53863H360.167Z" fill="#181425"/>
<path d="M477.422 4.53863H474.44V6.75751H477.422V4.53863Z" fill="#181425"/>
<path d="M486.368 2.21888H483.386V4.43777H486.368V2.21888Z" fill="#181425"/>
<path d="M480.404 2.21888H477.422V4.43777H480.404V2.21888Z" fill="#181425"/>
<path d="M489.351 4.53863H486.368V6.75751H489.351V4.53863Z" fill="#181425"/>
<path d="M498.433 2.21888H495.451V4.43777H498.433V2.21888Z" fill="#181425"/>
<path d="M438.382 2.21888H435.4V4.43777H438.382V2.21888Z" fill="#181425"/>
<path d="M492.468 2.21888H489.486V4.43777H492.468V2.21888Z" fill="#181425"/>
<path d="M450.311 2.21888H447.329V4.43777H450.311V2.21888Z" fill="#181425"/>
<path d="M444.347 2.21888H441.364V4.43777H444.347V2.21888Z" fill="#181425"/>
<path d="M456.411 2.21888H453.429V4.43777H456.411V2.21888Z" fill="#181425"/>
<path d="M468.34 2.21888H465.357V4.43777H468.34V2.21888Z" fill="#181425"/>
<path d="M462.375 2.21888H459.393V4.43777H462.375V2.21888Z" fill="#181425"/>
<path d="M474.44 2.21888H471.457V4.43777H474.44V2.21888Z" fill="#181425"/>
<path d="M597.523 22.3906H594.541V24.6094H597.523V22.3906Z" fill="#181425"/>
<path d="M447.329 40.2425H444.347V42.4614H447.329V40.2425Z" fill="#181425"/>
<path d="M444.347 38.0236H441.364V40.2425H444.347V38.0236Z" fill="#181425"/>
<path d="M435.264 40.2425H432.282V42.4614H435.264V40.2425Z" fill="#181425"/>
<path d="M438.382 38.0236H435.4V40.2425L438.382 40.2425V38.0236Z" fill="#181425"/>
<path d="M432.282 38.0236H429.3V40.2425H432.282V38.0236Z" fill="#181425"/>
<path d="M423.336 40.2425H420.354V42.4614H423.336V40.2425Z" fill="#181425"/>
<path d="M426.318 38.0236H423.336V40.2425H426.318V38.0236Z" fill="#181425"/>
<path d="M459.393 40.2425H456.411V42.4614H459.393V40.2425Z" fill="#181425"/>
<path d="M450.311 38.0236H447.329V40.2425H450.311V38.0236Z" fill="#181425"/>
<path d="M468.34 38.0236H465.357V40.2425L468.34 40.2425V38.0236Z" fill="#181425"/>
<path d="M471.322 40.2425L468.34 40.2425V42.4614H471.322V40.2425Z" fill="#181425"/>
<path d="M462.375 38.0236H459.393V40.2425H462.375V38.0236Z" fill="#181425"/>
<path d="M420.354 38.0236H417.371V40.2425H420.354V38.0236Z" fill="#181425"/>
<path d="M456.411 38.0236H453.429V40.2425H456.411V38.0236Z" fill="#181425"/>
<path d="M399.343 38.0236V35.8047H396.225V38.0236H393.243V40.2425L396.225 40.2425V42.4614H399.343V40.2425L402.325 40.2425V38.0236H399.343Z" fill="#181425"/>
<path d="M354.203 8.97639V11.1953H357.185V8.97639H360.167V6.75751H357.185V4.53863H354.203V6.75751H351.221V8.97639H354.203Z" fill="#181425"/>
<path d="M345.256 8.97639H348.239V6.75751H345.256V4.53863H342.139V6.75751H339.157V8.97639H342.139V11.1953H345.256V8.97639Z" fill="#181425"/>
<path d="M357.185 17.9528H360.167V15.633H357.185V13.4142H354.203V15.633H351.221V17.9528H354.203V20.1717H357.185V17.9528Z" fill="#181425"/>
<path d="M351.221 13.4142H354.203V11.1953H351.221V8.97639H348.239V11.1953H345.256V13.4142H348.239V15.633H351.221V13.4142Z" fill="#181425"/>
<path d="M612.569 33.5858H609.587V35.8047L612.569 35.8047V33.5858Z" fill="#181425"/>
<path d="M366.267 8.97639V11.1953H369.25V8.97639H372.232V6.75751H369.25V4.53863H366.267V6.75751H363.285V8.97639H366.267Z" fill="#181425"/>
<path d="M375.214 4.53863H372.232V6.75751H375.214V4.53863Z" fill="#181425"/>
<path d="M387.278 38.0236V35.8047H384.296V38.0236H381.314V40.2425L384.296 40.2425V42.4614L387.278 42.4614V40.2425L390.26 40.2425V38.0236H387.278Z" fill="#181425"/>
<path d="M381.314 35.8047H384.296V33.5858H381.314V31.2661H378.196V33.5858H375.214V35.8047H378.196V38.0236H381.314V35.8047Z" fill="#181425"/>
<path d="M363.285 22.3906H366.267V20.1717H363.285V17.9528H360.167V20.1717H357.185V22.3906H360.167V24.6094H363.285V22.3906Z" fill="#181425"/>
<path d="M474.44 38.0236H471.457V40.2425L474.44 40.2425V38.0236Z" fill="#181425"/>
<path d="M411.271 38.0236V35.8047H408.289V38.0236H405.307V40.2425L408.289 40.2425V42.4614H411.271V40.2425L414.254 40.2425V38.0236H411.271Z" fill="#181425"/>
<path d="M369.25 26.8283H372.232V24.6094H369.25V22.3906H366.267V24.6094H363.285V26.8283H366.267V29.0472H369.25V26.8283Z" fill="#181425"/>
<path d="M375.214 31.2661H378.196V29.0472H375.214V26.8283H372.232V29.0472H369.25V31.2661H372.232V33.5858H375.214V31.2661Z" fill="#181425"/>
<path d="M375.214 6.75751V8.97639H378.196V11.1953H381.314V8.97639H384.296V6.75751H381.314V4.53863H378.196V6.75751H375.214Z" fill="#181425"/>
<path d="M579.494 35.8047H576.512V38.0236H579.494V35.8047Z" fill="#181425"/>
<path d="M591.558 35.8047H588.576V38.0236H591.558V35.8047Z" fill="#181425"/>
<path d="M588.576 38.0236H585.594V40.2425H588.576V38.0236Z" fill="#181425"/>
<path d="M582.476 38.0236H579.494V40.2425H582.476V38.0236Z" fill="#181425"/>
<path d="M564.448 38.0236H561.465V40.2425H564.448V38.0236Z" fill="#181425"/>
<path d="M480.404 38.0236H477.422V40.2425L480.404 40.2425V38.0236Z" fill="#181425"/>
<path d="M558.483 38.0236H555.501V40.2425L558.483 40.2425V38.0236Z" fill="#181425"/>
<path d="M570.548 38.0236H567.565V40.2425L570.548 40.2425V38.0236Z" fill="#181425"/>
<path d="M606.605 38.0236H603.623V40.2425H606.605V38.0236Z" fill="#181425"/>
<path d="M594.541 38.0236H591.558V40.2425H594.541V38.0236Z" fill="#181425"/>
<path d="M612.569 38.0236H609.587V40.2425H612.569V38.0236Z" fill="#181425"/>
<path d="M606.605 33.5858H603.623V35.8047H606.605V33.5858Z" fill="#181425"/>
<path d="M603.623 35.8047L600.641 35.8047V38.0236H603.623V35.8047Z" fill="#181425"/>
<path d="M600.505 38.0236H597.523V40.2425H600.505V38.0236Z" fill="#181425"/>
<path d="M576.512 38.0236H573.53V40.2425H576.512V38.0236Z" fill="#181425"/>
<path d="M501.415 40.2425H498.433V42.4614H501.415V40.2425Z" fill="#181425"/>
<path d="M552.519 38.0236H549.537V40.2425L552.519 40.2425V38.0236Z" fill="#181425"/>
<path d="M507.379 40.2425L504.397 40.2425V42.4614H507.379V40.2425Z" fill="#181425"/>
<path d="M489.351 40.2425L486.368 40.2425V42.4614L489.351 42.4614V40.2425Z" fill="#181425"/>
<path d="M513.479 40.2425H510.497V42.4614H513.479V40.2425Z" fill="#181425"/>
<path d="M483.386 40.2425H480.404V42.4614L483.386 42.4614V40.2425Z" fill="#181425"/>
<path d="M495.451 40.2425H492.468V42.4614H495.451V40.2425Z" fill="#181425"/>
<path d="M540.455 38.0236H537.472V40.2425L540.455 40.2425V38.0236Z" fill="#181425"/>
<path d="M546.419 38.0236H543.437V40.2425L546.419 40.2425V38.0236Z" fill="#181425"/>
<path d="M534.49 38.0236H531.508V40.2425H534.49V38.0236Z" fill="#181425"/>
<path d="M525.408 40.2425L522.426 40.2425V42.4614H525.408V40.2425Z" fill="#181425"/>
<path d="M531.508 40.2425H528.526V42.4614H531.508V40.2425Z" fill="#181425"/>
<path d="M519.444 40.2425H516.461V42.4614H519.444V40.2425Z" fill="#181425"/>
<path d="M486.368 33.5858H483.386V35.8047L486.368 35.8047V33.5858Z" fill="#181425"/>
<path d="M492.468 15.633H489.486V17.8519H492.468V15.633Z" fill="#181425"/>
<path d="M486.368 15.633H483.386V17.8519H486.368V15.633Z" fill="#181425"/>
<path d="M645.645 22.3906H642.662V24.6094H645.645V22.3906Z" fill="#181425"/>
<path d="M642.662 24.6094H639.68V26.8283H642.662V24.6094Z" fill="#181425"/>
<path d="M498.433 15.633H495.451V17.8519H498.433V15.633Z" fill="#181425"/>
<path d="M504.397 15.633H501.415V17.8519H504.397V15.633Z" fill="#181425"/>
<path d="M642.662 20.1717H639.68V22.3906H642.662V20.1717Z" fill="#181425"/>
<path d="M483.386 13.4142H480.404V15.633H483.386V13.4142Z" fill="#181425"/>
<path d="M480.404 11.1953H477.422V13.4142H480.404V11.1953Z" fill="#181425"/>
<path d="M642.662 29.0472H639.68V31.2661H642.662V29.0472Z" fill="#181425"/>
<path d="M474.44 11.1953H471.457V13.4142H474.44V11.1953Z" fill="#181425"/>
<path d="M648.627 24.6094H645.645V26.8283H648.627V24.6094Z" fill="#181425"/>
<path d="M648.627 29.0472H645.645V31.2661H648.627V29.0472Z" fill="#181425"/>
<path d="M648.627 20.1717H645.645V22.3906H648.627V20.1717Z" fill="#181425"/>
<path d="M648.627 2.21888H645.645V4.43777H648.627V2.21888Z" fill="#181425"/>
<path d="M660.691 42.4614H657.709V44.6803H660.691V42.4614Z" fill="#181425"/>
<path d="M540.455 15.633H537.472V17.8519H540.455V15.633Z" fill="#181425"/>
<path d="M534.49 15.633H531.508V17.8519H534.49V15.633Z" fill="#181425"/>
<path d="M543.437 17.9528H540.455V20.1717H543.437V17.9528Z" fill="#181425"/>
<path d="M546.419 15.633H543.437V17.8519H546.419V15.633Z" fill="#181425"/>
<path d="M645.645 31.2661H642.662V33.485H645.645V31.2661Z" fill="#181425"/>
<path d="M654.591 42.4614H651.609V44.6803H654.591V42.4614Z" fill="#181425"/>
<path d="M522.426 15.633H519.444V17.8519H522.426V15.633Z" fill="#181425"/>
<path d="M648.627 11.1953H645.645V13.4142H648.627V11.1953Z" fill="#181425"/>
<path d="M528.526 15.633H525.544V17.8519H528.526V15.633Z" fill="#181425"/>
<path d="M648.627 15.633H645.645V17.8519H648.627V15.633Z" fill="#181425"/>
<path d="M516.461 15.633H513.479V17.8519H516.461V15.633Z" fill="#181425"/>
<path d="M648.627 6.75751H645.645V8.97639H648.627V6.75751Z" fill="#181425"/>
<path d="M510.497 15.633H507.515V17.8519H510.497V15.633Z" fill="#181425"/>
<path d="M447.329 8.97639H444.347V11.1953H447.329V8.97639Z" fill="#181425"/>
<path d="M636.562 11.1953H633.58V13.4142H636.562V11.1953Z" fill="#181425"/>
<path d="M411.271 15.633V17.9528H414.254V20.1717H417.371V17.9528H420.354V15.633H417.371V13.4142H414.254V15.633H411.271Z" fill="#181425"/>
<path d="M435.264 13.4142H432.282V15.633H435.264V13.4142Z" fill="#181425"/>
<path d="M423.336 13.4142H420.354V15.633H423.336V13.4142Z" fill="#181425"/>
<path d="M636.562 2.21888H633.58V4.43777H636.562V2.21888Z" fill="#181425"/>
<path d="M423.336 15.633V17.9528H426.318V20.1717H429.3V17.9528H432.282V15.633H429.3V13.4142H426.318V15.633H423.336Z" fill="#181425"/>
<path d="M636.562 6.75751H633.58V8.97639H636.562V6.75751Z" fill="#181425"/>
<path d="M630.598 11.1953H627.616V13.4142H630.598V11.1953Z" fill="#181425"/>
<path d="M399.207 13.4142H396.225V15.633H399.207V13.4142Z" fill="#181425"/>
<path d="M636.562 15.633H633.58V17.8519H636.562V15.633Z" fill="#181425"/>
<path d="M411.271 13.4142H408.289V15.633H411.271V13.4142Z" fill="#181425"/>
<path d="M630.598 15.633H627.616V17.8519H630.598V15.633Z" fill="#181425"/>
<path d="M633.58 13.4142H630.598V15.633H633.58V13.4142Z" fill="#181425"/>
<path d="M399.343 15.633V17.9528H402.325V20.1717H405.307V17.9528H408.289V15.633H405.307V13.4142H402.325V15.633H399.343Z" fill="#181425"/>
<path d="M453.293 8.97639H450.311V11.1953H453.293V8.97639Z" fill="#181425"/>
<path d="M459.393 8.97639H456.411V11.1953H459.393V8.97639Z" fill="#181425"/>
<path d="M648.627 33.5858H645.645V35.8047H648.627V33.5858Z" fill="#181425"/>
<path d="M468.34 11.1953H465.357V13.4142H468.34V11.1953Z" fill="#181425"/>
<path d="M648.627 38.0236H645.645V40.2425H648.627V38.0236Z" fill="#181425"/>
<path d="M642.662 33.5858H639.68V35.8047H642.662V33.5858Z" fill="#181425"/>
<path d="M465.357 8.97639H462.375V11.1953H465.357V8.97639Z" fill="#181425"/>
<path d="M552.519 15.633H549.537V17.8519H552.519V15.633Z" fill="#181425"/>
<path d="M642.662 42.4614H639.68V44.6803H642.662V42.4614Z" fill="#181425"/>
<path d="M438.382 11.1953H435.4V13.4142H438.382V11.1953Z" fill="#181425"/>
<path d="M642.662 38.0236H639.68V40.2425H642.662V38.0236Z" fill="#181425"/>
<path d="M441.364 8.97639H438.382V11.1953H441.364V8.97639Z" fill="#181425"/>
<path d="M648.627 42.4614H645.645V44.6803H648.627V42.4614Z" fill="#181425"/>
<path d="M645.645 40.2425H642.662V42.4614H645.645V40.2425Z" fill="#181425"/>
<path d="M459.393 26.8283H456.411V29.0472H459.393V26.8283Z" fill="#181425"/>
<path d="M666.655 42.4614H663.673V44.6803H666.655V42.4614Z" fill="#181425"/>
<path d="M489.351 31.2661H486.368V33.485H489.351V31.2661Z" fill="#181425"/>
<path d="M483.386 31.2661H480.404V33.485H483.386V31.2661Z" fill="#181425"/>
<path d="M477.422 31.2661H474.44V33.485H477.422V31.2661Z" fill="#181425"/>
<path d="M666.655 38.0236H663.673V40.2425H666.655V38.0236Z" fill="#181425"/>
<path d="M669.638 40.2425L666.655 40.2425V42.4614L669.638 42.4614V40.2425Z" fill="#181425"/>
<path d="M474.44 29.0472H471.457V31.2661H474.44V29.0472Z" fill="#181425"/>
<path d="M672.62 42.4614L669.638 42.4614V44.6803H672.62V42.4614Z" fill="#181425"/>
<path d="M660.691 6.75751H657.709V8.97639H660.691V6.75751Z" fill="#181425"/>
<path d="M471.322 8.97639H468.34V11.1953H471.322V8.97639Z" fill="#181425"/>
<path d="M660.691 11.1953H657.709V13.4142H660.691V11.1953Z" fill="#181425"/>
<path d="M492.468 33.5858H489.486V35.8047H492.468V33.5858Z" fill="#181425"/>
<path d="M660.691 2.21888H657.709V4.43777H660.691V2.21888Z" fill="#181425"/>
<path d="M498.433 33.5858H495.451V35.8047H498.433V33.5858Z" fill="#181425"/>
<path d="M672.62 15.633H669.638V17.8519H672.62V15.633Z" fill="#181425"/>
<path d="M447.329 26.8283H444.347V29.0472H447.329V26.8283Z" fill="#181425"/>
<path d="M672.62 38.0236H669.638V40.2425L672.62 40.2425V38.0236Z" fill="#181425"/>
<path d="M672.62 20.1717H669.638V22.3906H672.62V20.1717Z" fill="#181425"/>
<path d="M672.62 11.1953H669.638V13.4142H672.62V11.1953Z" fill="#181425"/>
<path d="M435.264 26.8283H432.282V29.0472H435.264V26.8283Z" fill="#181425"/>
<path d="M456.411 26.8283V24.6094H453.429V22.3906H450.311V24.6094H447.329V26.8283H450.311V29.0472H453.429V26.8283H456.411Z" fill="#181425"/>
<path d="M444.347 26.8283V24.6094H441.364V22.3906H438.382V24.6094H435.4V26.8283H438.382V29.0472H441.364V26.8283H444.347Z" fill="#181425"/>
<path d="M510.497 33.5858H507.515V35.8047H510.497V33.5858Z" fill="#181425"/>
<path d="M672.62 33.5858H669.638V35.8047H672.62V33.5858Z" fill="#181425"/>
<path d="M465.357 26.8283H462.375V29.0472H465.357V26.8283Z" fill="#181425"/>
<path d="M471.322 26.8283H468.34V29.0472H471.322V26.8283Z" fill="#181425"/>
<path d="M387.278 15.633V17.9528H390.26V20.1717H393.243V17.9528H396.225V15.633H393.243V13.4142H390.26V15.633H387.278Z" fill="#181425"/>
<path d="M672.62 29.0472H669.638V31.2661H672.62V29.0472Z" fill="#181425"/>
<path d="M672.62 24.6094H669.638V26.8283H672.62V24.6094Z" fill="#181425"/>
<path d="M657.709 40.2425H654.727V42.4614L657.709 42.4614V40.2425Z" fill="#181425"/>
<path d="M660.691 38.0236H657.709V40.2425L660.691 40.2425V38.0236Z" fill="#181425"/>
<path d="M660.691 15.633H657.709V17.8519H660.691V15.633Z" fill="#181425"/>
<path d="M654.591 38.0236H651.609V40.2425H654.591V38.0236Z" fill="#181425"/>
<path d="M546.419 24.6094H543.437V26.8283H546.419V24.6094Z" fill="#181425"/>
<path d="M660.691 33.5858H657.709V35.8047H660.691V33.5858Z" fill="#181425"/>
<path d="M654.591 33.5858H651.609V35.8047H654.591V33.5858Z" fill="#181425"/>
<path d="M540.455 20.1717H537.472V22.3906H540.455V20.1717Z" fill="#181425"/>
<path d="M552.519 20.1717H549.537V22.3906H552.519V20.1717Z" fill="#181425"/>
<path d="M558.483 20.1717H555.501V22.3906H558.483V20.1717Z" fill="#181425"/>
<path d="M555.501 17.9528H552.519V20.1717H555.501V17.9528Z" fill="#181425"/>
<path d="M558.483 24.6094H555.501V26.8283H558.483V24.6094Z" fill="#181425"/>
<path d="M552.519 24.6094H549.537V26.8283H552.519V24.6094Z" fill="#181425"/>
<path d="M543.437 22.3906H540.455V24.6094H543.437V22.3906Z" fill="#181425"/>
<path d="M549.537 22.3906H546.554V24.6094H549.537V22.3906Z" fill="#181425"/>
<path d="M540.455 24.6094H537.472V26.8283H540.455V24.6094Z" fill="#181425"/>
<path d="M528.526 29.0472H525.544V31.2661H528.526V29.0472Z" fill="#181425"/>
<path d="M660.691 24.6094H657.709V26.8283H660.691V24.6094Z" fill="#181425"/>
<path d="M522.426 29.0472H519.444V31.2661H522.426V29.0472Z" fill="#181425"/>
<path d="M519.444 31.2661H516.461V33.485H519.444V31.2661Z" fill="#181425"/>
<path d="M660.691 20.1717H657.709V22.3906H660.691V20.1717Z" fill="#181425"/>
<path d="M516.461 33.5858H513.479V35.8047H516.461V33.5858Z" fill="#181425"/>
<path d="M534.49 24.6094H531.508V26.8283H534.49V24.6094Z" fill="#181425"/>
<path d="M657.709 31.2661H654.727V33.485H657.709V31.2661Z" fill="#181425"/>
<path d="M660.691 29.0472H657.709V31.2661H660.691V29.0472Z" fill="#181425"/>
<path d="M546.419 20.1717H543.437V22.3906H546.419V20.1717Z" fill="#181425"/>
<path d="M537.472 22.3906H534.49V24.6094H537.472V22.3906Z" fill="#181425"/>
<path d="M531.508 26.8283H528.526V29.0472H531.508V26.8283Z" fill="#181425"/>
<path d="M654.591 29.0472H651.609V31.2661H654.591V29.0472Z" fill="#181425"/>
<path d="M504.397 33.5858H501.415V35.8047H504.397V33.5858Z" fill="#181425"/>
<path d="M576.512 24.6094H573.53V26.8283H576.512V24.6094Z" fill="#181425"/>
<path d="M576.512 29.0472H573.53V31.2661H576.512V29.0472Z" fill="#181425"/>
<path d="M546.419 42.4614L543.437 42.4614V44.6803L546.419 44.6803V42.4614Z" fill="#181425"/>
<path d="M570.548 29.0472H567.565V31.2661H570.548V29.0472Z" fill="#181425"/>
<path d="M573.53 22.3906H570.548V24.6094H573.53V22.3906Z" fill="#181425"/>
<path d="M567.565 26.8283H564.583V29.0472H567.565V26.8283Z" fill="#181425"/>
<path d="M570.548 24.6094H567.565V26.8283H570.548V24.6094Z" fill="#181425"/>
<path d="M558.483 11.1953H555.501V13.4142H558.483V11.1953Z" fill="#181425"/>
<path d="M561.465 13.4142H558.483V15.633H561.465V13.4142Z" fill="#181425"/>
<path d="M570.548 20.1717H567.565V22.3906H570.548V20.1717Z" fill="#181425"/>
<path d="M564.448 29.0472H561.465V31.2661H564.448V29.0472Z" fill="#181425"/>
<path d="M540.455 42.4614L537.472 42.4614V44.6803L540.455 44.6803V42.4614Z" fill="#181425"/>
<path d="M564.448 15.633H561.465V17.8519H564.448V15.633Z" fill="#181425"/>
<path d="M567.565 17.9528H564.583V20.1717H567.565V17.9528Z" fill="#181425"/>
<path d="M531.508 31.2661H528.526V33.485H531.508V31.2661Z" fill="#181425"/>
<path d="M525.408 31.2661H522.426V33.485H525.408V31.2661Z" fill="#181425"/>
<path d="M561.465 40.2425H558.483V42.4614H561.465V40.2425Z" fill="#181425"/>
<path d="M558.483 42.4614H555.501V44.6803L558.483 44.6803V42.4614Z" fill="#181425"/>
<path d="M552.519 11.1953H549.537V13.4142H552.519V11.1953Z" fill="#181425"/>
<path d="M513.479 35.8047H510.497V38.0236H513.479V35.8047Z" fill="#181425"/>
<path d="M522.426 33.5858H519.444V35.8047H522.426V33.5858Z" fill="#181425"/>
<path d="M519.444 35.8047H516.461V38.0236H519.444V35.8047Z" fill="#181425"/>
<path d="M540.455 29.0472H537.472V31.2661H540.455V29.0472Z" fill="#181425"/>
<path d="M546.419 29.0472H543.437V31.2661H546.419V29.0472Z" fill="#181425"/>
<path d="M552.519 29.0472H549.537V31.2661H552.519V29.0472Z" fill="#181425"/>
<path d="M549.537 40.2425L546.554 40.2425V42.4614H549.537V40.2425Z" fill="#181425"/>
<path d="M552.519 42.4614H549.537V44.6803L552.519 44.6803V42.4614Z" fill="#181425"/>
<path d="M558.483 29.0472H555.501V31.2661H558.483V29.0472Z" fill="#181425"/>
<path d="M534.49 29.0472H531.508V31.2661H534.49V29.0472Z" fill="#181425"/>
<path d="M564.448 42.4614L561.465 42.4614V44.6803H564.448V42.4614Z" fill="#181425"/>
<path d="M498.433 11.1953H495.451V13.4142H498.433V11.1953Z" fill="#181425"/>
<path d="M492.468 11.1953H489.486V13.4142H492.468V11.1953Z" fill="#181425"/>
<path d="M510.497 42.4614L507.515 42.4614V44.6803L510.497 44.6803V42.4614Z" fill="#181425"/>
<path d="M501.415 13.4142H498.433V15.633H501.415V13.4142Z" fill="#181425"/>
<path d="M516.461 42.4614H513.479V44.6803H516.461V42.4614Z" fill="#181425"/>
<path d="M504.397 11.1953H501.415V13.4142H504.397V11.1953Z" fill="#181425"/>
<path d="M504.397 42.4614H501.415V44.6803H504.397V42.4614Z" fill="#181425"/>
<path d="M477.422 8.97639H474.44V11.1953H477.422V8.97639Z" fill="#181425"/>
<path d="M510.497 11.1953H507.515V13.4142H510.497V11.1953Z" fill="#181425"/>
<path d="M483.386 8.97639H480.404V11.1953H483.386V8.97639Z" fill="#181425"/>
<path d="M489.351 13.4142H486.368V15.633H489.351V13.4142Z" fill="#181425"/>
<path d="M492.468 42.4614L489.486 42.4614V44.6803L492.468 44.6803V42.4614Z" fill="#181425"/>
<path d="M549.537 13.4142H546.554V15.633H549.537V13.4142Z" fill="#181425"/>
<path d="M498.433 42.4614H495.451V44.6803H498.433V42.4614Z" fill="#181425"/>
<path d="M486.368 11.1953H483.386V13.4142H486.368V11.1953Z" fill="#181425"/>
<path d="M537.472 40.2425H534.49V42.4614L537.472 42.4614V40.2425Z" fill="#181425"/>
<path d="M537.472 13.4142H534.49V15.633H537.472V13.4142Z" fill="#181425"/>
<path d="M513.479 13.4142H510.497V15.633H513.479V13.4142Z" fill="#181425"/>
<path d="M534.49 11.1953H531.508V13.4142H534.49V11.1953Z" fill="#181425"/>
<path d="M540.455 11.1953H537.472V13.4142H540.455V11.1953Z" fill="#181425"/>
<path d="M546.419 11.1953H543.437V13.4142H546.419V11.1953Z" fill="#181425"/>
<path d="M636.562 20.1717H633.58V22.3906H636.562V20.1717Z" fill="#181425"/>
<path d="M528.526 11.1953H525.544V13.4142H528.526V11.1953Z" fill="#181425"/>
<path d="M522.426 42.4614H519.444V44.6803H522.426V42.4614Z" fill="#181425"/>
<path d="M522.426 11.1953H519.444V13.4142H522.426V11.1953Z" fill="#181425"/>
<path d="M516.461 11.1953H513.479V13.4142H516.461V11.1953Z" fill="#181425"/>
<path d="M528.526 42.4614L525.544 42.4614V44.6803L528.526 44.6803V42.4614Z" fill="#181425"/>
<path d="M525.408 13.4142H522.426V15.633H525.408V13.4142Z" fill="#181425"/>
<path d="M534.49 42.4614H531.508V44.6803L534.49 44.6803V42.4614Z" fill="#181425"/>
<path d="M630.598 42.4614H627.616V44.6803L630.598 44.6803V42.4614Z" fill="#181425"/>
<path d="M411.271 31.2661H408.289V33.485H411.271V31.2661Z" fill="#181425"/>
<path d="M414.254 29.0472H411.271V31.2661H414.254V29.0472Z" fill="#181425"/>
<path d="M633.58 40.2425H630.598V42.4614H633.58V40.2425Z" fill="#181425"/>
<path d="M624.634 42.4614H621.651V44.6803L624.634 44.6803V42.4614Z" fill="#181425"/>
<path d="M630.598 38.0236H627.616V40.2425L630.598 40.2425V38.0236Z" fill="#181425"/>
<path d="M399.343 29.0472V26.8283H396.225V29.0472H393.243V31.2661H396.225V33.5858H399.343V31.2661H402.325V29.0472H399.343Z" fill="#181425"/>
<path d="M408.289 29.0472H405.307V31.2661H408.289V29.0472Z" fill="#181425"/>
<path d="M426.318 29.0472H423.336V31.2661H426.318V29.0472Z" fill="#181425"/>
<path d="M621.651 40.2425H618.669V42.4614L621.651 42.4614V40.2425Z" fill="#181425"/>
<path d="M432.282 29.0472H429.3V31.2661H432.282V29.0472Z" fill="#181425"/>
<path d="M624.634 38.0236H621.651V40.2425L624.634 40.2425V38.0236Z" fill="#181425"/>
<path d="M420.354 29.0472H417.371V31.2661H420.354V29.0472Z" fill="#181425"/>
<path d="M423.336 31.2661H420.354V33.485H423.336V31.2661Z" fill="#181425"/>
<path d="M630.598 24.6094H627.616V26.8283H630.598V24.6094Z" fill="#181425"/>
<path d="M381.314 17.9528H384.296V15.633H381.314V13.4142H378.196V15.633H375.214V17.9528H378.196V20.1717H381.314V17.9528Z" fill="#181425"/>
<path d="M636.562 29.0472H633.58V31.2661H636.562V29.0472Z" fill="#181425"/>
<path d="M636.562 24.6094H633.58V26.8283H636.562V24.6094Z" fill="#181425"/>
<path d="M618.534 42.4614H615.552V44.6803L618.534 44.6803V42.4614Z" fill="#181425"/>
<path d="M507.379 35.8047L504.397 35.8047V38.0236H507.379V35.8047Z" fill="#181425"/>
<path d="M630.598 20.1717H627.616V22.3906H630.598V20.1717Z" fill="#181425"/>
<path d="M633.58 22.3906H630.598V24.6094H633.58V22.3906Z" fill="#181425"/>
<path d="M387.278 22.3906H390.26V20.1717H387.278V17.9528H384.296V20.1717H381.314V22.3906H384.296V24.6094H387.278V22.3906Z" fill="#181425"/>
<path d="M393.243 26.8283H396.225V24.6094H393.243V22.3906H390.26V24.6094H387.278V26.8283H390.26V29.0472H393.243V26.8283Z" fill="#181425"/>
<path d="M630.598 33.5858H627.616V35.8047H630.598V33.5858Z" fill="#181425"/>
<path d="M636.562 33.5858H633.58V35.8047H636.562V33.5858Z" fill="#181425"/>
<path d="M633.58 31.2661H630.598V33.485H633.58V31.2661Z" fill="#181425"/>
<path d="M630.598 29.0472H627.616V31.2661H630.598V29.0472Z" fill="#181425"/>
<path d="M636.562 38.0236H633.58V40.2425L636.562 40.2425V38.0236Z" fill="#181425"/>
<path d="M387.278 13.4142H384.296V15.633H387.278V13.4142Z" fill="#181425"/>
<path d="M474.44 33.5858H471.457V35.8047L474.44 35.8047V33.5858Z" fill="#181425"/>
<path d="M672.62 6.75751H669.638V8.97639H672.62V6.75751Z" fill="#181425"/>
<path d="M582.476 42.4614H579.494V44.6803L582.476 44.6803V42.4614Z" fill="#181425"/>
<path d="M435.264 31.2661H432.282V33.485H435.264V31.2661Z" fill="#181425"/>
<path d="M585.594 40.2425L582.612 40.2425V42.4614H585.594V40.2425Z" fill="#181425"/>
<path d="M588.576 42.4614L585.594 42.4614V44.6803L588.576 44.6803V42.4614Z" fill="#181425"/>
<path d="M471.322 31.2661H468.34V33.485H471.322V31.2661Z" fill="#181425"/>
<path d="M501.415 35.8047H498.433V38.0236H501.415V35.8047Z" fill="#181425"/>
<path d="M495.451 35.8047H492.468V38.0236H495.451V35.8047Z" fill="#181425"/>
<path d="M468.34 29.0472H465.357V31.2661H468.34V29.0472Z" fill="#181425"/>
<path d="M570.548 42.4614L567.565 42.4614V44.6803L570.548 44.6803V42.4614Z" fill="#181425"/>
<path d="M489.351 35.8047L486.368 35.8047V38.0236H489.351V35.8047Z" fill="#181425"/>
<path d="M573.53 40.2425H570.548V42.4614L573.53 42.4614V40.2425Z" fill="#181425"/>
<path d="M576.512 42.4614L573.53 42.4614V44.6803L576.512 44.6803V42.4614Z" fill="#181425"/>
<path d="M480.404 33.5858H477.422V35.8047H480.404V33.5858Z" fill="#181425"/>
<path d="M444.347 29.0472H441.364V31.2661H444.347V29.0472Z" fill="#181425"/>
<path d="M606.605 42.4614H603.623V44.6803L606.605 44.6803V42.4614Z" fill="#181425"/>
<path d="M609.587 40.2425H606.605V42.4614L609.587 42.4614V40.2425Z" fill="#181425"/>
<path d="M447.329 31.2661H444.347V33.485H447.329V31.2661Z" fill="#181425"/>
<path d="M612.569 42.4614L609.587 42.4614V44.6803L612.569 44.6803V42.4614Z" fill="#181425"/>
<path d="M594.541 42.4614H591.558V44.6803L594.541 44.6803V42.4614Z" fill="#181425"/>
<path d="M438.382 29.0472H435.4V31.2661H438.382V29.0472Z" fill="#181425"/>
<path d="M459.393 31.2661H456.411V33.485H459.393V31.2661Z" fill="#181425"/>
<path d="M462.375 29.0472H459.393V31.2661H462.375V29.0472Z" fill="#181425"/>
<path d="M597.523 40.2425H594.541V42.4614L597.523 42.4614V40.2425Z" fill="#181425"/>
<path d="M600.505 42.4614L597.523 42.4614V44.6803H600.505V42.4614Z" fill="#181425"/>
<path d="M450.311 29.0472H447.329V31.2661H450.311V29.0472Z" fill="#181425"/>
<path d="M456.411 29.0472H453.429V31.2661H456.411V29.0472Z" fill="#181425"/>
</svg>
