<svg width="215" height="32" viewBox="0 0 215 32" xmlns="http://www.w3.org/2000/svg">
    <path d="M130.999 18.7234H164.999V22.7234H130.999V18.7234Z" />
    <path d="M130.999 8.72339H164.999V12.7234H130.999V8.72339Z" />
    <path d="M186.231 0.000976562L203.231 29.4458L199.767 31.4459L182.767 2.00098L186.231 0.000976562Z" />
    <path d="M197.464 0.000976562L214.464 29.4458L210.999 31.4459L193.999 2.00098L197.464 0.000976562Z" />
    <path d="M88.9994 18.7234H120.999V22.7234H88.9994V18.7234Z" />
    <path d="M88.9994 8.72339H120.999V12.7234H88.9994V8.72339Z" />
    <path d="M44.9994 18.7234H78.9994V22.7234H44.9994V18.7234Z" />
    <path d="M44.9994 8.72339H78.9994V12.7234H44.9994V8.72339Z" />
    <path d="M4.23167 0.0552597L21.2317 29.5001L17.7676 31.5001L0.767578 2.05526L4.23167 0.0552597Z" />
    <path d="M15.4637 0.0552597L32.4637 29.5001L28.9996 31.5001L11.9996 2.05526L15.4637 0.0552597Z" />
</svg>